<svg width="533" height="459" xmlns="http://www.w3.org/2000/svg" xmlns:xlink="http://www.w3.org/1999/xlink">
  <defs>
    <path d="M16.0012563 140.456695c-26.3084769 38.083932-18.40796638 88.827737 17.6526534 113.335102L178.294761 44.4408052 113.003208.06328825 16.0012563 140.456695z" id="a"/>
    <linearGradient x1="49.9997586%" y1="86.8802368%" x2="49.9997586%" y2="13.0289372%" id="b">
      <stop stop-color="#01D466" offset="0%"/>
      <stop stop-color="#00A850" offset="100%"/>
    </linearGradient>
    <path id="d" d="M0 .48364767h332.822606V239.021293H0z"/>
  </defs>
  <g fill="none" fill-rule="evenodd">
    <g transform="translate(-10.321692 .899495)">
      <path stroke="#19243B" stroke-width=".8" stroke-linecap="round" stroke-linejoin="round" d="M11.4293363 384.42092513l25.24897183 7.5325574-22.21528885 18.64084068z"/>
      <path d="M357.32169212 385.10050556c6.075132 10.52243729 19.53012073 14.12769138 30.05255888 8.05255888 10.52243729-6.075132 14.12769088-19.5301216 8.05255888-30.05255888l-38.10511776 22z" stroke="#19243B" stroke-linecap="round" stroke-linejoin="round"/>
      <path d="M513.02568645 78.10050515c-6.33367255 4.43488527-7.8729443 13.16452595-3.43805876 19.4981989 4.43488498 6.33367214 13.16452643 7.8729436 19.49819897 3.43805834l-16.06014021-22.93625724zM93.321692 58.47308814l22.627417-22.627417 22.627417 22.627417-22.627417 22.627417z" fill="#E9F4FE" fill-rule="nonzero"/>
      <path stroke="#19243B" stroke-linecap="round" stroke-linejoin="round" d="M94.32169192 10.00000014L104.22118686.1005052l9.89949494 9.89949494-9.89949494 9.89949494z"/>
      <circle fill="#E9F4FE" fill-rule="nonzero" cx="528.321692" cy="416.100505" r="14"/>
      <circle stroke="#19243B" stroke-linecap="round" stroke-linejoin="round" cx="536.321692" cy="451.100505" r="6"/>
      <circle stroke="#19243B" stroke-linecap="round" stroke-linejoin="round" cx="529.321692" cy="54.1005051" r="6"/>
      <circle stroke="#D7E6F2" stroke-linecap="round" stroke-linejoin="round" cx="102.321692" cy="376.100505" r="26"/>
      <circle stroke="#D7E6F2" stroke-linecap="round" stroke-linejoin="round" cx="517.321692" cy="289.100505" r="20"/>
    </g>
    <g transform="translate(213.481303 150.020305)">
      <mask id="c" fill="#fff">
        <use xlink:href="#a"/>
      </mask>
      <path d="M16.0012563 140.456695c-26.3084769 38.083932-18.40796638 88.827737 17.6526534 113.335102L178.294761 44.4408052 113.003208.06328825 16.0012563 140.456695z" fill="url(#b)" mask="url(#c)"/>
    </g>
    <g transform="translate(88 32)">
      <mask id="e" fill="#fff">
        <use xlink:href="#d"/>
      </mask>
      <path d="M326.978514 23.8087917c-2.167143-8.0795593-4.911128-15.85566098-8.123598-23.32514403L271.878907 19.76269c-13.946202 5.7214407-22.117605 20.1040678-19.969584 34.9229153.640582 4.3938136.96884 8.9045847.962466 13.5101864-.054178 43.4703053-31.684903 81.4846953-74.705876 89.7855253-36.764941 7.096483-71.780233-8.079559-92.224676-35.226373-9.0191387-11.980254-25.0464349-16.405678-38.9735147-10.687398L-.00191218 131.343427C31.8837706 210.722885 119.251497 255.745249 204.579561 233.226165c92.103571-24.301899 146.903602-118.063983 122.398953-209.4173733" fill="#01D466" mask="url(#e)"/>
    </g>
    <path d="M312.438238 108.3461578c-3.802061 32.5521522-33.491918 55.8836182-66.311385 52.1125252-32.819466-3.774254-56.342527-33.2191269-52.540466-65.7712794 3.802061-32.5553136 33.491918-55.88361864 66.311384-52.1125254 32.822654 3.7710932 56.342528 33.2191271 52.540467 65.7712796" fill="#00D665"/>
    <path d="M232.550659 114.0894095c-1.797453.4994407-2.62288 2.5446187-1.717779 4.1662204 7.833584 14.0191101 24.890273 20.9038051 40.71679 15.5427201 14.567662-4.9280252 23.561305-18.687932 23.006771-33.1969998-.070113-1.8555169-1.842071-3.1894661-3.645899-2.6900254l-58.359883 16.1780847z" fill="#FFF"/>
  </g>
</svg>
