<svg width="533" height="459" xmlns="http://www.w3.org/2000/svg" xmlns:xlink="http://www.w3.org/1999/xlink">
  <defs>
    <path id="a" d="M63.625 308.376859h384.93125V33.9012713H63.625z"/>
  </defs>
  <g fill="none" fill-rule="evenodd">
    <g transform="translate(3 36)">
      <path d="M0 0h509v339H0z"/>
      <path d="M309.1157 149.675704h-88.3115M283.661458 162.388204h-66.80625M204.010169 149.675704h-12.610475" stroke="#19243B" stroke-linecap="round" stroke-linejoin="round"/>
      <path d="M189.462525 297.783109c0 4.6782-3.800533 8.475-8.483333 8.475s-8.483334-3.7968-8.483334-8.475c0-4.6782 3.800534-8.475 8.483334-8.475 4.6828 0 8.483333 3.7968 8.483333 8.475" fill="#D7E6F2"/>
      <path d="M189.462525 297.783109c0 4.6782-3.800533 8.475-8.483333 8.475s-8.483334-3.7968-8.483334-8.475c0-4.6782 3.800534-8.475 8.483334-8.475 4.6828 0 8.483333 3.7968 8.483333 8.475z" stroke="#19243B" stroke-linecap="round" stroke-linejoin="round"/>
      <path d="M343.570758 61.445445c0 4.6782-3.800533 8.475-8.483333 8.475s-8.483333-3.7968-8.483333-8.475c0-4.6782 3.800533-8.475 8.483333-8.475s8.483333 3.7968 8.483333 8.475" fill="#D7E6F2"/>
      <path d="M343.570758 61.445445c0 4.6782-3.800533 8.475-8.483333 8.475s-8.483333-3.7968-8.483333-8.475c0-4.6782 3.800533-8.475 8.483333-8.475s8.483333 3.7968 8.483333 8.475z" stroke="#19243B" stroke-linecap="round" stroke-linejoin="round"/>
      <path d="M373.262425 61.445445c0 4.6782-3.800533 8.475-8.483333 8.475s-8.483334-3.7968-8.483334-8.475c0-4.6782 3.800534-8.475 8.483334-8.475 4.6828 0 8.483333 3.7968 8.483333 8.475" fill="#D7E6F2"/>
      <path d="M373.262425 61.445445c0 4.6782-3.800533 8.475-8.483333 8.475s-8.483334-3.7968-8.483334-8.475c0-4.6782 3.800534-8.475 8.483334-8.475 4.6828 0 8.483333 3.7968 8.483333 8.475z" stroke="#19243B" stroke-linecap="round" stroke-linejoin="round"/>
      <path d="M402.958333 61.445445c0 4.6782-3.800533 8.475-8.483333 8.475s-8.483333-3.7968-8.483333-8.475c0-4.6782 3.800533-8.475 8.483333-8.475s8.483333 3.7968 8.483333 8.475" fill="#D7E6F2"/>
      <path d="M402.958333 61.445445c0 4.6782-3.800533 8.475-8.483333 8.475s-8.483333-3.7968-8.483333-8.475c0-4.6782 3.800533-8.475 8.483333-8.475s8.483333 3.7968 8.483333 8.475z" stroke="#19243B" stroke-linecap="round" stroke-linejoin="round"/>
      <path d="M394.475 264.843326H106.041667c-13.9975003 0-25.4500003-11.44125-25.4500003-25.425V61.4433263c0-13.9837501 11.4525-25.425 25.4500003-25.425H394.475c13.9975 0 25.45 11.4412499 25.45 25.425V239.418326c0 13.98375-11.4525 25.425-25.45 25.425z" stroke="#19243B" stroke-linecap="round" stroke-linejoin="round"/>
      <path d="M95.4375 187.606414c0 8.191087-6.6466917 14.83125-14.8458333 14.83125-8.1991417 0-14.8458334-6.640163-14.8458334-14.83125 0-8.191088 6.6466917-14.83125 14.8458334-14.83125 8.1991416 0 14.8458333 6.640162 14.8458333 14.83125" fill="#FFF"/>
      <path d="M95.4375 187.606414c0 8.191087-6.6466917 14.83125-14.8458333 14.83125-8.1991417 0-14.8458334-6.640163-14.8458334-14.83125 0-8.191088 6.6466917-14.83125 14.8458334-14.83125 8.1991416 0 14.8458333 6.640162 14.8458333 14.83125z" stroke="#19243B" stroke-linecap="round" stroke-linejoin="round"/>
      <path d="M425.227083 152.022008c-11.711241 0-21.208333-9.487763-21.208333-21.1875 0-11.703975 9.497092-21.1875 21.208333-21.1875 11.715484 0 21.208334 9.483525 21.208334 21.1875 0 11.699737-9.49285 21.1875-21.208334 21.1875z" fill="#FFF"/>
      <path d="M446.435417 130.834508c0 11.699737-9.49285 21.1875-21.208334 21.1875-11.711241 0-21.208333-9.487763-21.208333-21.1875 0-11.703975 9.497092-21.1875 21.208333-21.1875 11.715484 0 21.208334 9.483525 21.208334 21.1875z" stroke="#19243B" stroke-linecap="round" stroke-linejoin="round"/>
      <path d="M425.227507 152.021584c11.711242 0 21.208334-9.492 21.208334-21.1875 0-8.008875-4.45375-14.958375-11.028333-18.56025 1.611833 3.008625 2.544999 6.441 2.544999 10.08525 0 11.6955-9.497091 21.1875-21.208333 21.1875-3.643592 0-7.083583-.93225-10.095167-2.5425 3.609659 6.568125 10.56175 11.0175 18.5785 11.0175z" fill="#D7E6F2"/>
      <path d="M446.435417 130.834508c0 11.699737-9.49285 21.1875-21.208334 21.1875-11.711241 0-21.208333-9.487763-21.208333-21.1875 0-11.703975 9.497092-21.1875 21.208333-21.1875 11.715484 0 21.208334 9.483525 21.208334 21.1875z" stroke="#19243B" stroke-linecap="round" stroke-linejoin="round"/>
      <path d="M274.867635 233.565067c-20.745992 0-38.980917-10.636124-49.585083-26.738625 9.374083 6.186751 20.572083 9.788626 32.618416 9.788626 32.783842 0 59.383334-26.569126 59.383334-59.325001 0-12.0345-3.609659-23.221499-9.802492-32.586375 16.118333 10.59375 26.769158 28.815001 26.769158 49.536376 0 32.755875-26.599491 59.324999-59.383333 59.324999z" fill="#D7E6F2"/>
      <path fill="#FFF" d="M390.755058 276.393056l-13.56485 13.619325-41.924633-41.811412 13.632717-13.623563z"/>
      <path stroke="#19243B" stroke-linecap="round" stroke-linejoin="round" d="M390.755058 276.393056l-13.56485 13.619325-41.924633-41.811412 13.632717-13.623563z"/>
      <path d="M300.59504 120.758156c19.910383 9.580988 33.657625 29.929463 33.657625 53.481488 0 32.760112-26.59525 59.325-59.383333 59.325-32.796567 0-59.383334-26.564888-59.383334-59.325 0-20.708663 10.616892-38.938388 26.718259-49.553325m22.603841-8.924175c3.270325-.55935 6.629725-.8475 10.061234-.8475 5.204525 0 10.25635.669525 15.0664 1.928062m59.913541 57.396938c0-41.336813-33.534616-74.9147628-74.979941-74.9147628-41.449567 0-74.988425 33.5779498-74.988425 74.9147628 0 41.336812 33.538858 74.910525 74.988425 74.910525 17.242375 0 33.127416-5.784188 45.737891-15.594l14.6592 14.6448 13.632717-13.623563-14.654958-14.640562c9.815216-12.665888 15.605091-28.467525 15.605091-45.6972z" stroke="#19243B" stroke-linecap="round" stroke-linejoin="round"/>
      <path fill="#D7E6F2" d="M390.821652 276.393056l-13.632716 13.619325-41.924634-41.811412 13.632717-13.623563 41.856767 41.81565z"/>
      <path stroke="#19243B" stroke-linecap="round" stroke-linejoin="round" d="M390.821652 276.393056l-13.632716 13.619325-41.924634-41.811412 13.632717-13.623563 41.856767 41.81565z"/>
      <path fill="#FFF" d="M403.927554 281.211941l-21.984558 21.962963-9.000817-8.987738 21.9888-21.9672z"/>
      <path stroke="#19243B" stroke-linecap="round" stroke-linejoin="round" d="M403.927554 281.211941l-21.984558 21.962963-9.000817-8.987738 21.9888-21.9672z"/>
      <mask id="b" fill="#fff">
        <use xlink:href="#a"/>
      </mask>
      <path stroke="#19243B" stroke-linecap="round" stroke-linejoin="round" mask="url(#b)" d="M229.05 191.218459h42.416667v-12.7125H229.05zM114.529242 86.1132038h33.933333M288.441817 86.1132038h16.966666M318.133483 86.1132038h16.966667M373.278967 86.1132038h16.966667M347.82515 86.1132038h12.725"/>
    </g>
    <g transform="translate(-10.321692 .899495)">
      <path stroke="#19243B" stroke-width=".8" stroke-linecap="round" stroke-linejoin="round" d="M11.4293363 384.42092513l25.24897183 7.5325574-22.21528885 18.64084068z"/>
      <path d="M357.32169212 385.10050556c6.075132 10.52243729 19.53012073 14.12769138 30.05255888 8.05255888 10.52243729-6.075132 14.12769088-19.5301216 8.05255888-30.05255888l-38.10511776 22z" stroke="#19243B" stroke-linecap="round" stroke-linejoin="round"/>
      <path d="M513.02568645 78.10050515c-6.33367255 4.43488527-7.8729443 13.16452595-3.43805876 19.4981989 4.43488498 6.33367214 13.16452643 7.8729436 19.49819897 3.43805834l-16.06014021-22.93625724zM93.321692 58.47308814l22.627417-22.627417 22.627417 22.627417-22.627417 22.627417z" fill="#E9F4FE" fill-rule="nonzero"/>
      <path stroke="#19243B" stroke-linecap="round" stroke-linejoin="round" d="M94.32169192 10.00000014L104.22118686.1005052l9.89949494 9.89949494-9.89949494 9.89949494z"/>
      <circle fill="#E9F4FE" fill-rule="nonzero" cx="528.321692" cy="416.100505" r="14"/>
      <circle stroke="#19243B" stroke-linecap="round" stroke-linejoin="round" cx="536.321692" cy="451.100505" r="6"/>
      <circle stroke="#19243B" stroke-linecap="round" stroke-linejoin="round" cx="529.321692" cy="54.1005051" r="6"/>
      <circle stroke="#D7E6F2" stroke-linecap="round" stroke-linejoin="round" cx="102.321692" cy="376.100505" r="26"/>
      <circle stroke="#D7E6F2" stroke-linecap="round" stroke-linejoin="round" cx="517.321692" cy="289.100505" r="20"/>
    </g>
  </g>
</svg>
