<?xml version="1.0" encoding="UTF-8"?>
<svg width="30px" height="30px" viewBox="0 0 30 30" version="1.1" xmlns="http://www.w3.org/2000/svg" xmlns:xlink="http://www.w3.org/1999/xlink">
    <!-- Generator: Sketch 55 (78076) - https://sketchapp.com -->
    <title>icon_12 copy 3</title>
    <desc>Created with Sketch.</desc>
    <g id="-" stroke="none" stroke-width="1" fill="none" fill-rule="evenodd">
        <g id="yupi_there/subpage/oferta-seo" transform="translate(-735.000000, -2536.000000)">
            <g id="Group-3" transform="translate(0.000000, 2053.000000)">
                <g id="icon_15" transform="translate(730.000000, 478.000000)">
                    <g id="Group-2">
                        <rect id="Rectangle" x="0" y="0" width="40" height="40"></rect>
                        <g id="upload-data" transform="translate(6.000000, 6.000000)" stroke="#00D664" stroke-linecap="round" stroke-linejoin="round" stroke-width="2">
                            <path d="M0,8 L0,2 C0,0.896 0.896,0 2,0 L8,0" id="Path"></path>
                            <path d="M20,0 L26,0 C27.104,0 28,0.896 28,2 L28,8" id="Path"></path>
                            <path d="M28,20 L28,26 C28,27.104 27.104,28 26,28 L20,28" id="Path"></path>
                            <path d="M8,28 L2,28 C0.896,28 0,27.104 0,26 L0,20" id="Path"></path>
                            <polygon id="Path" fill="#B7F5D4" points="22 14.1761364 14 5 6 14.1761364 11.3333333 14.1761364 11.3333333 24 16.6666667 24 16.6666667 14.1761364"></polygon>
                        </g>
                    </g>
                </g>
            </g>
        </g>
    </g>
</svg>