<?xml version="1.0" encoding="UTF-8"?>
<svg width="58px" height="42px" viewBox="0 0 58 42" version="1.1" xmlns="http://www.w3.org/2000/svg" xmlns:xlink="http://www.w3.org/1999/xlink">
    <!-- Generator: Sketch 55 (78076) - https://sketchapp.com -->
    <title>icon_10 copy 3</title>
    <desc>Created with Sketch.</desc>
    <g id="-" stroke="none" stroke-width="1" fill="none" fill-rule="evenodd">
        <g id="yupi_there/subpage/oferta-seo" transform="translate(-141.000000, -4177.000000)">
            <g id="Group-2" transform="translate(-1.000000, 3484.000000)">
                <g id="icon_19" transform="translate(131.000000, 674.000000)">
                    <g id="Group-2" stroke-width="1" fill-rule="evenodd"></g>
                    <g id="credit-card" stroke-width="1" fill-rule="evenodd" transform="translate(12.000000, 20.000000)"></g>
                    <path d="M15,20 L65,20 C66.6568542,20 68,21.3431458 68,23 L68,36 L12,36 L12,23 C12,21.3431458 13.3431458,20 15,20 Z" id="Rectangle-Copy" stroke="#00D664" stroke-width="2" fill="#B7F5D4" fill-rule="evenodd"></path>
                    <rect id="Rectangle" x="0" y="0" width="80" height="80"></rect>
                    <path d="M22,50 L34,50" id="Path" stroke="#00D664" stroke-width="2" stroke-linecap="round" stroke-linejoin="round"></path>
                    <path d="M54,50 L58,50" id="Path" stroke="#00D664" stroke-width="2" stroke-linecap="round" stroke-linejoin="round"></path>
                    <path d="M64.2666667,60 L15.7333333,60 C13.6725333,60 12,58.3709091 12,56.3636364 L12,23.6363636 C12,21.6290909 13.6725333,20 15.7333333,20 L64.2666667,20 C66.3274667,20 68,21.6290909 68,23.6363636 L68,56.3636364 C68,58.3709091 66.3274667,60 64.2666667,60 Z" id="Path" stroke="#00D664" stroke-width="2" stroke-linecap="round" stroke-linejoin="round"></path>
                </g>
            </g>
        </g>
    </g>
</svg>