<svg width="1140" height="422" xmlns="http://www.w3.org/2000/svg">
  <g fill="none" fill-rule="evenodd">
    <g transform="translate(1 54)">
      <path fill="#E9F4FE" fill-rule="nonzero" d="M1010.99999919 55.28427185l28.28427124-28.28427125 28.28427125 28.28427125-28.28427125 28.28427125z"/>
      <path stroke="#19243B" stroke-linecap="round" stroke-linejoin="round" d="M157.78880027 176.57017702L188.9328657 185.6832l-27.57759996 23.14035395zM938.00000012 185.99999956c6.0751325 10.52243815 19.53012073 14.12769138 30.05255888 8.05255888 10.52243729-6.075132 14.12769138-19.53012073 8.05255888-30.05255888l-38.10511776 22z"/>
      <path d="M214.4681282 103.00000033c-6.33367214 4.43488497-7.87294349 13.16452659-3.43805851 19.49819872 4.43488555 6.33367296 13.1645266 7.8729435 19.49819873 3.43805852l-16.06014022-22.93625724zM2 92.627417L24.627417 70l22.627417 22.627417-22.627417 22.627417z" fill="#E9F4FE" fill-rule="nonzero"/>
      <path stroke="#19243B" stroke-linecap="round" stroke-linejoin="round" d="M-5e-8 55.89949497l9.89949494-9.89949493 9.89949493 9.89949493-9.89949493 9.89949494z"/>
      <circle fill="#E9F4FE" fill-rule="nonzero" cx="1072" cy="245" r="14"/>
      <circle stroke="#19243B" stroke-linecap="round" stroke-linejoin="round" cx="1094" cy="270" r="6"/>
      <circle stroke="#19243B" stroke-linecap="round" stroke-linejoin="round" cx="227" cy="84.0336727" r="6"/>
      <circle stroke="#D7E6F2" stroke-linecap="round" stroke-linejoin="round" cx="128" cy="34" r="34"/>
      <circle stroke="#D7E6F2" stroke-linecap="round" stroke-linejoin="round" cx="1118" cy="103" r="20"/>
    </g>
    <g stroke="#19243B" stroke-linecap="round" stroke-linejoin="round">
      <path d="M812 278.5h-32M812 266.5h-32M812 255.5h-32M769.9466182 267.2763248L748.5146182 278.5 753 252.4504474l-19-18.4487268 26.2573091-3.800413L772 206.5l11.7426909 23.7013076L810 234.0017206l-11.7454545 11.4039917"/>
    </g>
    <g transform="translate(366 1)">
      <path d="M5 86l105.192829 122.577007m189.554612-.975524L404 86.165482" stroke="#19243B" stroke-linecap="round" stroke-linejoin="round"/>
      <path d="M299 208.224459C290.385093 216.64427 251.400543 223 204.610993 223c-47.204432 0-86.464838-6.468942-94.610993-15" stroke="#111" stroke-linecap="round" stroke-linejoin="round"/>
      <path stroke="#19243B" stroke-linecap="round" stroke-linejoin="round" d="M114.383888 265.460681l48.6268676 56.6629488v62.7799672M246.072306 384.903597v-62.7799672l48.275895-56.2329766"/>
      <path d="M246 321.0000004c0 4.418278-18.804041 8-42.0000001 8-23.1959595 0-42-3.581722-42-8" stroke="#111" stroke-linecap="round" stroke-linejoin="round" stroke-dasharray="9"/>
      <path d="M246 384c0 7.179702-18.580183 13-41.5000001 13s-41.5-5.820298-41.5-13" stroke="#111" stroke-linecap="round" stroke-linejoin="round"/>
      <path d="M203.9999999 247.4999996c50.2579121 0 91.0000001 6.7157288 91.0000001 15 0 8.28427129-40.742088 15.00000004-91.0000001 15.00000004-50.2579122 0-90.99999996-6.71572875-90.99999996-15.00000004 0-8.2842712 40.74208776-15 90.99999996-15z" fill="#D7E6F2"/>
      <path d="M295 262.0000004c0 8.836556-40.742088 16-91.0000001 16-50.2579122 0-90.99999996-7.163444-90.99999996-16" stroke="#111" stroke-linecap="round" stroke-linejoin="round"/>
      <ellipse stroke="#19243B" fill="#D7E6F2" stroke-linecap="round" stroke-linejoin="round" cx="204" cy="79.5" rx="204" ry="33.5"/>
      <path d="M113 262.5c0-8.284271 40.742088-15 91-15s91 6.715729 91 15" stroke="#19243B" stroke-linecap="round" stroke-linejoin="round" stroke-dasharray="9"/>
      <g fill="#D7E6F2" stroke="#19243B" stroke-linecap="round" stroke-linejoin="round">
        <path d="M78 54.5C78 64.16 70.16 72 60.5 72S43 64.16 43 54.5 50.84 37 60.5 37 78 44.84 78 54.5z"/>
      </g>
      <g>
        <path d="M338 44.5c0 24.5818-19.9182 44.5-44.5 44.5-24.5729 0-44.5-19.9182-44.5-44.5C249 19.9271 268.9271 0 293.5 0 318.0818 0 338 19.9271 338 44.5" fill="#FFF"/>
        <path d="M338 44.5c0 24.5818-19.9182 44.5-44.5 44.5-24.5729 0-44.5-19.9182-44.5-44.5C249 19.9271 268.9271 0 293.5 0 318.0818 0 338 19.9271 338 44.5z" stroke="#19243B" stroke-linecap="round" stroke-linejoin="round"/>
        <path d="M255 65.9936034C262.521322 79.7089552 277.033049 89 293.75693 89 318.179104 89 338 69.1791045 338 44.7569296 338 28.033049 328.708955 13.521322 314.993603 6c3.362474 6.282516 5.309169 13.4498934 5.309169 21.0597015 0 24.4221748-19.820896 44.2430704-44.243071 44.2430704-7.600959 0-14.777185-1.9466951-21.059701-5.3091685" fill="#D7E6F2"/>
        <path d="M338 44.5c0 24.5818-19.9182 44.5-44.5 44.5-24.5729 0-44.5-19.9182-44.5-44.5C249 19.9271 268.9271 0 293.5 0 318.0818 0 338 19.9271 338 44.5z" stroke="#19243B" stroke-linecap="round" stroke-linejoin="round"/>
        <path d="M146.35776764 219.432632C163.6375492 221.718568 183.0221464 223 203.5 223c.1610922 0 .3221167-.000079.483073-.000238.0112544.332029.016927.665472.016927 1.000238 0 16.0196-12.9804 29-29 29-16.0138 0-29-12.9804-29-29 0-1.554.12229127-3.07949.35777324-4.567367z" stroke="#19243B" fill="#FFF" stroke-linecap="round" stroke-linejoin="round"/>
        <path d="M188.8278765 224.908198C191.8432159 224.968899 194.9031364 225 198 225c1.6607257 0 3.3108274-.008944 4.9491274-.0266C202.0738593 239.487136 190.0139692 251 175.2814499 251 164.803838 251 155.71215352 245.179104 151 236.586354c3.93603412 2.10661 8.4319829 3.326226 13.1940299 3.326226 10.7187184 0 20.0227172-6.094177 24.6338466-15.004382z" fill="#D7E6F2"/>
      </g>
    </g>
    <path d="M717.725734 146.541894C700.18541 157.176148 640.916149 165 570.5 165c-84.223424 0-152.5-11.192881-152.5-25" stroke="#111" stroke-linecap="round" stroke-linejoin="round" stroke-dasharray="9"/>
    <g transform="translate(601 323)" stroke="#19243B" stroke-linecap="round" stroke-linejoin="round">
      <circle fill="#FFF" cx="49" cy="49" r="49"/>
      <path d="M44.6700868 50.9516129c.0034431 2.7191967-1.7716608 5.1346662-4.4048787 5.993931l-8.13451994 3.4260047c-2.63096682.8585324-4.40554652 3.2707467-4.40487914 5.9876216l-.0000017 4.9150233H71.2741944l-.0000035-4.9150233c.0034383-2.7191968-1.7716656-5.1346663-4.4048835-5.993931l-8.1377399-3.4323141c-2.6274463-.8588907-4.4000175-3.2675966-4.4016588-5.9813122M39.3387106 37.8870968c0-5.61192571 4.5493646-10.16129035 10.1612903-10.16129035S59.6612912 32.2751711 59.6612912 37.8870968c0 5.6119355-4.5493548 13.0645161-10.1612903 13.0645161-5.6119355 0-10.1612903-7.4525806-10.1612903-13.0645161z"/>
    </g>
    <g transform="translate(570 370)" stroke="#19243B" stroke-linecap="round" stroke-linejoin="round">
      <circle fill="#D7E6F2" cx="25.5" cy="25.5" r="25.5"/>
      <path d="M23.03137771 26.2419355c.0017598 1.3898117-.90551553 2.6243849-2.25138248 3.0635647l-4.1576435 1.7510691c-1.34471638.4388054-2.25172378 1.671715-2.25138268 3.0603399l-8.6e-7 2.5121231H36.6290327l-.0000018-2.5121231c.0017574-1.3898117-.905518-2.624385-2.2513849-3.0635647l-4.1592893-1.7542939c-1.342917-.4389886-2.2488978-1.6701049-2.2497367-3.0571151M20.30645206 19.56451613c0-2.86831757 2.32523082-5.19354839 5.19354834-5.19354839 2.8683176 0 5.1935484 2.32523082 5.1935484 5.19354839 0 2.86832258-2.3252258 6.67741937-5.1935484 6.67741937-2.86832253 0-5.19354834-3.80909679-5.19354834-6.67741937z"/>
    </g>
    <g stroke="#19243B" stroke-linecap="round" stroke-linejoin="round">
      <path d="M425.333333 323H315.6666667C307.05 323 300 315.984615 300 307.410256V146.5897436C300 138.01538462 307.05 131 315.6666667 131H425.333333C433.95 131 441 138.01538462 441 146.5897436V307.410256C441 315.984615 433.95 323 425.333333 323z" fill="#D7E6F2"/>
      <path d="M413 274.5h-86M390 290.5h-62M378 255.5h-50M440.255041 225.84375H301.20379888"/>
      <path d="M397.8624319 193.7858634l.3308011.2546264c.2460838.3381105.326767.6762209.326767 1.0978155 0 1.0143314-.8229687 1.8616947-1.8073038 1.8616947H341.3882229C340.0690525 197 339 195.8980103 339 194.5497426c0-.5092528.1613664-.9308474.4114843-1.3566161l.3308012-.4215946 19.589882-24.4149158C359.9897357 167.5092528 360.9781049 167 362.1359089 167c1.1497357 0 2.1381049.5092528 2.795673 1.3566161l7.326035 9.1248087c.0847174.1669681.250118.3381105.4155185.5050786.4921676.5050786 1.0690525.759705 1.8073038.759705.7422855 0 1.4038878-.3381104 1.8960553-.8431891.0806832-.083484.1654006-.2546264.2460838-.3381104l1.9767385-2.4502574c.4962017-.5927369 1.3191704-1.0143315 2.1421391-1.0143315.8996177 0 1.6419032.4215946 2.1381049 1.0143315l14.9828711 18.6712119zM394.8 157c3.4005205 0 6.2 2.8264863 6.2 6.25s-2.7994795 6.25-6.2 6.25c-3.3964867 0-6.2-2.8264863-6.2-6.25s2.8035133-6.25 6.2-6.25z" fill="#FFF"/>
    </g>
    <text font-family="BaiJamjuree-SemiBold, Bai Jamjuree SemiBold" font-size="24" font-weight="500" fill="#00D664" transform="translate(1 1)">
      <tspan x="799" y="95">Świadomość</tspan>
    </text>
    <text font-family="BaiJamjuree-SemiBold, Bai Jamjuree SemiBold" font-size="24" font-weight="500" fill="#00D664" transform="translate(1 1)">
      <tspan x="753" y="171">Zainteresowanie</tspan>
    </text>
    <text font-family="BaiJamjuree-SemiBold, Bai Jamjuree SemiBold" font-size="24" font-weight="500" fill="#00D664" transform="translate(1 1)">
      <tspan x="817" y="333">Pragnienia</tspan>
    </text>
    <text font-family="BaiJamjuree-SemiBold, Bai Jamjuree SemiBold" font-size="24" font-weight="500" fill="#00D664" transform="translate(1 1)">
      <tspan x="335" y="384">Akcja</tspan>
    </text>
    <path d="M728.089059 116.533673c-.248722 2.249975-2.156259 4-4.472535 4-2.485282 0-4.5-2.014719-4.5-4.5 0-2.485282 2.014718-4.5 4.5-4.5 2.316276 0 4.223813 1.750024 4.472535 4h9.027465v1h-9.027465zm-7.972535-.5c0 1.932996 1.567003 3.5 3.5 3.5 1.932996 0 3.5-1.567004 3.5-3.5 0-1.932997-1.567004-3.5-3.5-3.5-1.932997 0-3.5 1.567003-3.5 3.5zm25 .5v-1h10v1h-10zm18 0v-1h10v1h-10zm18 0v-1h10v1h-10zm18 0v-1h10v1h-10zm18 0v-1h10v1h-10zm18 0v-1h10v1h-10zm18 0v-1h10v1h-10zm18 0v-1h10v1h-10zm18 0v-1h10v1h-10zm18 0v-1h10v1h-10zm18 0v-1h10v1h-10zM663.089059 192.533673c-.248722 2.249975-2.156259 4-4.472535 4-2.485282 0-4.5-2.014719-4.5-4.5 0-2.485282 2.014718-4.5 4.5-4.5 2.316276 0 4.223813 1.750024 4.472535 4h9.027465v1h-9.027465zm-7.972535-.5c0 1.932996 1.567003 3.5 3.5 3.5 1.932996 0 3.5-1.567004 3.5-3.5 0-1.932997-1.567004-3.5-3.5-3.5-1.932997 0-3.5 1.567003-3.5 3.5zm25 .5v-1h10v1h-10zm18 0v-1h10v1h-10zm18 0v-1h10v1h-10zm18 0v-1h10v1h-10zm18 0v-1h10v1h-10zm18 0v-1h10v1h-10zm18 0v-1h10v1h-10zm18 0v-1h10v1h-10zm18 0v-1h10v1h-10zm18 0v-1h10v1h-10zm18 0v-1h10v1h-10zm18 0v-1h10v1h-10zm18 0v-1h10v1h-10zm18 0v-1h10v1h-10zm18 0v-1H940.5v1h-8.383476zM623.089059 300.533673c-.248722 2.249975-2.156259 4-4.472535 4-2.485282 0-4.5-2.014719-4.5-4.5 0-2.485282 2.014718-4.5 4.5-4.5 2.316276 0 4.223813 1.750024 4.472535 4h9.027465v1h-9.027465zm-7.972535-.5c0 1.932996 1.567003 3.5 3.5 3.5 1.932996 0 3.5-1.567004 3.5-3.5 0-1.932997-1.567004-3.5-3.5-3.5-1.932997 0-3.5 1.567003-3.5 3.5zm25 .5v-1h10v1h-10zm18 0v-1h10v1h-10zm18 0v-1h10v1h-10zm18 0v-1h10v1h-10zm18 0v-1h10v1h-10zm18 0v-1h10v1h-10zm18 0v-1h10v1h-10zm18 0v-1h10v1h-10zm18 0v-1h10v1h-10zm18 0v-1h10v1h-10zm18 0v-1h10v1h-10zm18 0v-1h10v1h-10zm18 0v-1h10v1h-10zm18 0v-1h10v1h-10zm18 0v-1h10v1h-10zm18 0v-1h10v1h-10zm18 0v-1h10v1h-10zM422.089059 377.533673c-.248722 2.249975-2.156259 4-4.472535 4-2.485282 0-4.5-2.014719-4.5-4.5 0-2.485282 2.014718-4.5 4.5-4.5 2.316276 0 4.223813 1.750024 4.472535 4h9.027465v1h-9.027465zm-7.972535-.5c0 1.932996 1.567003 3.5 3.5 3.5 1.932996 0 3.5-1.567004 3.5-3.5 0-1.932997-1.567004-3.5-3.5-3.5-1.932997 0-3.5 1.567003-3.5 3.5zm25 .5v-1h10v1h-10zm18 0v-1h10v1h-10zm18 0v-1h10v1h-10zm18 0v-1h10v1h-10zm18 0v-1h10v1h-10zm18 0v-1h10v1h-10z" fill="#19243B" fill-rule="nonzero"/>
  </g>
</svg>
