<svg width="544" height="443" xmlns="http://www.w3.org/2000/svg">
  <g fill="none" fill-rule="evenodd">
    <g transform="translate(-10.321692 .899495)">
      <path stroke="#19243B" stroke-width=".8" stroke-linecap="round" stroke-linejoin="round" d="M11.4293363 368.42092513l25.24897183 7.5325574-22.21528885 18.64084068z"/>
      <path d="M357.32169212 369.10050556c6.075132 10.52243729 19.53012073 14.12769138 30.05255888 8.05255888 10.52243729-6.075132 14.12769088-19.5301216 8.05255888-30.05255888l-38.10511776 22z" stroke="#19243B" stroke-linecap="round" stroke-linejoin="round"/>
      <path d="M513.02568645 62.10050515c-6.33367255 4.43488527-7.87294406 13.16452577-3.43805851 19.49819873 4.43488497 6.33367214 13.16452618 7.87294378 19.49819872 3.43805851l-16.06014021-22.93625724zM13.321692 58.47308814l22.627417-22.627417 22.627417 22.627417-22.627417 22.627417z" fill="#E9F4FE" fill-rule="nonzero"/>
      <path stroke="#19243B" stroke-linecap="round" stroke-linejoin="round" d="M14.32169192 10.00000014L24.22118686.1005052l9.89949494 9.89949494-9.89949494 9.89949494z"/>
      <circle fill="#E9F4FE" fill-rule="nonzero" cx="528.321692" cy="400.100505" r="14"/>
      <circle stroke="#19243B" stroke-linecap="round" stroke-linejoin="round" cx="536.321692" cy="435.100505" r="6"/>
      <circle stroke="#19243B" stroke-linecap="round" stroke-linejoin="round" cx="529.321692" cy="38.1005051" r="6"/>
      <circle stroke="#D7E6F2" stroke-linecap="round" stroke-linejoin="round" cx="102.321692" cy="360.100505" r="26"/>
      <circle stroke="#D7E6F2" stroke-linecap="round" stroke-linejoin="round" cx="533.321692" cy="249.100505" r="20"/>
    </g>
    <path d="M300.078741 352.377297c0 4.742182-3.84789 8.590909-8.589041 8.590909s-8.589041-3.848727-8.589041-8.590909 3.84789-8.590909 8.589041-8.590909 8.589041 3.848727 8.589041 8.590909" fill="#D7E6F2"/>
    <path d="M300.078741 352.377297c0 4.742182-3.84789 8.590909-8.589041 8.590909s-8.589041-3.848727-8.589041-8.590909 3.84789-8.590909 8.589041-8.590909 8.589041 3.848727 8.589041 8.590909z" stroke="#19243B" stroke-linecap="round" stroke-linejoin="round"/>
    <path d="M370.208691 112.8073402c0 4.7421818-3.84789 8.5909091-8.589041 8.5909091s-8.589041-3.8487273-8.589041-8.5909091c0-4.7421818 3.84789-8.5909091 8.589041-8.5909091s8.589041 3.8487273 8.589041 8.5909091" fill="#D7E6F2"/>
    <path d="M370.208691 112.8073402c0 4.7421818-3.84789 8.5909091-8.589041 8.5909091s-8.589041-3.8487273-8.589041-8.5909091c0-4.7421818 3.84789-8.5909091 8.589041-8.5909091s8.589041 3.8487273 8.589041 8.5909091z" stroke="#19243B" stroke-linecap="round" stroke-linejoin="round"/>
    <path d="M400.270335 112.8073402c0 4.7421818-3.84789 8.5909091-8.589041 8.5909091s-8.589041-3.8487273-8.589041-8.5909091c0-4.7421818 3.84789-8.5909091 8.589041-8.5909091s8.589041 3.8487273 8.589041 8.5909091" fill="#D7E6F2"/>
    <path d="M400.270335 112.8073402c0 4.7421818-3.84789 8.5909091-8.589041 8.5909091s-8.589041-3.8487273-8.589041-8.5909091c0-4.7421818 3.84789-8.5909091 8.589041-8.5909091s8.589041 3.8487273 8.589041 8.5909091z" stroke="#19243B" stroke-linecap="round" stroke-linejoin="round"/>
    <path d="M430.331979 112.8073402c0 4.7421818-3.847891 8.5909091-8.589041 8.5909091-4.741151 0-8.589041-3.8487273-8.589041-8.5909091 0-4.7421818 3.84789-8.5909091 8.589041-8.5909091 4.74115 0 8.589041 3.8487273 8.589041 8.5909091" fill="#D7E6F2"/>
    <path d="M430.331979 112.8073402c0 4.7421818-3.847891 8.5909091-8.589041 8.5909091-4.741151 0-8.589041-3.8487273-8.589041-8.5909091 0-4.7421818 3.84789-8.5909091 8.589041-8.5909091 4.74115 0 8.589041 3.8487273 8.589041 8.5909091z" stroke="#19243B" stroke-linecap="round" stroke-linejoin="round"/>
    <path d="M303.044071 87.0324652h118.703161c14.171918 0 25.767123 11.5977273 25.767123 25.7727273V293.214283c0 14.175-11.595205 25.772728-25.767123 25.772728H129.719835c-14.1719179 0-25.7671234-11.597728-25.7671234-25.772728V112.8051925c0-14.175 11.5952055-25.7727273 25.7671234-25.7727273h95.019891" stroke="#19243B" stroke-linecap="round" stroke-linejoin="round"/>
    <path d="M145 273H40c-8.25 0-15-6.9-15-15.333333v-61.333334C25 187.9 31.75 181 40 181h105c8.25 0 15 6.9 15 15.333333v61.333334C160 266.1 153.25 273 145 273z" stroke="#19243B" fill="#D7E6F2" stroke-linecap="round" stroke-linejoin="round"/>
    <g stroke="#19243B" stroke-linecap="round" stroke-linejoin="round">
      <path d="M120.0000002 249.4999998h-23M120.0000002 241.4999998h-23M120.0000002 233.4999998h-23M89.5410184 241.0498966l-15.228 7.9501032 3.1869818-18.4517664-13.49999998-13.0678482 18.65650908-2.6919591 8.3434909-16.78842628 8.3434909 16.78842628 18.6565091 2.6919591-8.3454545 8.0778275"/>
    </g>
    <path d="M363.36986326 232.8899524c-3.31506849 0-6.02739726-2.7129187-6.02739726-6.0287081v-36.1722488c0-3.3157895 2.71232877-6.0287082 6.02739726-6.0287082h42.19178084M427.9264602 189.1818184v45.4144381c0 4.035217-3.2375734 7.3367581-7.1946075 7.3367581h-41.0245706" stroke="#19243B" stroke-linecap="round" stroke-linejoin="round"/>
    <g stroke="#19243B" stroke-linecap="round" stroke-linejoin="round">
      <path d="M369.3972605 226.8612438h16.5753425M369.3972605 220.8325357h16.5753425M369.3972605 214.8038276h16.5753425M391.5516715 220.98761l11.04821913 5.8736338-2.31221918-13.6323915 9.79452055-9.6546865-13.5356712-1.9888525-6.0533699-12.4034953-6.0533699 12.4034953-13.5356712 1.9888525 6.0547945 5.9679981"/>
    </g>
    <path d="M414.9147854 264.7007323c-14.6309848 0-27.4910551-7.5100713-34.9695793-18.8799004 6.6110154 4.368408 14.508337 6.9116593 23.0039406 6.9116593 23.1206055 0 41.8797357-18.760218 41.8797357-41.888844 0-8.4974512-2.5456897-16.3964904-6.9131478-23.0089436 11.3673568 7.4801507 18.8787866 20.3460099 18.8787866 34.9771847 0 23.128626-18.7591302 41.888844-41.8797358 41.888844z" fill="#D7E6F2"/>
    <path fill="#FFF" d="M495.972603 297.274282l-9.577397 9.627407-34.1212328-34.077731 9.6253138-9.6304027z"/>
    <path d="M431.8010036 184.6602873c13.8936888 6.7844764 23.4866682 21.193612 23.4866682 37.8712412 0 23.1980481-18.5584637 42.0091416-41.4383561 42.0091416-22.8858121 0-41.4383562-18.8110935-41.4383562-42.0091416 0-14.6641911 7.4085861-27.5730002 18.6443004-35.0896359m14.5063846-5.8788541c2.353371-.3978947 4.7708416-.6028708 7.2402023-.6028708 3.7452481 0 7.3806111.476268 10.8419894 1.3715311m42.1917808 40.0095063c0-29.1081211-23.586394-52.7526881-52.7367426-52.7526881-29.153332 0-52.7427094 23.644567-52.7427094 52.7526881s23.5893774 52.7497039 52.7427094 52.7497039c12.1273326 0 23.2999921-4.073048 32.1695025-10.9808183l10.3104703 10.3124213 9.5884988-9.593297-10.3074871-10.3094371c6.9034801-8.9189312 10.9757581-20.0459618 10.9757581-32.1785728z" stroke="#19243B" fill="#FFF" stroke-linecap="round" stroke-linejoin="round"/>
    <path fill="#D7E6F2" d="M495.972603 295.767105l-9.613556 9.627407-34.0850738-34.077731 9.6135558-9.6304028 34.037216 34.0807268z"/>
    <path stroke="#19243B" stroke-linecap="round" stroke-linejoin="round" d="M495.972603 295.767105l-9.613556 9.627407-34.0850738-34.077731 9.6135558-9.6304028 34.037216 34.0807268z"/>
    <path stroke="#19243B" fill="#FFF" stroke-linecap="round" stroke-linejoin="round" d="M502.000001 296.452135L487.03217 311.42322l-6.12806-6.126504 14.970718-14.973974z"/>
    <path d="M118.1307938 273.877297c0 7.117568-5.7675411 12.886364-12.8835616 12.886364-7.1160206 0-12.8835617-5.768796-12.8835617-12.886364s5.7675411-12.886364 12.8835617-12.886364c7.1160205 0 12.8835616 5.768796 12.8835616 12.886364" fill="#FFF"/>
    <path d="M118.1307938 273.877297c0 7.117568-5.7675411 12.886364-12.8835616 12.886364-7.1160206 0-12.8835617-5.768796-12.8835617-12.886364s5.7675411-12.886364 12.8835617-12.886364c7.1160205 0 12.8835616 5.768796 12.8835616 12.886364z" stroke="#19243B" stroke-linecap="round" stroke-linejoin="round"/>
    <path d="M478.649629 140.256897c0 11.864045-9.611137 21.477273-21.472602 21.477273-11.857172 0-21.472603-9.613228-21.472603-21.477273 0-11.85975 9.615431-21.4772727 21.472603-21.4772727 11.861465 0 21.472602 9.6175227 21.472602 21.4772727" fill="#FFF"/>
    <path d="M478.649629 140.256897c0 11.864045-9.611137 21.477273-21.472602 21.477273-11.857172 0-21.472603-9.613228-21.472603-21.477273 0-11.85975 9.615431-21.4772727 21.472603-21.4772727 11.861465 0 21.472602 9.6175227 21.472602 21.4772727z" stroke="#19243B" stroke-linecap="round" stroke-linejoin="round"/>
    <path d="M438.367456 150.565558c3.650343 6.657955 10.693356 11.168182 18.81 11.168182 11.852877 0 21.472603-9.621818 21.472603-21.477273 0-8.1184086-4.509247-15.1629541-11.165754-18.8140904 1.631918 3.0497727 2.576713 6.5290909 2.576713 10.2231818 0 11.8554546-9.619726 21.4772726-21.472603 21.4772726-3.688993 0-7.171849-.945-10.220959-2.577273" fill="#D7E6F2"/>
    <path d="M478.649629 140.256897c0 11.864045-9.611137 21.477273-21.472602 21.477273-11.857172 0-21.472603-9.613228-21.472603-21.477273 0-11.85975 9.615431-21.4772727 21.472603-21.4772727 11.861465 0 21.472602 9.6175227 21.472602 21.4772727z" stroke="#19243B" stroke-linecap="round" stroke-linejoin="round"/>
    <path d="M159.244664 138.385054h244.787671c5.930733 0 10.736301 4.806613 10.736301 10.738636s-4.805568 10.738637-10.736301 10.738637H159.244664c-5.930733 0-10.736302-4.806614-10.736302-10.738637 0-5.932023 4.805569-10.738636 10.736302-10.738636" fill="#D7E6F2"/>
    <path d="M159.244664 138.385054h244.787671c5.930733 0 10.736301 4.806613 10.736301 10.738636s-4.805568 10.738637-10.736301 10.738637H159.244664c-5.930733 0-10.736302-4.806614-10.736302-10.738637 0-5.932023 4.805569-10.738636 10.736302-10.738636zM327.541484 192.850129H184.390799M295.784221 205.736492H184.392947M274.424993 179.961617H184.39037M310.709968 149.893436H184.39037M338.089429 245.062238h-153.69863M331.465674 257.950749H184.391229M257.129241 232.175874h-72.736294" stroke="#19243B" stroke-linecap="round" stroke-linejoin="round"/>
    <path d="M85.5983904 127.7610383c-3.5730411-3.5738182-3.5730411-9.3683864 0-12.9422046 3.5730411-3.5738181 9.3663493-3.5738181 12.9393904 0 3.5730411 3.5738182 3.5730411 9.3683864 0 12.9422046s-9.3663493 3.5738182-12.9393904 0m30.4438562 10.5195677l-4.5693699-6.3572723c.7773082-1.4132045 1.3957192-2.9080227 1.8423493-4.4500909l7.7344315-1.3573636c.6227055-.1073864 1.0822192-.6529091 1.0822192-1.2886364v-7.1862954c-.0042945-.6400228-.4681027-1.1898409-1.0993972-1.2929318l-7.6957809-1.2585682c-.4509246-1.5635455-1.0693356-3.0669546-1.8552328-4.4930455l4.4877739-6.3916363c.3650343-.51975.3092055-1.2285-.1417192-1.6795228l-5.0847123-5.0815227c-.4509246-.4553182-1.1681096-.5111591-1.6877466-.1374545l-6.2957671 4.527409c-1.4257808-.7903636-2.928863-1.4175-4.4791849-1.8728181l-1.2754726-7.6545c-.1030685-.6314319-.6484726-1.0910455-1.2926507-1.0910455h-7.1804384c-.635589 0-1.1809931.4553182-1.2883561 1.0781591l-1.3570685 7.6373182c-1.5675.4510227-3.0834658 1.0781591-4.5221301 1.8728182l-6.2871781-4.4973409c-.519637-.3694091-1.2325274-.3135682-1.6877466.1374545l-5.0804178 5.0858182c-.4509247.4510227-.511048 1.1554773-.1503082 1.6752273l4.4362397 6.3486818c-.7901918 1.4346818-1.4128973 2.9509772-1.872411 4.5274091l-7.6270685 1.2671591c-.6312945.1030909-1.0908082.6486136-1.0908082 1.2886363L62 124.8272428c0 .6357273.4552192 1.18125 1.0822192 1.2886364l7.6528356 1.3487727c.4552192 1.5678409 1.0822192 3.0755455 1.8681164 4.5016364l-4.5178356 6.3229087c-.3693288.515455-.3092055 1.2285.1417192 1.679523l5.0847123 5.085818c.4466302.446728 1.1509315.511159 1.6705685.146046l6.4117192-4.480159c1.4300753.781772 2.937452 1.400318 4.4920685 1.847045l1.3570685 7.714636c.107363.627137.6484726 1.082455 1.2883561 1.082455l7.1847329-.004295c.6441781 0 1.1895822-.46391 1.2926507-1.095341l1.254-7.727523c1.5503219-.451023 3.0405206-1.069568 4.4534178-1.847046l6.4288973 4.510228c.519637.365113 1.2282329.300682 1.674863-.146046l5.0847123-5.085818c.4552192-.451023.511048-1.168364.1374247-1.688114" fill="#D7E6F2"/>
    <path d="M85.5983904 127.7610383c-3.5730411-3.5738182-3.5730411-9.3683864 0-12.9422046 3.5730411-3.5738181 9.3663493-3.5738181 12.9393904 0 3.5730411 3.5738182 3.5730411 9.3683864 0 12.9422046s-9.3663493 3.5738182-12.9393904 0zm30.4438562 10.5195677l-4.5693699-6.3572723c.7773082-1.4132045 1.3957192-2.9080227 1.8423493-4.4500909l7.7344315-1.3573636c.6227055-.1073864 1.0822192-.6529091 1.0822192-1.2886364v-7.1862954c-.0042945-.6400228-.4681027-1.1898409-1.0993972-1.2929318l-7.6957809-1.2585682c-.4509246-1.5635455-1.0693356-3.0669546-1.8552328-4.4930455l4.4877739-6.3916363c.3650343-.51975.3092055-1.2285-.1417192-1.6795228l-5.0847123-5.0815227c-.4509246-.4553182-1.1681096-.5111591-1.6877466-.1374545l-6.2957671 4.527409c-1.4257808-.7903636-2.928863-1.4175-4.4791849-1.8728181l-1.2754726-7.6545c-.1030685-.6314319-.6484726-1.0910455-1.2926507-1.0910455h-7.1804384c-.635589 0-1.1809931.4553182-1.2883561 1.0781591l-1.3570685 7.6373182c-1.5675.4510227-3.0834658 1.0781591-4.5221301 1.8728182l-6.2871781-4.4973409c-.519637-.3694091-1.2325274-.3135682-1.6877466.1374545l-5.0804178 5.0858182c-.4509247.4510227-.511048 1.1554773-.1503082 1.6752273l4.4362397 6.3486818c-.7901918 1.4346818-1.4128973 2.9509772-1.872411 4.5274091l-7.6270685 1.2671591c-.6312945.1030909-1.0908082.6486136-1.0908082 1.2886363L62 124.8272428c0 .6357273.4552192 1.18125 1.0822192 1.2886364l7.6528356 1.3487727c.4552192 1.5678409 1.0822192 3.0755455 1.8681164 4.5016364l-4.5178356 6.3229087c-.3693288.515455-.3092055 1.2285.1417192 1.679523l5.0847123 5.085818c.4466302.446728 1.1509315.511159 1.6705685.146046l6.4117192-4.480159c1.4300753.781772 2.937452 1.400318 4.4920685 1.847045l1.3570685 7.714636c.107363.627137.6484726 1.082455 1.2883561 1.082455l7.1847329-.004295c.6441781 0 1.1895822-.46391 1.2926507-1.095341l1.254-7.727523c1.5503219-.451023 3.0405206-1.069568 4.4534178-1.847046l6.4288973 4.510228c.519637.365113 1.2282329.300682 1.674863-.146046l5.0847123-5.085818c.4552192-.451023.511048-1.168364.1374247-1.688114zM298.71566 296.614136H184.391229M257.129241 283.725624h-72.736294" stroke="#19243B" stroke-linecap="round" stroke-linejoin="round"/>
    <g fill="#FFF" fill-rule="nonzero" stroke="#1A253C">
      <path d="M308.7358656 68.8177936H274.416348v15.4184079h19.4496276c-3.1068821 10.2785053-10.7860632 13.7042406-19.6058395 13.7042406-9.3915196.0132438-17.6770014-6.4389777-20.3767064-15.8681203-2.699705-9.4291427.8270238-19.5976118 8.6733782-25.0075873 7.8463544-5.4099755 18.1503452-4.7776363 25.3408794 1.5551287l10.6881208-10.66968375c-11.837456-11.41574006-29.4689046-13.19812495-43.1693286-4.36404066-13.700424 8.83408431-20.13425737 26.13385251-15.75277634 42.35723291 4.38148102 16.2233804 18.51154164 27.420557 34.59643294 27.4154782 19.8252801 0 37.7437827-13.7042406 34.4757295-44.5410563z"/>
    </g>
  </g>
</svg>
