<?xml version="1.0" encoding="UTF-8"?>
<svg width="1140px" height="392px" viewBox="0 0 1140 392" version="1.1" xmlns="http://www.w3.org/2000/svg" xmlns:xlink="http://www.w3.org/1999/xlink">
    <!-- Generator: Sketch 55 (78076) - https://sketchapp.com -->
    <title>Group 2</title>
    <desc>Created with Sketch.</desc>
    <defs>
        <path d="M8.85,4.46 C8.91489075,6.81424058 7.06137746,8.77650399 4.70726248,8.84580196 C2.35314751,8.91509994 0.387417604,7.06526341 0.313712657,4.71128229 C0.240007709,2.35730117 2.08616099,0.388111665 4.44,0.31 C6.79997756,0.248199058 8.76845603,2.10062212 8.85,4.46 L8.85,4.46 Z M6.98,4.52 C6.83280221,3.22163939 5.67774145,2.27709538 4.37600225,2.39059645 C3.07426304,2.50409752 2.10010262,3.63429229 2.17983073,4.9385357 C2.25955883,6.24277912 3.36412845,7.24590159 4.67,7.2 C5.33955335,7.16733307 5.96677752,6.86284106 6.40660004,6.35695078 C6.84642255,5.85106051 7.0607464,5.18759171 7,4.52 L6.98,4.52 Z" id="path-1"></path>
        <rect id="path-3" x="41.8761285" y="11.9303801" width="760.64" height="2525.43"></rect>
        <path d="M9,5.16 C9.05380751,7.50645883 7.19953101,9.45439611 4.8532688,9.51618547 C2.50700659,9.57797482 0.552772723,7.73033552 0.483002243,5.38429708 C0.413231763,3.03825864 2.25421248,1.0777508 4.6,1 C5.73599059,0.965034981 6.83904942,1.38438953 7.66490409,2.16519759 C8.49075877,2.94600565 8.97125972,4.02383488 9,5.16 M7.14,5.22 C6.99804642,3.91960545 5.84465107,2.96988279 4.54118264,3.08009564 C3.23771422,3.19030849 2.26015848,4.32021058 2.3385651,5.62597825 C2.41697172,6.93174592 3.52270908,7.9365538 4.83,7.89 C5.49409657,7.85196224 6.11448242,7.54660816 6.54970188,7.0435623 C6.98492133,6.54051643 7.19787255,5.88266273 7.14,5.22" id="path-5"></path>
        <rect id="path-7" x="41.8761285" y="11.9303801" width="760.64" height="2525.43"></rect>
        <path d="M8.72,0.84 L8.98,8.53 C9.08,11.69 7.28,13.04 5.09,13.12 C3.43770749,13.17853 1.91495526,12.2292819 1.24,10.72 L2.84,9.98 C3.20433196,10.8660815 4.07199861,11.440564 5.03,11.43 C6.43,11.43 7.27,10.49 7.22,8.85 L7.22,8.23 L7.15,8.23 C6.5981751,8.87469965 5.78854362,9.24104873 4.94,9.23 C2.63547723,9.22345696 0.74987466,7.39340318 0.674445041,5.09010589 C0.599015422,2.78680861 2.36084307,0.837306823 4.66,0.68 C5.51003254,0.632791945 6.33856635,0.957635601 6.93,1.57 L7,1.57 L7,0.86 L8.77,0.8 L8.72,0.84 Z M7.22,4.93 C7.25258463,4.27889563 7.02000078,3.64236562 6.57531869,3.16565134 C6.1306366,2.68893707 5.51179529,2.41271045 4.86,2.4 C4.1995477,2.45087178 3.58689461,2.76384595 3.15859601,3.26916316 C2.73029741,3.77448037 2.52195263,4.43013965 2.58,5.09 C2.56651891,5.75013791 2.82005834,6.38777201 3.28316339,6.85840722 C3.74626845,7.32904244 4.37973053,7.59283264 5.04,7.59 C5.68861869,7.54296365 6.28941302,7.23146558 6.70163319,6.72848134 C7.11385336,6.22549709 7.30127851,5.57522277 7.22,4.93 L7.22,4.93 Z" id="path-9"></path>
        <rect id="path-11" x="41.8761285" y="11.9303801" width="760.64" height="2525.43"></rect>
        <rect id="path-13" x="0.864542528" y="0.270139559" width="1.82" height="12.56"></rect>
        <rect id="path-15" x="41.8761285" y="11.9303801" width="760.64" height="2525.43"></rect>
        <path d="M6.92,5.94 L8.4,6.86 C7.41600129,8.4564682 5.49830993,9.21445914 3.68871365,8.72219348 C1.87911737,8.22992782 0.609669968,6.60493746 0.57,4.73 C0.470604938,3.62630149 0.826675089,2.52993701 1.55560438,1.69525631 C2.28453367,0.860575623 3.32296908,0.360122871 4.43,0.31 C6.09544802,0.318635404 7.58127142,1.35831344 8.16,2.92 L8.37,3.4 L2.77,5.97 C3.15043018,6.77286036 3.98365701,7.26089322 4.87,7.2 C5.7091892,7.15251513 6.46485579,6.67644517 6.87,5.94 L6.92,5.94 Z M2.41,4.54 L6.16,2.83 C5.84324128,2.24752817 5.21025648,1.90941207 4.55,1.97 C3.93039658,2.02090962 3.35652089,2.31629092 2.95502827,2.79095276 C2.55353564,3.2656146 2.35743281,3.88053501 2.41,4.5 L2.41,4.54 Z" id="path-17"></path>
        <rect id="path-19" x="41.8761285" y="11.9303801" width="760.64" height="2525.43"></rect>
        <path d="M7.39,8.86 L7.33,7.04 L13.41,6.84 C13.4795834,7.19946421 13.5197166,7.56400735 13.53,7.93 C13.6568785,9.57721691 13.083741,11.2016419 11.9512746,12.4045306 C10.8188081,13.6074194 9.231869,14.277395 7.58,14.25 C3.90730641,14.3742641 0.829264069,11.4976936 0.705,7.825 C0.580735931,4.15230641 3.45730641,1.07426407 7.13,0.95 C8.82228727,0.871458615 10.4743386,1.48105833 11.71,2.64 L10.48,3.96 C9.5826905,3.13916056 8.39467349,2.71075442 7.18,2.77 C5.91991025,2.81684474 4.73015665,3.36280282 3.87292664,4.2875608 C3.01569663,5.21231878 2.5613458,6.43997882 2.61,7.7 L2.61,7.76 C2.65926439,10.3851034 4.82481307,12.4745894 7.45,12.43 L7.5,12.43 C8.7510385,12.4372402 9.94654648,11.9139783 10.79,10.99 C11.3369946,10.3483999 11.6537854,9.54234335 11.69,8.7 L7.39,8.85 L7.39,8.86 Z" id="path-21"></path>
        <rect id="path-23" x="41.8761285" y="11.9303801" width="760.64" height="2525.43"></rect>
    </defs>
    <g id="-" stroke="none" stroke-width="1" fill="none" fill-rule="evenodd">
        <g id="yupi_there/subpage/oferta-analityka" transform="translate(-130.000000, -2057.000000)">
            <g id="Group-2" transform="translate(131.000000, 2058.000000)">
                <g id="illustration" transform="translate(162.000000, 0.000000)">
                    <path d="M433.24,109.15 C433.24,109.15 438.41,107.39 439.37,102.65 L433.56,105.41 C433.551137,106.663109 433.444144,107.913599 433.24,109.15 L433.24,109.15 Z" id="Path" fill="#D7E6F2"></path>
                    <polyline id="Path" stroke="#19243B" fill="#D7E6F2" stroke-linecap="round" stroke-linejoin="round" points="629.27 329.33 629.27 389.61 625.9 389.61 625.9 327.33"></polyline>
                    <polyline id="Path" stroke="#19243B" fill="#D7E6F2" stroke-linecap="round" stroke-linejoin="round" points="612.12 319.38 612.12 389.61 608.75 389.61 608.75 317.06"></polyline>
                    <path d="M527,228.54 C526.33,229.54 525.75,229.83 525.32,229.69 C524.839177,229.486138 524.493343,229.053846 524.4,228.54 C524.364532,228.110046 524.505299,227.684136 524.79,227.36 L524,224 C528.5,223.13 528.46,226.29 527,228.54 Z" id="Path" stroke="#19243B" stroke-linecap="round" stroke-linejoin="round"></path>
                    <path d="M522.33,229.46 L521.11,224.81 L519.82,219.95 L522.94,219.28 L524,224 L524.79,227.41 C524.505299,227.734136 524.364532,228.160046 524.4,228.59 C524.493343,229.103846 524.839177,229.536138 525.32,229.74 L528.44,242.67 L525.7,242.67 L524.79,239.67" id="Path" stroke="#19243B" stroke-linecap="round" stroke-linejoin="round"></path>
                    <path d="M519.28,227.88 C519.28,227.88 524.9,229.98 526.28,231.95 C527.66,233.92 524.38,242.62 522.13,242.62 L519.33,242.62 C519.33,242.62 509.45,230.41 519.28,227.88 Z" id="Path" stroke="#19243B" fill="#FFFFFF" stroke-linecap="round" stroke-linejoin="round"></path>
                    <path d="M515.6,230.23 C515.6,230.23 517.76,225.84 521.11,224.81" id="Path" stroke="#19243B" stroke-linecap="round" stroke-linejoin="round"></path>
                    <path d="M179,228.62 L211.71,236.72 C211.71,236.72 179.29,219.26 174.809672,217.27 C174.77,217.27 178.4,224.53 179,228.62 Z" id="Path" fill="#D7E6F2"></path>
                    <path d="M169.32,257.39 C169.32,257.39 156.79,210.93 160.97,205.7 C166.08,199.29 171.49,199.86 171.49,199.86 C171.49,199.86 169.11,214.25 174.77,217.27 C180.435698,229.826815 183.200772,243.498377 182.86,257.27 L169.32,257.39 Z" id="Path" fill="#D7E6F2"></path>
                    <path d="M220.39,131.17 C220.39,131.17 216.39,128.66 214.53,131.4 C212.67,134.14 209.58,131.62 206.86,130.5 C204.14,129.38 202.77,129.85 202.15,132.75 C201.371338,136.053954 199.913786,139.159766 197.87,141.87 C196.93,138.87 195.97,133.98 198.77,129.93 C202.82,124.07 216.34,126.67 220.39,131.17 Z" id="Path" fill="#D7E6F2"></path>
                    <path d="M719.66,296 C719.66,296 722.24,297.6 723.22,302 L722.69,296 L719.66,296 Z" id="Path" fill="#D7E6F2"></path>
                    <path d="M630,172.64 C628.84,178.97 624.69,182.32 622.19,182.75 C616.03,182.75 610.19,182.81 606.79,182.86 C603.740764,181.778969 600.512312,181.293513 597.28,181.43 L598.65,156.12 C602.49,156.25 604.5,152.82 603.72,150.69 C602.94,148.56 598.85,149.2 598.85,149.2 C598.85,149.2 596.29,148.2 598.85,140.97 C599.36,139.46 595.68,141.41 594.09,141.31 C593.121324,141.297421 592.169123,141.057659 591.31,140.61 C589.59,139.61 588.92,137.5 587.62,135.99 C585.15,133.1 579.7,130.99 573.62,134.75 C573.118334,140.737039 573.041475,146.752098 573.39,152.75 C573.92,160.39 575.5,168.04 579.53,170.22 L579.3,179.03 L574.61,181.03 L571.98,182.13 L569.04,183.35 C569.04,183.35 568.11,183.62 566.66,184.22 C566.66,184.22 560.71,174.3 567.88,168.76 C575.05,163.22 571.21,154.9 571.21,154.9 C569.875058,154.522749 568.916977,153.353092 568.81,151.97 C568.784264,150.549834 569.689313,149.279519 571.04,148.84 C566.88,143.84 567.65,127.53 570.04,123.84 C572.43,120.15 576.83,123.07 576.83,123.07 C580.429547,119.150079 585.472234,116.867939 590.792839,116.75092 C596.113443,116.633901 601.25159,118.692127 605.02,122.45 C607.46,124.89 609.3,128.29 608.71,131.69 C608.461213,132.484922 608.392887,133.325331 608.51,134.15 C608.99,135.89 611.26,136.15 612.99,136.68 C615.279852,137.453386 617.162411,139.11527 618.213852,141.29151 C619.265294,143.467749 619.397245,145.975433 618.58,148.25 C617.58,150.8 615.28,153.42 616.47,155.89 C617.13,157.31 618.71,158 620.12,158.66 C622.202483,159.500978 624.086119,160.76809 625.65,162.38 C627.1,164 630.44,170.44 630,172.64 Z" id="Path" fill="#D7E6F2"></path>
                    <path d="M579.45,174.53 C579.45,174.53 593.85,177.06 595.33,164.6 C595.33,164.6 591.33,174.04 579.55,170.43 L579.45,174.53 Z" id="Path" fill="#D7E6F2"></path>
                    <path d="M232.92,370.33 C232.92,370.33 240.99,372.19 243.01,369.33 L243.01,371.75 C243.01,371.75 237.09,373.82 232.67,373.33 L232.92,370.33 Z" id="Path" fill="#D7E6F2"></path>
                    <path d="M294.65,358.37 C294.65,358.37 299.78,355.53 302.06,352.68 L301.33,350.86 C298.968168,352.937329 296.204204,354.506525 293.21,355.47 L294.65,358.37 Z" id="Path" fill="#D7E6F2"></path>
                    <rect id="Rectangle" stroke="#19243B" fill="#D7E6F2" stroke-linecap="round" stroke-linejoin="round" x="182.86" y="300.6" width="3.37" height="89.01"></rect>
                    <path d="M166.68,299.11 L166.68,389.61 L163.31,389.61 L163.31,298.11 C164.412943,298.508548 165.538186,298.842448 166.68,299.11 L166.68,299.11 Z" id="Path" stroke="#19243B" fill="#D7E6F2" stroke-linecap="round" stroke-linejoin="round"></path>
                    <path d="M223.05,304.51 L223.05,389.61 L219.68,389.61 L219.68,304 C220.83,304.16 222,304.33 223.05,304.51 Z" id="Path" stroke="#19243B" fill="#D7E6F2" stroke-linecap="round" stroke-linejoin="round"></path>
                    <path d="M202.55,168.06 C202.55,168.06 208.86,178.06 217.42,176.28 L217.42,173 C217.42,173 211.49,175.86 202.55,168.06 Z" id="Path" fill="#D7E6F2"></path>
                    <path d="M255.73,291 C264.06,291.62 261.81,302.65 261.81,302.65 C261.81,302.65 246.08,359.12 244.92,367.86 C241.753228,370.967392 237.06924,371.951029 232.92,370.38" id="Path" stroke="#19243B" fill="#FFFFFF" stroke-linecap="round" stroke-linejoin="round"></path>
                    <path d="M219.68,304 C215.15,303.34 208.98,301.31 199.86,300.61" id="Path" stroke="#19243B" stroke-linecap="round" stroke-linejoin="round"></path>
                    <path d="M223.05,304.51 C227.05,305.15 233.96,305.8 235.92,306.22 C237.443176,306.544206 238.498595,307.935827 238.4,309.49 L232.92,370.34" id="Path" stroke="#19243B" stroke-linecap="round" stroke-linejoin="round"></path>
                    <circle id="Oval" fill="#D7E6F2" cx="598.69" cy="56.97" r="22.27"></circle>
                    <circle id="Oval" stroke="#D7E6F2" stroke-linecap="round" stroke-linejoin="round" cx="598.51" cy="56.97" r="26.71"></circle>
                    <polygon id="Path" fill="#D7E6F2" points="459.15 379.97 457.14 381.04 473.56 384.6 472.91 380.44"></polygon>
                    <polygon id="Path" fill="#D7E6F2" points="405.8 377.35 405.59 379.45 419.22 381.58 418.33 377.35"></polygon>
                    <path d="M415.05,223.81 C415.05,223.81 439.29,234.57 456.27,229.5 C472.87,224.5 472.58,220.72 472.58,220.72 L472,220 C470.50201,221.498464 468.608074,222.539089 466.54,223 C461.54,224 454.19,223.57 450.61,223.58 C444.61,223.58 443.44,224 435.61,224.51 C422.9,225.34 415.61,218.67 415.61,218.67 L415.05,223.81 Z" id="Path" fill="#D7E6F2"></path>
                    <path d="M454.36,249.08 L448.67,266.33 L449.77,283.22 C449.77,283.22 454.36,260.79 454.36,249.08 Z" id="Path" fill="#D7E6F2"></path>
                    <polygon id="Path" stroke="#19243B" stroke-linecap="round" stroke-linejoin="round" points="455.27 375.95 455.27 379.85 474.35 380.44 474.35 374.82"></polygon>
                    <rect id="Rectangle" stroke="#19243B" stroke-linecap="round" stroke-linejoin="round" x="403.71" y="372.58" width="17.91" height="4.77"></rect>
                    <path d="M457.87,375.79 C457.87,375.79 448.33,274.79 448.67,266.33 L419.59,372.58 L406.75,372.58 C406.75,372.58 412.67,241.78 415.58,218.69" id="Path" stroke="#19243B" stroke-linecap="round" stroke-linejoin="round"></path>
                    <path d="M472.38,219.54 C472.38,219.54 481.46,269.67 472,374.96" id="Path" stroke="#19243B" stroke-linecap="round" stroke-linejoin="round"></path>
                    <path d="M445.610088,145.81 C445.610088,145.81 445.68,155.42 441.88,160.49 C439.81,163.27 435.3,166.02 429.81,171.49 C424.32,176.96 416.65,183.12 416.65,183.12 L417.91,175.84 C417.91,175.84 430,167.16 445.610088,145.81 Z" id="Path" fill="#D7E6F2"></path>
                    <path d="M224.45,180.8 C231.95,180.8 240.31,181.8 245.45,187.95 C250.02,193.37 251.19,201.05 252.21,207.83 C252.31,208.46 253.27,208.19 253.21,207.56 C252.14,200.46 250.85,192.47 245.9,186.9 C240.56,180.9 232.09,179.8 224.49,179.8 C224.213858,179.8 223.99,180.023858 223.99,180.3 C223.99,180.576142 224.213858,180.8 224.49,180.8 L224.45,180.8 Z" id="Path" fill="#19243B"></path>
                    <path d="M245.17,266.36 C244.585442,259.994447 244.365083,253.600694 244.51,247.21 C244.51,246.56 243.51,246.56 243.51,247.21 C243.365083,253.600694 243.585442,259.994447 244.17,266.36 C244.17,267 245.17,267 245.17,266.36 L245.17,266.36 Z" id="Path" fill="#19243B"></path>
                    <path d="M272.62,152 C270.578492,152.62602 268.665141,153.61148 266.97,154.91 C265.253748,156.246903 264.374643,158.393289 264.66,160.55 C264.994449,161.851419 265.687384,163.032872 266.66,163.96 C272.28,169.83 281.33,171.15 289.35,169.83 C292.544621,169.434186 295.60438,168.304745 298.29,166.53 C300.991577,164.710016 302.677581,161.72338 302.84,158.47 C302.7485,156.146428 301.941752,153.907787 300.53,152.06 C296.66,146.59 289.83,143.58 283.13,143.67 C276.372115,143.930223 269.92603,146.580949 264.94,151.15" id="Path" fill="#FFFFFF"></path>
                    <path d="M272.49,151.5 C269.32,152.69 265.73,154.14 264.49,157.58 C263.29,160.82 265.33,163.58 267.72,165.58 C273.44,170.43 281.49,171.47 288.72,170.45 C295.21,169.54 303.72,166 303.42,158.1 C303.13,150.91 295.63,145.56 289.27,143.91 C280.43,141.63 271.41,145.01 264.69,150.81 C264.2,151.23 264.91,151.94 265.4,151.52 C271.83,145.96 280.53,142.67 289.01,144.88 C296.45,146.82 306.66,155.35 300.61,163.62 C295.88,170.09 284.91,170.73 277.7,169.2 C273.939276,168.479128 270.452887,166.727278 267.63,164.14 C265.51,162.14 264.31,159.48 266.04,156.78 C267.54,154.44 270.32,153.42 272.8,152.49 C273.4,152.27 273.14,151.3 272.54,151.49 L272.49,151.5 Z" id="Path" fill="#19243B"></path>
                    <path d="M475.05,25.07 C469.18,27.26 462.43,30.01 460.37,36.55 C458.37,42.8 463.37,47.92 467.93,51.4 C478.25,59.22 492.17,60.79 504.66,59.02 C516.66,57.33 532.88,50.44 531.2,35.63 C529.7,22.42 515.69,13.17 503.72,10.63 C488.22,7.36 472.47,13.47 460.82,23.63 C460.33,24.06 461.04,24.76 461.52,24.34 C471.04,16.04 483.29,10.43 496.1,10.74 C507.9,11.02 519.97,16.61 526.6,26.6 C530.55,32.6 531.6,39.6 527.78,45.84 C524.22,51.61 518.03,54.84 511.66,56.59 C500.66,59.59 488.29,59.59 477.61,55.59 C471.72,53.35 464.68,49.2 461.8,43.32 C457.3,34.12 468.56,28.57 475.32,26.04 C475.91,25.82 475.65,24.85 475.05,25.04 L475.05,25.07 Z" id="Path" fill="#19243B"></path>
                    <path d="M302.78,347.32 C299.95,337.71 296.83,328.19 294.02,318.58 C291.48,309.9 289.52,301.11 286.66,292.52 C285.15,287.99 283.56,283.52 281.84,279.03 C280.21,274.82 278.21,271.15 273.9,269.25 C269.59,267.35 264.55,267.08 259.96,266.66 C254.307778,266.162884 248.632961,265.969273 242.96,266.08 C229.738775,266.473157 216.567005,267.877255 203.56,270.28 C202.93,270.39 203.2,271.35 203.83,271.28 C215.261846,269.203275 226.8159,267.86716 238.42,267.28 C248.8,266.84 260.05,266.71 270.22,269.15 C272.796208,269.641591 275.1851,270.839499 277.12,272.61 C279.12,274.61 280.12,277.37 281.12,279.96 C282.74,284.22 284.27,288.513333 285.71,292.84 C288.38,300.84 290.23,309.03 292.56,317.14 C295.5,327.35 298.83,337.45 301.84,347.65 C301.888231,347.828633 302.028097,347.967965 302.206913,348.015513 C302.385729,348.06306 302.576328,348.011598 302.706913,347.880513 C302.837499,347.749427 302.888231,347.558633 302.84,347.38 L302.78,347.32 Z" id="Path" fill="#19243B"></path>
                    <path d="M579.55,170.43 L579.33,179.24 L569.07,183.51 C569.07,183.51 563.76,184.23 556.53,191.44" id="Path" stroke="#19243B" stroke-linecap="round" stroke-linejoin="round"></path>
                    <path d="M598.69,156.28 L597.25,182.88" id="Path" stroke="#19243B" stroke-linecap="round" stroke-linejoin="round"></path>
                    <path d="M598.69,156.78 C600.914614,156.876114 602.988885,155.658948 603.99,153.67 C604.67,152.2 604.63,150.34 603.13,149.4 C602.204928,148.923818 601.168476,148.706163 600.13,148.77 C599.83,148.77 599.43,148.86 599.13,148.83 C598.57,148.76 599.13,148.96 599.05,148.83 C597.35,147.63 598.5,143.97 598.92,142.5 C599.34,141.03 599.74,139.89 597.81,140.09 C596.53,140.22 595.39,140.92 594.09,140.93 C591.09,140.93 590.09,138.72 588.66,136.65 C585.07,131.49 578.42,131.54 573.4,134.43 C573.159756,134.568071 573.076929,134.874756 573.215,135.115 C573.353071,135.355244 573.659756,135.438071 573.9,135.3 C577.1,133.46 580.76,132.65 584.23,134.23 C586.91,135.44 587.77,137.63 589.52,139.78 C590.734632,141.269503 592.604378,142.066015 594.52,141.91 C595.401663,141.784189 596.269053,141.573202 597.11,141.28 C597.11,141.28 598.3,140.92 598.33,140.95 C598.36,140.98 597.65,143.22 597.61,143.4 C597.24,144.96 596.5,148.71 598.51,149.69 C599.09,149.98 599.9,149.69 600.51,149.69 C602.31,149.79 603.85,150.88 603.16,152.85 C602.409221,154.665056 600.590831,155.805062 598.63,155.69 C598.353858,155.69 598.13,155.913858 598.13,156.19 C598.13,156.466142 598.353858,156.69 598.63,156.69 L598.69,156.78 Z" id="Path" fill="#19243B"></path>
                    <path d="M621.1,183.4 C624.32,183.91 627.27,180.52 628.68,178.05 C629.73,176.22 630.77,173.83 630.51,171.68 C630.111981,169.609022 629.357444,167.622866 628.28,165.81 C627.321485,163.714812 625.878454,161.877605 624.07,160.45 C620.97,158.19 615,157.28 617.26,152.14 C618.32,149.73 619.72,147.78 619.61,145.04 C619.482041,142.823479 618.620086,140.712569 617.16,139.04 C615.48,137.12 613.56,136.7 611.28,135.88 C609.69,135.31 609.03,134.65 609.01,132.88 C609.01,132.33 609.25,131.7 609.28,131.14 C609.343413,129.772367 609.107947,128.407348 608.59,127.14 C606.42,121.62 600.47,117.9 594.82,116.85 C589.009341,115.811361 583.034724,117.359795 578.46,121.09 C578.07,121.41 577.27,122.5 577.01,122.64 C576.75,122.78 577.18,122.64 576.6,122.64 C576.02,122.64 575.11,121.98 574.43,121.84 C572.820522,121.46297 571.134051,122.000797 570.04,123.24 C567.44,126.24 567.59,132.16 567.6,135.83 C567.6,140.3 567.85,145.83 570.71,149.49 C571.1,150 571.81,149.29 571.42,148.78 C568.11,144.51 568.35,137.36 568.72,132.26 C568.787323,129.899593 569.212151,127.563038 569.98,125.33 C571.17,122.33 574.16,122.23 576.55,123.77 C576.747617,123.886389 576.999078,123.853411 577.16,123.69 C583.336287,117.113153 593.244947,115.692884 601.02,120.27 C604.78,122.52 608.54,126.49 608.28,131.18 C608.13,134.02 607.53,135.75 610.71,136.84 C612.37,137.41 613.97,137.67 615.38,138.84 C616.914291,140.121477 617.971305,141.883166 618.38,143.84 C619.29,147.95 616.04,150.37 615.62,154.12 C615.29,157.02 617.51,158.34 619.81,159.44 C622.997988,160.785095 625.622914,163.190984 627.24,166.25 C628.154974,167.84626 628.860768,169.55361 629.34,171.33 C629.8,173.33 628.98,175.44 628.08,177.18 C626.98,179.34 624.22,183.1 621.32,182.65 C620.69,182.55 620.42,183.51 621.06,183.65 L621.1,183.4 Z" id="Path" fill="#19243B"></path>
                    <path d="M587.93,145.39 C589.796133,144.375606 592.043954,144.353128 593.93,145.33 C594.5,145.62 595.01,144.76 594.43,144.46 C592.229473,143.320904 589.607307,143.347126 587.43,144.53 C586.86,144.83 587.37,145.7 587.94,145.39 L587.93,145.39 Z" id="Path" fill="#19243B"></path>
                    <path d="M576,142.21 C577.58,142.06 580.23,141.92 581.23,143.45 C581.58,143.99 582.45,143.45 582.09,142.95 C580.86,141.05 578,141.02 576,141.21 C575.37,141.27 575.36,142.28 576,142.21 Z" id="Path" fill="#19243B"></path>
                    <path d="M343.05,194.95 L364.32,194.95" id="Path" stroke="#19243B" fill="#D7E6F2" stroke-linecap="round" stroke-linejoin="round"></path>
                    <rect id="Rectangle" fill="#D7E6F2" x="245.55" y="45.18" width="33.69" height="40.43" rx="4"></rect>
                    <path d="M407.48,37.82 C407.48,46.1815911 400.701591,52.96 392.34,52.96 C383.978409,52.96 377.2,46.1815911 377.2,37.82 C377.2,29.4584089 383.978409,22.68 392.34,22.68 C394.269541,22.6753641 396.181614,23.0455522 397.97,23.77 L392.34,37.77 L407.48,37.82 Z" id="Path" stroke="#D7E6F2" fill="#FFFFFF" stroke-linecap="round" stroke-linejoin="round"></path>
                    <path d="M402.51,20.74 C408.235923,23.0337004 411.997871,28.5717938 412.02,34.74 L396.88,34.74 L402.51,20.74 Z" id="Path" stroke="#D7E6F2" fill="#D7E6F2" stroke-linecap="round" stroke-linejoin="round"></path>
                    <rect id="Rectangle" stroke="#D7E6F2" fill="#FFFFFF" stroke-linecap="round" stroke-linejoin="round" x="311.5" y="79.37" width="5.05" height="26.96"></rect>
                    <rect id="Rectangle" stroke="#D7E6F2" fill="#FFFFFF" stroke-linecap="round" stroke-linejoin="round" x="320.77" y="97.9" width="5.05" height="8.42"></rect>
                    <rect id="Rectangle" stroke="#D7E6F2" fill="#FFFFFF" stroke-linecap="round" stroke-linejoin="round" x="330.03" y="90.32" width="5.05" height="16.01"></rect>
                    <rect id="Rectangle" stroke="#D7E6F2" fill="#FFFFFF" stroke-linecap="round" stroke-linejoin="round" x="339.3" y="94.53" width="5.05" height="11.79"></rect>
                    <rect id="Rectangle" stroke="#D7E6F2" fill="#D7E6F2" stroke-linecap="round" stroke-linejoin="round" x="347.72" y="82.73" width="5.05" height="23.59"></rect>
                    <rect id="Rectangle" stroke="#D7E6F2" fill="#FFFFFF" stroke-linecap="round" stroke-linejoin="round" x="356.99" y="73.47" width="5.05" height="32.85"></rect>
                    <rect id="Rectangle" stroke="#FFFFFF" stroke-linecap="round" stroke-linejoin="round" x="250.93" y="50.23" width="3.37" height="3.37"></rect>
                    <path d="M258.51,51.92 L272.83,51.92" id="Path" stroke="#FFFFFF" stroke-linecap="round" stroke-linejoin="round"></path>
                    <rect id="Rectangle" stroke="#FFFFFF" stroke-linecap="round" stroke-linejoin="round" x="250.93" y="56.97" width="3.37" height="3.37"></rect>
                    <path d="M258.51,58.66 L268.61,58.66" id="Path" stroke="#FFFFFF" stroke-linecap="round" stroke-linejoin="round"></path>
                    <rect id="Rectangle" stroke="#FFFFFF" stroke-linecap="round" stroke-linejoin="round" x="250.93" y="63.71" width="3.37" height="3.37"></rect>
                    <path d="M258.51,65.39 L272.83,65.39" id="Path" stroke="#FFFFFF" stroke-linecap="round" stroke-linejoin="round"></path>
                    <rect id="Rectangle" stroke="#FFFFFF" stroke-linecap="round" stroke-linejoin="round" x="250.93" y="70.45" width="3.37" height="3.37"></rect>
                    <path d="M258.51,72.13 L272.83,72.13" id="Path" stroke="#FFFFFF" stroke-linecap="round" stroke-linejoin="round"></path>
                    <rect id="Rectangle" stroke="#FFFFFF" stroke-linecap="round" stroke-linejoin="round" x="250.93" y="77.19" width="3.37" height="3.37"></rect>
                    <path d="M258.51,78.87 L270.3,78.87" id="Path" stroke="#FFFFFF" stroke-linecap="round" stroke-linejoin="round"></path>
                    <path d="M267.45,94.52 C267.74,98.25 270.45,101.45 273.66,103.35 C276.87,105.25 280.66,106.06 284.28,106.85" id="Path" fill="#FFFFFF"></path>
                    <path d="M267,94.52 C268,103.1 277,105.77 284.2,107.33 C284.83,107.46 285.1,106.5 284.47,106.33 C277.79,104.9 268.98,102.57 268,94.49 C267.92,93.85 266.92,93.85 267,94.49 L267,94.52 Z" id="Path" fill="#D7E6F2"></path>
                    <path d="M589.76,130.2 C589.76,130.2 598.24,135.79 604.53,131.2" id="Path" stroke="#19243B" stroke-linecap="round" stroke-linejoin="round"></path>
                    <path d="M193,202.33 C193,202.33 220.35,215.81 228.55,225.24" id="Path" stroke="#19243B" stroke-linecap="round" stroke-linejoin="round"></path>
                    <path d="M225.74,222.42 C225.74,222.42 254.69,206.52 256.53,206.42 C258.37,206.32 264.35,208.1 266.64,211.42 L233.76,242.65 L222.76,242.65 L173.31,216.58 C170.81,213.46 169.46,201.58 173.86,193.77 C178.26,185.96 201,180.5 201,180.5" id="Path" stroke="#19243B" stroke-linecap="round" stroke-linejoin="round"></path>
                    <path d="M174.77,217.27 C180.358385,229.851601 183.119903,243.505583 182.86,257.27" id="Path" stroke="#19243B" stroke-linecap="round" stroke-linejoin="round"></path>
                    <path d="M264.42,295.29 C264.42,295.29 265.14,298.92 270.34,315.48 C275.54,332.04 291.39,355.88 291.39,355.88 C291.39,355.88 296.66,355.41 302.89,349.46" id="Path" stroke="#19243B" stroke-linecap="round" stroke-linejoin="round"></path>
                    <path d="M342.49,389.61 L250.07,389.61" id="Path" stroke="#19243B" stroke-linecap="round" stroke-linejoin="round"></path>
                    <path d="M373.59,389.61 L616.8,389.61" id="Path" stroke="#19243B" fill="#FFFFFF" stroke-linecap="round" stroke-linejoin="round"></path>
                    <polyline id="Path" stroke="#D7E6F2" stroke-linecap="round" stroke-linejoin="round" points="129.72 236.72 118.99 236.72 118.99 0.03 687.56 0.03 687.56 236.72 660.44 236.72"></polyline>
                    <rect id="Rectangle" stroke="#19243B" fill="#D7E6F2" stroke-linecap="round" stroke-linejoin="round" x="215.86" y="242.62" width="374.84" height="5.05" rx="2.525"></rect>
                    <path d="M360.28,242.62 L300.51,242.620299 L310.51,202.67 C311.077876,200.409181 313.108954,198.823045 315.44,198.82 L371,198.82 C371.886486,198.821119 372.723064,199.230429 373.26799,199.929653 C373.812916,200.628877 374.005466,201.540097 373.79,202.4 L364.56,239.32 C364.069344,241.278198 362.298597,242.643494 360.28,242.62 Z" id="Path" stroke="#19243B" fill="#D7E6F2" stroke-linecap="round" stroke-linejoin="round"></path>
                    <ellipse id="Oval" stroke="#19243B" fill="#FFFFFF" stroke-linecap="round" stroke-linejoin="round" transform="translate(338.813226, 221.317499) rotate(-69.360000) translate(-338.813226, -221.317499) " cx="338.813226" cy="221.317499" rx="4.63" ry="3.3"></ellipse>
                    <ellipse id="Oval" stroke="#19243B" fill="#FFFFFF" stroke-linecap="round" stroke-linejoin="round" transform="translate(344.363416, 214.456259) rotate(-69.360000) translate(-344.363416, -214.456259) " cx="344.363416" cy="214.456259" rx="1.74" ry="1.24"></ellipse>
                    <polygon id="Path" stroke="#19243B" fill="#D7E6F2" stroke-linecap="round" stroke-linejoin="round" points="300.51 242.62 267.31 242.62 267.31 240.09 301.09 240.09"></polygon>
                    <path d="M198.78,151.33 C198.78,151.33 199.29,164.33 200.78,166.2 C202.27,168.07 210.58,177.35 222.23,171.27 C222.23,171.27 231.69,164.51 223.92,156.74 C223.92,156.74 218.35,153.53 208.21,155.74 C198.07,157.95 198.78,151.33 198.78,151.33 Z" id="Path" stroke="#19243B" fill="#D7E6F2" stroke-linecap="round" stroke-linejoin="round"></path>
                    <path d="M206.88,148.29 C206.88,148.29 206.65,145.81 208.23,145.59 C209.382214,145.965418 210.12662,147.082027 210.03,148.29" id="Path" stroke="#19243B" stroke-linecap="round" stroke-linejoin="round"></path>
                    <path d="M217.92,146.94 C217.92,146.94 217.38,144.68 218.59,144.64 C220.14,144.59 220.39,146.94 220.39,146.94" id="Path" stroke="#19243B" stroke-linecap="round" stroke-linejoin="round"></path>
                    <path d="M214.31,152.8 C214.31,152.8 216.56,153.02 216.11,151.33 C215.66,149.64 215.76,150.09 212.89,149.19 L212.89,140.86" id="Path" stroke="#19243B" stroke-linecap="round" stroke-linejoin="round"></path>
                    <path d="M198.77,146.94 C198.77,146.94 191.77,146.71 192.46,151.33 C193.15,155.95 196.69,155.95 197.87,155.95" id="Path" stroke="#19243B" stroke-linecap="round" stroke-linejoin="round"></path>
                    <path d="M225.12,146.94 C225.12,146.94 229.4,148.29 229.18,151.33 C228.96,154.37 225.12,154.6 225.12,154.6" id="Path" stroke="#19243B" stroke-linecap="round" stroke-linejoin="round"></path>
                    <path d="M227,149.87 C225.811977,150.501922 224.897412,151.548156 224.43,152.81" id="Path" stroke="#19243B" stroke-linecap="round" stroke-linejoin="round"></path>
                    <path d="M195.59,150.77 C195.59,150.77 198.77,150.54 198.77,149.87" id="Path" stroke="#19243B" stroke-linecap="round" stroke-linejoin="round"></path>
                    <path d="M203.05,142.89 C205.428832,142.394314 207.768365,141.725876 210.05,140.89" id="Path" stroke="#19243B" stroke-linecap="round" stroke-linejoin="round"></path>
                    <path d="M216.17,140.86 L222.42,141.87" id="Path" stroke="#19243B" stroke-linecap="round" stroke-linejoin="round"></path>
                    <path d="M217.42,179.15 L217.42,173.01" id="Path" stroke="#19243B" stroke-linecap="round" stroke-linejoin="round"></path>
                    <path d="M219.52,182.52 C219.52,182.52 223.86,183.7 225.12,186.13 C225.12,186.13 225.85,181.61 224.45,180.3 C224.45,180.3 222.37,179.3 217.45,179.15 C217.45,179.15 224.31,190.69 223.36,196.92 C222.41,203.15 217.45,197.54 217.45,197.54 C213.683495,193.294726 209.469001,189.469159 204.88,186.13 C203.42,188.61 195.62,189.9 195.62,189.9 C195.62,186.9 197.21,181.53 197.21,181.53" id="Path" stroke="#19243B" stroke-linecap="round" stroke-linejoin="round"></path>
                    <path d="M202,167.55 L201,180.55 C201,180.55 200.68,183.9 204.83,186.18" id="Path" stroke="#19243B" stroke-linecap="round" stroke-linejoin="round"></path>
                    <path d="M214.53,160.91 C212.290642,160.753206 210.160156,159.884192 208.45,158.43" id="Path" stroke="#19243B" stroke-linecap="round" stroke-linejoin="round"></path>
                    <path d="M198.77,144.64 C198.54,143.34 194.72,135.79 198.77,129.93 C202.82,124.07 216.34,126.67 220.39,131.17 C224.44,135.67 224.45,145.79 224.45,145.79" id="Path" stroke="#19243B" stroke-linecap="round" stroke-linejoin="round"></path>
                    <path d="M197.87,141.87 C199.913786,139.159766 201.371338,136.053954 202.15,132.75 C202.77,129.85 204.15,129.37 206.87,130.5 C209.59,131.63 212.63,134.14 214.53,131.4 C216.43,128.66 220.39,131.17 220.39,131.17" id="Path" stroke="#19243B" stroke-linecap="round" stroke-linejoin="round"></path>
                    <path d="M479.66,162.34 C479.66,162.34 487.76,163.56 488.36,158.7 C488.98,153.7 484.21,136.63 478.5,125.4 C478.5,125.4 480.71,159.38 479.66,162.34 Z" id="Path" fill="#D7E6F2"></path>
                    <path d="M439.37,102.47 C437.642498,103.817789 435.669122,104.816365 433.56,105.41 C430.724758,106.276714 427.695242,106.276714 424.86,105.41 C421.91,104.36 425.49,92.16 425.49,92.16 C424.705295,92.2140697 423.961758,91.8031678 423.59,91.11 C423.751012,89.913953 424.10565,88.7520922 424.64,87.67" id="Path" stroke="#19243B" fill="#FFFFFF" stroke-linecap="round" stroke-linejoin="round"></path>
                    <path d="M427.61,81.44 C429.67,77.44 431.75,73.96 432.3,73.03" id="Path" stroke="#19243B" fill="#FFFFFF" stroke-linecap="round" stroke-linejoin="round"></path>
                    <path d="M426.12,98.16 C427.430817,98.1019432 428.713529,97.7607965 429.88,97.16" id="Path" stroke="#19243B" fill="#FFFFFF" stroke-linecap="round" stroke-linejoin="round"></path>
                    <path d="M439.37,87.59 C440.292954,86.5597511 441.616942,85.9798229 443,86" id="Path" stroke="#19243B" fill="#FFFFFF" stroke-linecap="round" stroke-linejoin="round"></path>
                    <path d="M437.79,86.45 C437.79,86.45 434.32,83.45 437.79,79.85 C441.26,76.25 443.32,73.49 440.87,72.85 C438.42,72.21 431.17,75.16 428.96,70.74 C426.75,66.32 428.8,62.06 431.48,62.06 C434.16,62.06 435.83,65.38 441.94,64.75 C448.05,64.12 457.68,66.43 459.73,72.85 C461.78,79.27 458.46,85.57 455.73,90.15 C453,94.73 451.94,96.78 452.1,99.46 C452.1,99.46 447.39,103.09 444.1,98.83 C440.81,94.57 439.91,92.2 440.1,91.41 C440.1,91.41 444.68,89.94 444.99,86.49 C445.3,83.04 443.41,83.05 442.31,83.21 C441.21,83.37 437.79,86.45 437.79,86.45 Z" id="Path" stroke="#19243B" fill="#D7E6F2" stroke-linecap="round" stroke-linejoin="round"></path>
                    <path d="M428,85.32 L436.88,85.32" id="Path" stroke="#19243B" fill="#FFFFFF" stroke-linecap="round" stroke-linejoin="round"></path>
                    <path d="M427.68,84.73 C427.26,86.88 426.2,88.49 425.32,88.32 C424.9,88.24 424.61,87.78 424.45,87.09 C424.239356,86.1010928 424.239356,85.0789072 424.45,84.09 C424.87,81.94 425.92,80.34 426.81,80.51 C427.24,80.59 427.56,81.1 427.71,81.85 C427.888721,82.8026995 427.878528,83.7812302 427.68,84.73 L427.68,84.73 Z" id="Path" stroke="#19243B" fill="#FFFFFF" stroke-linecap="round" stroke-linejoin="round"></path>
                    <path d="M456.57,109.86 L452.15,99.42" id="Path" stroke="#19243B" fill="#FFFFFF" stroke-linecap="round" stroke-linejoin="round"></path>
                    <path d="M433.56,105.42 C433.56,105.42 432.75,115.42 432.43,117.34" id="Path" stroke="#19243B" fill="#FFFFFF" stroke-linecap="round" stroke-linejoin="round"></path>
                    <path d="M400.5,158.21 C400.5,158.21 419.12,122.14 429.88,118.35 C440.64,114.56 438.11,109.83 458.94,109.83 C479.77,109.83 489.86,153.38 488.29,163.48 C486.72,173.58 476.93,175.79 476.93,175.79" id="Path" stroke="#19243B" stroke-linecap="round" stroke-linejoin="round"></path>
                    <path d="M478.8,131 C478.8,131 482.91,174.64 474.71,185.37 C474.71,185.37 469.98,201.37 473.14,207.98 C476.3,214.59 473.23,223.57 463.92,223.15 C456.2,222.81 436.92,224.82 433.56,224.5 C430.2,224.18 413.49,223.56 413.49,212.5 C413.49,201.44 417.91,175.77 417.91,175.77" id="Path" stroke="#19243B" stroke-linecap="round" stroke-linejoin="round"></path>
                    <path d="M405,160.49 C405,160.49 403.28,159.57 400.55,158.21 C392.8,154.36 377,147.08 370,148.02" id="Path" stroke="#19243B" fill="#FFFFFF" stroke-linecap="round" stroke-linejoin="round"></path>
                    <path d="M360.67,154.18 C360.402108,154.817804 360.23024,155.491795 360.16,156.18 C365.84,161.55 401.82,181.12 411.6,179.18 C413.32,178.85 415.48,177.6 417.89,175.76 C429.15,167.17 445.6,145.76 445.6,145.76" id="Path" stroke="#19243B" stroke-linecap="round" stroke-linejoin="round"></path>
                    <path d="M343.11,150.67 L339.17,153.76 L338.72,153.19 L337.27,151.33 L336.73,150.65 L341.64,146.58 C341.956223,147.999677 342.450115,149.373839 343.11,150.67 L343.11,150.67 Z" id="Path" stroke="#19243B" fill="#D7E6F2" stroke-linecap="round" stroke-linejoin="round"></path>
                    <path d="M361.28,136.45 L356.66,140.06 C353.903698,140.166824 351.157596,140.45747 348.44,140.93 L357.91,132.14 L361.28,136.45 Z" id="Path" stroke="#19243B" fill="#D7E6F2" stroke-linecap="round" stroke-linejoin="round"></path>
                    <path d="M370,148 C363.87,148.82 361.58,152 360.72,154.16 C357.72,151.92 352.83,153.58 347.56,153.79 C345.56,153.87 344.13,152.47 343.16,150.65 C342.500115,149.353839 342.006223,147.979677 341.69,146.56 C341.28,144.89 341.11,143.48 341.04,143.05 C340.97,142.62 344.36,141.59 348.49,140.91 C351.207596,140.43747 353.953698,140.146824 356.71,140.04 C359.37,139.96 361.47,140.19 362.1,140.94 C364.15,143.49 370,148 370,148 Z" id="Path" stroke="#19243B" fill="#FFFFFF" stroke-linecap="round" stroke-linejoin="round"></path>
                    <polyline id="Path" stroke="#19243B" stroke-linecap="round" stroke-linejoin="round" points="337.27 151.33 334.94 153.33 337.51 154.22 338.72 153.19"></polyline>
                    <path d="M590.77,149.89 C590.77,149.89 591.05,147.99 589.48,147.72 C589.48,147.72 587.62,147.47 587.55,149.72" id="Path" stroke="#19243B" stroke-linecap="round" stroke-linejoin="round"></path>
                    <path d="M579.86,148.68 C579.86,148.68 580.22,146.3 578.74,146.43 C577.53,146.54 577.34,148.11 577.34,148.11" id="Path" stroke="#19243B" stroke-linecap="round" stroke-linejoin="round"></path>
                    <path d="M573.19,148.56 C573.19,148.56 568.69,149.1 568.82,152.15 C568.95,155.2 573.64,155.62 573.64,155.62 C573.64,155.62 572.94,149.69 573.19,148.56 Z" id="Path" stroke="#19243B" fill="#FFFFFF" stroke-linecap="round" stroke-linejoin="round"></path>
                    <path d="M570.57,151.43 C571.768425,151.116624 573.006028,151.779003 573.41,152.95" id="Path" stroke="#19243B" stroke-linecap="round" stroke-linejoin="round"></path>
                    <path d="M602,153.28 C602,153.28 599.38,153.73 598.85,152.28" id="Path" stroke="#19243B" stroke-linecap="round" stroke-linejoin="round"></path>
                    <path d="M584.18,162.29 C584.18,162.29 586.33,162.81 588.88,160.55" id="Path" stroke="#19243B" stroke-linecap="round" stroke-linejoin="round"></path>
                    <path d="M573.64,134.91 C573.64,134.91 570.48,168.56 580.84,170.91 C588.5,172.65 593.03,168.77 595.33,164.6" id="Path" stroke="#19243B" stroke-linecap="round" stroke-linejoin="round"></path>
                    <path d="M584.12,145.54 C584.12,145.54 581.53,154.67 581.3,155.08 C581.07,155.49 584.45,155.53 584.39,155.17" id="Path" stroke="#19243B" stroke-linecap="round" stroke-linejoin="round"></path>
                    <rect id="Rectangle" stroke="#D7E6F2" stroke-linecap="round" stroke-linejoin="round" x="298.87" y="62.46" width="75.81" height="50.54" rx="4"></rect>
                    <path d="M523.25,242.62 L484.08,242.62 L484.08,240.94 C484.017758,239.60669 485.046808,238.474735 486.38,238.41 L520.94,238.41 C522.274634,238.474788 523.306559,239.604992 523.25,240.94 L523.25,242.62 Z" id="Path" stroke="#19243B" fill="#D7E6F2" stroke-linecap="round" stroke-linejoin="round"></path>
                    <path d="M534.62,217 L463.7,217 C461.200229,217.026766 459.064844,215.203148 458.7,212.73 L449.86,159.4 C449.708064,158.427132 449.989218,157.436477 450.629552,156.688459 C451.269885,155.940442 452.205339,155.509895 453.19,155.51 L524.11,155.51 C526.609771,155.483234 528.745156,157.306852 529.11,159.78 L537.95,213.11 C538.101936,214.082868 537.820782,215.073523 537.180448,215.821541 C536.540115,216.569558 535.604661,217.000105 534.62,217 L534.62,217 Z" id="Path" stroke="#19243B" fill="#D7E6F2" stroke-linecap="round" stroke-linejoin="round"></path>
                    <path d="M493.54,200.15 L499.54,200.15 C501.202252,200.154801 502.614275,201.367529 502.87,203.01 L508.33,238.41 L496.53,238.41 L491.09,203.06 C490.976995,202.3392 491.181937,201.604803 491.651842,201.046671 C492.121747,200.488539 492.810486,200.161462 493.54,200.15 L493.54,200.15 Z" id="Path" stroke="#19243B" fill="#D7E6F2" stroke-linecap="round" stroke-linejoin="round"></path>
                    <polygon id="Path" stroke="#19243B" fill="#FFFFFF" stroke-linecap="round" stroke-linejoin="round" points="257.75 242.62 247.62 242.62 245.93 226.5 259.44 226.5"></polygon>
                    <rect id="Rectangle" stroke="#19243B" fill="#FFFFFF" stroke-linecap="round" stroke-linejoin="round" x="244.9" y="223.97" width="15.56" height="2.53"></rect>
                    <rect id="Rectangle" stroke="#19243B" fill="#FFFFFF" stroke-linecap="round" stroke-linejoin="round" x="246.22" y="221.44" width="12.93" height="2.53"></rect>
                    <path d="M567.11,242.62 L555.32,242.62 L555.32,240.94 C555.32,239.54272 556.45272,238.41 557.85,238.41 L564.58,238.41 C565.97728,238.41 567.11,239.54272 567.11,240.94 L567.11,242.62 Z" id="Path" stroke="#19243B" fill="#FFFFFF" stroke-linecap="round" stroke-linejoin="round"></path>
                    <path d="M265.43,195.92 L275.04,179.92 C275.588568,179.017325 276.625541,178.532353 277.67,178.69 L286.29,180 C286.763533,180.079773 287.166857,180.388812 287.367075,180.825287 C287.567293,181.261761 287.538431,181.769051 287.29,182.18 L278.6,196.62" id="Path" stroke="#19243B" stroke-linecap="round" stroke-linejoin="round"></path>
                    <polyline id="Path" stroke="#FFFFFF" stroke-linecap="round" stroke-linejoin="round" points="587.77 45.18 598.51 56.97 610.19 56.97"></polyline>
                    <path d="M595.19,69.61 L601.5,69.61" id="Path" stroke="#FFFFFF" stroke-linecap="round" stroke-linejoin="round"></path>
                    <path d="M418.33,377.35 L420.9,389.61 L386.37,389.61 C386.37,385.61 405.47,380.69 405.47,380.69 L405.8,377.35" id="Path" stroke="#19243B" stroke-linecap="round" stroke-linejoin="round"></path>
                    <path d="M459.15,380 C459.15,380 447.7,385.64 447.7,389.64 L474.35,389.64 L472.91,380.47" id="Path" stroke="#19243B" stroke-linecap="round" stroke-linejoin="round"></path>
                    <path d="M448.67,266.33 L454.36,249.08" id="Path" stroke="#19243B" fill="#FFFFFF" stroke-linecap="round" stroke-linejoin="round"></path>
                    <path d="M598.51,60.5 C597.075999,60.5161993 595.774716,59.6632326 595.217493,58.341823 C594.66027,57.0204135 594.957866,55.4932179 595.97047,54.4777118 C596.983075,53.4622056 598.509413,53.1602413 599.832411,53.7136814 C601.15541,54.2671215 602.012096,55.5659586 602,57 C601.978492,58.9201335 600.430064,60.4729982 598.51,60.5 L598.51,60.5 Z" id="Path" fill="#FFFFFF"></path>
                    <path d="M598.51,54.44 C599.905903,54.4290635 601.046892,55.5507958 601.059714,56.9466823 C601.072537,58.3425688 599.952348,59.4850727 598.55648,59.4997819 C597.160612,59.5144911 596.016596,58.3958468 596,57 C596,55.6027196 597.13272,54.47 598.53,54.47 L598.51,54.44 Z M598.53,52.47 C596.692522,52.4456604 595.022394,53.5337937 594.302292,55.2244657 C593.58219,56.9151378 593.954807,58.8733301 595.245523,60.181371 C596.536239,61.489412 598.489289,61.8881041 600.189412,61.1906075 C601.889535,60.4931109 602.999839,58.8376394 603,57 C603,54.4981501 600.97185,52.47 598.47,52.47 L598.53,52.47 Z" id="Shape" fill="#D7E6F2" fill-rule="nonzero"></path>
                    <path d="M258.52,206.52 C258.52,206.52 262.77,202.8 262.92,201.81 C263.07,200.82 262.4,196.81 264.22,195.66 C264.22,195.66 265.84,194.89 266.48,198.26 C266.48,198.26 269.39,197.64 270.74,192.49 C272.09,187.34 279.98,185.49 280.19,189.49 C280.36,192.64 276.36,203.91 274.52,204.88 C272.68,205.85 266.43,210.47 266.43,210.47" id="Path" stroke="#19243B" stroke-linecap="round" stroke-linejoin="round"></path>
                    <path d="M206.21,266.76 C206.21,266.76 194.4,251.04 191.34,239.25" id="Path" stroke="#19243B" fill="#FFFFFF" stroke-linecap="round" stroke-linejoin="round"></path>
                    <path d="M240.5,263.55 L240.5,252.32" id="Path" stroke="#19243B" stroke-linecap="round" stroke-linejoin="round"></path>
                    <ellipse id="Oval" stroke="#19243B" fill="#FFFFFF" stroke-linecap="round" stroke-linejoin="round" transform="translate(493.072733, 179.344873) rotate(-14.410000) translate(-493.072733, -179.344873) " cx="493.072733" cy="179.344873" rx="3.3" ry="4.63"></ellipse>
                    <path d="M584.08,378.55 C579.75,381.88 571.46,382.94 571.18,389.61 C571.18,390.25 572.18,390.25 572.18,389.61 C572.43,383.61 580.67,382.42 584.58,379.41 C585.08,379.02 584.58,378.15 584.08,378.55 Z" id="Path" fill="#19243B"></path>
                    <path d="M629.27,295.12 L629.27,313.25 C628.123333,312.09 627,310.913333 625.9,309.72 L625.9,296.93 C627.089556,296.459035 628.220451,295.85164 629.27,295.12 Z" id="Path" stroke="#19243B" fill="#D7E6F2" stroke-linecap="round" stroke-linejoin="round"></path>
                    <path d="M629.27,313.25 C629.27,313.25 637.11,320.99 642.44,326.37 C643.940539,327.877827 645.767574,329.020579 647.78,329.71 C652.259957,331.276104 656.492835,333.475045 660.35,336.24 C664.88,339.5 664.72,338.24 669,341.56 C672.72,344.5 660.74,348.3 657,345.71 C655,344.31 655,343.71 649.78,342.55 C644.09,341.29 639.78,340.55 638.78,334.36" id="Path" stroke="#19243B" stroke-linecap="round" stroke-linejoin="round"></path>
                    <path d="M625.9,309.72 C622.73,306.29 619.73,302.72 616.81,299.13 C614.47,296.23 612.17,293.3 609.86,290.38 C604.07,283.03 598.26,275.76 591.56,269.19 C587.07,264.78 579.2,259.56 573.18,257.7 C563.76,254.8 551.26,260.78 546.53,266.32" id="Path" stroke="#19243B" stroke-linecap="round" stroke-linejoin="round"></path>
                    <path d="M639.05,333.93 C633.329455,329.947696 627.356951,326.340143 621.17,323.13 C616.97446,321.12508 612.909705,318.857234 609,316.34 C604.464293,313.279932 600.506486,309.440623 597.31,305 C593.93,300.08 590.72,295.19 586.68,290.75 C584.79,288.68 582.6,286.46 579.77,285.75 C577.52,285.24 575.68,285.42 573.67,284.02 C573.14,283.65 572.67,284.52 573.16,284.88 C574.56197,285.845068 576.200996,286.408699 577.9,286.51 C580.9,286.82 582.9,288.23 584.99,290.36 C589.46,294.94 592.84,300.23 596.45,305.46 C602.04,313.58 610.36,318.65 618.93,323.05 C625.724228,326.503223 632.278965,330.408671 638.55,334.74 C639.08,335.11 639.55,334.24 639.05,333.88 L639.05,333.93 Z" id="Path" fill="#19243B"></path>
                    <path d="M618.39,257.23 C622.33,262 620.91,268.68 619,274 C616.847338,279.873649 613.626456,285.298291 609.5,290 C609.08,290.48 609.79,291.19 610.21,290.71 C614.827669,285.447309 618.331456,279.303776 620.51,272.65 C622.21,267.32 622.89,261.1 619.09,256.5 C618.68,256.01 617.98,256.72 618.39,257.21 L618.39,257.23 Z" id="Path" fill="#19243B"></path>
                    <polyline id="Path" stroke="#19243B" stroke-linecap="round" stroke-linejoin="round" points="508.04 22.77 500.24 30.82 494.07 28.32 485.08 34.89 482.13 33.1 474.05 40.28"></polyline>
                    <polyline id="Path" stroke="#19243B" stroke-linecap="round" stroke-linejoin="round" points="507.2 20.77 510.88 19.83 509.99 23.53"></polyline>
                    <path d="M625.9,296.93 C622.975831,298.046733 619.921196,298.786029 616.81,299.13" id="Path" stroke="#19243B" stroke-linecap="round" stroke-linejoin="round"></path>
                    <path d="M608.25,182.89 C608.25,182.89 642.63,182.29 645.06,184.24 C647.49,186.19 655.79,191.07 654.32,205.69 C652.85,220.31 644.57,273.92 631.91,291.96 C631.91,291.96 631.62,293.45 629.27,295.12" id="Path" stroke="#19243B" stroke-linecap="round" stroke-linejoin="round"></path>
                    <path d="M626.22,196.58 C626.22,196.58 626.54,196.42 638.73,196.91 C650.92,197.4 629.47,256.36 629.47,256.36 C629.47,256.36 621.18,256.86 603.64,256.36 C589.16,255.96 588.29,263.52 588.42,266.18" id="Path" stroke="#19243B" stroke-linecap="round" stroke-linejoin="round"></path>
                    <path d="M162.44,197.54 C168.51,197.66 175.36,197.54 148.94,197.75 C136.74,197.85 158.2,257.2 158.2,257.2 C158.2,257.2 166.49,257.7 184.03,257.2 C201.57,256.7 199.14,267.92 199.14,267.92 L199.14,296.51 C199.14,296.51 199.64,300.58 195.08,300.58" id="Path" stroke="#19243B" stroke-linecap="round" stroke-linejoin="round"></path>
                    <path d="M400.75,62 C400.75,62 400.19,78.09 385.59,80.54" id="Path" stroke="#D7E6F2" fill="#FFFFFF" stroke-linecap="round" stroke-linejoin="round"></path>
                    <path d="M298.87,37.82 C298.87,37.82 314.87,24.14 344.35,30.26" id="Path" stroke="#D7E6F2" fill="#FFFFFF" stroke-linecap="round" stroke-linejoin="round"></path>
                    <path d="M510.85,85.46 C510.914891,87.8142406 509.061377,89.776504 506.707262,89.845802 C504.353148,89.9150999 502.387418,88.0652634 502.313713,85.7112823 C502.240008,83.3573012 504.086161,81.3881117 506.44,81.31 C508.799978,81.2481991 510.768456,83.1006221 510.85,85.46 L510.85,85.46 Z M508.98,85.52 C508.832802,84.2216394 507.677741,83.2770954 506.376002,83.3905965 C505.074263,83.5040975 504.100103,84.6342923 504.179831,85.9385357 C504.259559,87.2427791 505.364128,88.2459016 506.67,88.2 C507.339553,88.1673331 507.966778,87.8628411 508.4066,87.3569508 C508.846423,86.8510605 509.060746,86.1875917 509,85.52 L508.98,85.52 Z" id="Shape" fill="#D7E6F2"></path>
                    <g id="Clipped" transform="translate(502.000000, 81.000000)">
                        <mask id="mask-2" fill="white">
                            <use xlink:href="#path-1"></use>
                        </mask>
                        <g id="Shape"></g>
                        <g id="Group" mask="url(#mask-2)">
                            <g transform="translate(-261.000000, -1729.000000)">
                                <rect id="Rectangle" fill="#D7E6F2" transform="translate(422.196129, 1274.645380) rotate(-1.900000) translate(-422.196129, -1274.645380) " x="41.8761285" y="11.9303801" width="760.64" height="2525.43"></rect>
                                <g id="Clipped" stroke-width="1" fill="none">
                                    <mask id="mask-4" fill="white">
                                        <use xlink:href="#path-3"></use>
                                    </mask>
                                    <g id="Rectangle" transform="translate(422.196129, 1274.645380) rotate(-1.900000) translate(-422.196129, -1274.645380) "></g>
                                    <rect id="Rectangle" fill="#D7E6F2" mask="url(#mask-4)" transform="translate(265.564305, 1733.610978) rotate(-1.900000) translate(-265.564305, -1733.610978) " x="258.659305" y="1726.67098" width="13.81" height="13.88"></rect>
                                </g>
                            </g>
                        </g>
                    </g>
                    <path d="M520,85.16 C520.053808,87.5064588 518.199531,89.4543961 515.853269,89.5161855 C513.507007,89.5779748 511.552773,87.7303355 511.483002,85.3842971 C511.413232,83.0382586 513.254212,81.0777508 515.6,81 C516.735991,80.965035 517.839049,81.3843895 518.664904,82.1651976 C519.490759,82.9460057 519.97126,84.0238349 520,85.16 M518.14,85.22 C517.998046,83.9196054 516.844651,82.9698828 515.541183,83.0800956 C514.237714,83.1903085 513.260158,84.3202106 513.338565,85.6259783 C513.416972,86.9317459 514.522709,87.9365538 515.83,87.89 C516.494097,87.8519622 517.114482,87.5466082 517.549702,87.0435623 C517.984921,86.5405164 518.197873,85.8826627 518.14,85.22" id="Shape" fill="#D7E6F2"></path>
                    <g id="Clipped" transform="translate(511.000000, 80.000000)">
                        <mask id="mask-6" fill="white">
                            <use xlink:href="#path-5"></use>
                        </mask>
                        <g id="Shape"></g>
                        <g id="Group" mask="url(#mask-6)">
                            <g transform="translate(-270.000000, -1728.000000)">
                                <rect id="Rectangle" fill="#D7E6F2" transform="translate(422.196129, 1274.645380) rotate(-1.900000) translate(-422.196129, -1274.645380) " x="41.8761285" y="11.9303801" width="760.64" height="2525.43"></rect>
                                <g id="Clipped" stroke-width="1" fill="none">
                                    <mask id="mask-8" fill="white">
                                        <use xlink:href="#path-7"></use>
                                    </mask>
                                    <g id="Rectangle" transform="translate(422.196129, 1274.645380) rotate(-1.900000) translate(-422.196129, -1274.645380) "></g>
                                    <rect id="Rectangle" fill="#D7E6F2" mask="url(#mask-8)" transform="translate(274.759306, 1733.306447) rotate(-1.900000) translate(-274.759306, -1733.306447) " x="267.854306" y="1726.36645" width="13.81" height="13.88"></rect>
                                </g>
                            </g>
                        </g>
                    </g>
                    <path d="M528.72,80.84 L528.98,88.53 C529.08,91.69 527.28,93.04 525.09,93.12 C523.437707,93.17853 521.914955,92.2292819 521.24,90.72 L522.84,89.98 C523.204332,90.8660815 524.071999,91.440564 525.03,91.43 C526.43,91.43 527.27,90.49 527.22,88.85 L527.22,88.23 L527.15,88.23 C526.598175,88.8746996 525.788544,89.2410487 524.94,89.23 C522.635477,89.223457 520.749875,87.3934032 520.674445,85.0901059 C520.599015,82.7868086 522.360843,80.8373068 524.66,80.68 C525.510033,80.6327919 526.338566,80.9576356 526.93,81.57 L527,81.57 L527,80.86 L528.77,80.8 L528.72,80.84 Z M527.22,84.93 C527.252585,84.2788956 527.020001,83.6423656 526.575319,83.1656513 C526.130637,82.6889371 525.511795,82.4127105 524.86,82.4 C524.199548,82.4508718 523.586895,82.7638459 523.158596,83.2691632 C522.730297,83.7744804 522.521953,84.4301397 522.58,85.09 C522.566519,85.7501379 522.820058,86.387772 523.283163,86.8584072 C523.746268,87.3290424 524.379731,87.5928326 525.04,87.59 C525.688619,87.5429637 526.289413,87.2314656 526.701633,86.7284813 C527.113853,86.2254971 527.301279,85.5752228 527.22,84.93 L527.22,84.93 Z" id="Shape" fill="#D7E6F2"></path>
                    <g id="Clipped" transform="translate(520.000000, 80.000000)">
                        <mask id="mask-10" fill="white">
                            <use xlink:href="#path-9"></use>
                        </mask>
                        <g id="Shape"></g>
                        <g id="Group" mask="url(#mask-10)">
                            <g transform="translate(-279.000000, -1728.000000)">
                                <rect id="Rectangle" fill="#D7E6F2" transform="translate(422.196129, 1274.645380) rotate(-1.900000) translate(-422.196129, -1274.645380) " x="41.8761285" y="11.9303801" width="760.64" height="2525.43"></rect>
                                <g id="Clipped" stroke-width="1" fill="none">
                                    <mask id="mask-12" fill="white">
                                        <use xlink:href="#path-11"></use>
                                    </mask>
                                    <g id="Rectangle" transform="translate(422.196129, 1274.645380) rotate(-1.900000) translate(-422.196129, -1274.645380) "></g>
                                    <rect id="Rectangle" fill="#D7E6F2" mask="url(#mask-12)" transform="translate(278.642450, 1737.529650) rotate(-1.718358) translate(-278.642450, -1737.529650) " x="271.924429" y="1728.68067" width="13.4360421" height="17.6979587"></rect>
                                </g>
                            </g>
                        </g>
                    </g>
                    <rect id="Rectangle" fill="#D7E6F2" transform="translate(530.774543, 82.550140) rotate(-1.900000) translate(-530.774543, -82.550140) " x="529.864543" y="76.2701396" width="1.82" height="12.56"></rect>
                    <g id="Clipped" transform="translate(529.000000, 76.000000)">
                        <mask id="mask-14" fill="white">
                            <use xlink:href="#path-13"></use>
                        </mask>
                        <g id="Rectangle" transform="translate(1.774543, 6.550140) rotate(-1.900000) translate(-1.774543, -6.550140) "></g>
                        <g id="Group" mask="url(#mask-14)">
                            <g transform="translate(-288.000000, -1724.000000)">
                                <rect id="Rectangle" fill="#D7E6F2" transform="translate(422.196129, 1274.645380) rotate(-1.900000) translate(-422.196129, -1274.645380) " x="41.8761285" y="11.9303801" width="760.64" height="2525.43"></rect>
                                <g id="Clipped" stroke-width="1" fill="none">
                                    <mask id="mask-16" fill="white">
                                        <use xlink:href="#path-15"></use>
                                    </mask>
                                    <g id="Rectangle" transform="translate(422.196129, 1274.645380) rotate(-1.900000) translate(-422.196129, -1274.645380) "></g>
                                    <rect id="Rectangle" fill="#D7E6F2" mask="url(#mask-16)" transform="translate(289.774543, 1730.550140) rotate(-1.900000) translate(-289.774543, -1730.550140) " x="286.224543" y="1721.63014" width="7.1" height="17.84"></rect>
                                </g>
                            </g>
                        </g>
                    </g>
                    <path d="M538.92,85.94 L540.4,86.86 C539.416001,88.4564682 537.49831,89.2144591 535.688714,88.7221935 C533.879117,88.2299278 532.60967,86.6049375 532.57,84.73 C532.470605,83.6263015 532.826675,82.529937 533.555604,81.6952563 C534.284534,80.8605756 535.322969,80.3601229 536.43,80.31 C538.095448,80.3186354 539.581271,81.3583134 540.16,82.92 L540.37,83.4 L534.77,85.97 C535.15043,86.7728604 535.983657,87.2608932 536.87,87.2 C537.709189,87.1525151 538.464856,86.6764452 538.87,85.94 L538.92,85.94 Z M534.41,84.54 L538.16,82.83 C537.843241,82.2475282 537.210256,81.9094121 536.55,81.97 C535.930397,82.0209096 535.356521,82.3162909 534.955028,82.7909528 C534.553536,83.2656146 534.357433,83.880535 534.41,84.5 L534.41,84.54 Z" id="Shape" fill="#D7E6F2"></path>
                    <g id="Clipped" transform="translate(532.000000, 80.000000)">
                        <mask id="mask-18" fill="white">
                            <use xlink:href="#path-17"></use>
                        </mask>
                        <g id="Shape"></g>
                        <g id="Group" mask="url(#mask-18)">
                            <g transform="translate(-291.000000, -1728.000000)">
                                <rect id="Rectangle" fill="#D7E6F2" transform="translate(422.196129, 1274.645380) rotate(-1.900000) translate(-422.196129, -1274.645380) " x="41.8761285" y="11.9303801" width="760.64" height="2525.43"></rect>
                                <g id="Clipped" stroke-width="1" fill="none">
                                    <mask id="mask-20" fill="white">
                                        <use xlink:href="#path-19"></use>
                                    </mask>
                                    <g id="Rectangle" transform="translate(422.196129, 1274.645380) rotate(-1.900000) translate(-422.196129, -1274.645380) "></g>
                                    <rect id="Rectangle" fill="#D7E6F2" mask="url(#mask-20)" transform="translate(295.464545, 1732.605191) rotate(-1.900000) translate(-295.464545, -1732.605191) " x="288.899545" y="1725.68019" width="13.13" height="13.85"></rect>
                                </g>
                            </g>
                        </g>
                    </g>
                    <path d="M495.39,84.86 L495.33,83.04 L501.41,82.84 C501.479583,83.1994642 501.519717,83.5640073 501.53,83.93 C501.656878,85.5772169 501.083741,87.2016419 499.951275,88.4045306 C498.818808,89.6074194 497.231869,90.277395 495.58,90.25 C491.907306,90.3742641 488.829264,87.4976936 488.705,83.825 C488.580736,80.1523064 491.457306,77.0742641 495.13,76.95 C496.822287,76.8714586 498.474339,77.4810583 499.71,78.64 L498.48,79.96 C497.58269,79.1391606 496.394673,78.7107544 495.18,78.77 C493.91991,78.8168447 492.730157,79.3628028 491.872927,80.2875608 C491.015697,81.2123188 490.561346,82.4399788 490.61,83.7 L490.61,83.76 C490.659264,86.3851034 492.824813,88.4745894 495.45,88.43 L495.5,88.43 C496.751038,88.4372402 497.946546,87.9139783 498.79,86.99 C499.336995,86.3483999 499.653785,85.5423434 499.69,84.7 L495.39,84.85 L495.39,84.86 Z" id="Path" fill="#D7E6F2"></path>
                    <g id="Clipped" transform="translate(488.000000, 76.000000)">
                        <mask id="mask-22" fill="white">
                            <use xlink:href="#path-21"></use>
                        </mask>
                        <g id="Path"></g>
                        <g id="Group" mask="url(#mask-22)">
                            <g transform="translate(-247.000000, -1724.000000)">
                                <rect id="Rectangle" fill="#D7E6F2" transform="translate(422.196129, 1274.645380) rotate(-1.900000) translate(-422.196129, -1274.645380) " x="41.8761285" y="11.9303801" width="760.64" height="2525.43"></rect>
                                <g id="Clipped" stroke-width="1" fill="none">
                                    <mask id="mask-24" fill="white">
                                        <use xlink:href="#path-23"></use>
                                    </mask>
                                    <g id="Rectangle" transform="translate(422.196129, 1274.645380) rotate(-1.900000) translate(-422.196129, -1274.645380) "></g>
                                    <rect id="Rectangle" fill="#D7E6F2" mask="url(#mask-24)" transform="translate(254.059817, 1731.618520) rotate(-1.900000) translate(-254.059817, -1731.618520) " x="244.979817" y="1722.32352" width="18.16" height="18.59"></rect>
                                </g>
                            </g>
                        </g>
                    </g>
                    <path d="M480.38,94.87 C503.887908,92.4593143 527.529156,91.6007866 551.15,92.3 C551.79,92.3 551.79,91.3 551.15,91.3 C527.529156,90.6007866 503.887908,91.4593143 480.38,93.87 C479.75,93.94 479.74,94.94 480.38,94.87 L480.38,94.87 Z" id="Path" fill="#D7E6F2"></path>
                    <rect id="Rectangle" stroke="#D7E6F2" fill="#FFFFFF" stroke-linecap="round" stroke-linejoin="round" x="158.93" y="50.31" width="5.25" height="5.25"></rect>
                    <path d="M170.75,52.94 L199.8,52.94" id="Path" stroke="#D7E6F2" fill="#FFFFFF" stroke-linecap="round" stroke-linejoin="round"></path>
                    <rect id="Rectangle" stroke="#D7E6F2" fill="#FFFFFF" stroke-linecap="round" stroke-linejoin="round" x="158.93" y="60.82" width="5.25" height="5.25"></rect>
                    <path d="M170.75,63.44 L193.24,63.44" id="Path" stroke="#D7E6F2" fill="#FFFFFF" stroke-linecap="round" stroke-linejoin="round"></path>
                    <rect id="Rectangle" stroke="#D7E6F2" fill="#FFFFFF" stroke-linecap="round" stroke-linejoin="round" x="158.93" y="71.32" width="5.25" height="5.25"></rect>
                    <path d="M170.75,73.95 L199.8,73.95" id="Path" stroke="#D7E6F2" fill="#FFFFFF" stroke-linecap="round" stroke-linejoin="round"></path>
                    <rect id="Rectangle" stroke="#D7E6F2" fill="#FFFFFF" stroke-linecap="round" stroke-linejoin="round" x="158.93" y="81.83" width="5.25" height="5.25"></rect>
                    <path d="M170.75,84.45 L199.8,84.45" id="Path" stroke="#D7E6F2" fill="#FFFFFF" stroke-linecap="round" stroke-linejoin="round"></path>
                    <rect id="Rectangle" stroke="#D7E6F2" fill="#FFFFFF" stroke-linecap="round" stroke-linejoin="round" x="158.93" y="92.33" width="5.25" height="5.25"></rect>
                    <path d="M170.75,94.96 L189.13,94.96" id="Path" stroke="#D7E6F2" fill="#FFFFFF" stroke-linecap="round" stroke-linejoin="round"></path>
                    <path d="M156.25,48.3 L159.83,52.52 C160.3,53.07 160.97,54.27 161.83,54.31 C162.69,54.35 163.02,53.68 163.46,53.24 C164.76,51.96 166.02,50.65 167.3,49.35 C167.75,48.9 167.04,48.19 166.59,48.65 C165.75,49.49 162.79,53.41 161.59,53.02 C160.97,52.82 159.99,51.13 159.59,50.61 L157.03,47.61 C156.61,47.12 155.91,47.83 156.32,48.32 L156.25,48.3 Z" id="Path" fill="#D7E6F2"></path>
                    <path d="M156.15,59.74 L160.58,64.94 C160.774422,65.1305714 161.085578,65.1305714 161.28,64.94 L167,60.05 C167.49,59.63 166.78,58.92 166.29,59.34 L160.58,64.23 L161.28,64.23 L156.86,59.03 C156.44,58.54 155.73,59.25 156.15,59.74 L156.15,59.74 Z" id="Path" fill="#D7E6F2"></path>
                    <rect id="Rectangle" stroke="#D7E6F2" stroke-linecap="round" stroke-linejoin="round" x="147.46" y="36.4" width="64.06" height="74.68" rx="4"></rect>
                    <path d="M0.5,389.61 L8.92,389.61" id="Path" stroke="#19243B" stroke-linecap="round" stroke-linejoin="round"></path>
                    <path d="M816.86,389.61 L825.28,389.61" id="Path" stroke="#19243B" fill="#FFFFFF" stroke-linecap="round" stroke-linejoin="round"></path>
                    <path d="M862.39,389.61 L883.59,389.61" id="Path" stroke="#19243B" fill="#FFFFFF" stroke-linecap="round" stroke-linejoin="round"></path>
                    <path d="M491.33,105.8 C494.47198,105.035776 497.668064,104.51424 500.89,104.24 C501.53,104.24 501.53,103.24 500.89,103.24 C497.576215,103.512846 494.28926,104.047854 491.06,104.84 C490.43,104.98 490.7,105.94 491.33,105.84 L491.33,105.8 Z" id="Path" fill="#D7E6F2"></path>
                    <path d="M490.71,105.19 C489.91945,108.749885 490.589449,112.47811 492.57,115.54 C492.91,116.08 493.78,115.54 493.43,115.03 C491.584173,112.201113 490.953527,108.748774 491.68,105.45 C491.81,104.83 490.84,104.56 490.68,105.19 L490.71,105.19 Z" id="Path" fill="#D7E6F2"></path>
                    <path d="M492.67,116.5 C496.723943,116.588399 500.758071,115.909824 504.56,114.5 C505.16,114.28 504.9,113.32 504.29,113.5 C500.571639,114.864153 496.629546,115.515514 492.67,115.42 C492.393858,115.42 492.17,115.643858 492.17,115.92 C492.17,116.196142 492.393858,116.42 492.67,116.42 L492.67,116.5 Z" id="Path" fill="#D7E6F2"></path>
                    <path d="M500.39,103.74 C500.66,107.29 501.39,111.19 504.1,113.74 C504.57,114.18 505.28,113.47 504.8,113.03 C502.28,110.7 501.64,107.03 501.39,103.77 C501.34,103.13 500.34,103.13 500.39,103.77 L500.39,103.74 Z" id="Path" fill="#D7E6F2"></path>
                    <path d="M516.15,120.33 C519.294287,119.55844 522.494007,119.033512 525.72,118.76 C526.36,118.76 526.36,117.76 525.72,117.76 C522.406817,118.03775 519.120245,118.572695 515.89,119.36 C515.26,119.5 515.53,120.47 516.15,120.36 L516.15,120.33 Z" id="Path" fill="#D7E6F2"></path>
                    <path d="M515.54,119.71 C514.751065,123.268647 515.417129,126.995009 517.39,130.06 C517.74,130.6 518.61,130.06 518.26,129.55 C516.416613,126.723937 515.782693,123.276995 516.5,119.98 C516.64,119.35 515.67,119.08 515.5,119.71 L515.54,119.71 Z" id="Path" fill="#D7E6F2"></path>
                    <path d="M517.49,131 C521.544048,131.089847 525.578446,130.411226 529.38,129 C529.98,128.79 529.72,127.82 529.12,128 C525.397751,129.363494 521.453142,130.018103 517.49,129.93 C516.85,129.93 516.85,130.93 517.49,130.93 L517.49,131 Z" id="Path" fill="#D7E6F2"></path>
                    <path d="M525.22,118.26 C525.49,121.81 526.22,125.71 528.92,128.26 C529.4,128.7 530.11,127.99 529.63,127.56 C527.1,125.23 526.47,121.56 526.22,118.29 C526.17,117.66 525.17,117.65 525.22,118.29 L525.22,118.26 Z" id="Path" fill="#D7E6F2"></path>
                    <rect id="Rectangle" stroke="#19243B" fill="#D7E6F2" stroke-linecap="round" stroke-linejoin="round" x="548.61" y="296.38" width="3.37" height="93.22"></rect>
                    <rect id="Rectangle" stroke="#19243B" fill="#D7E6F2" stroke-linecap="round" stroke-linejoin="round" x="532.53" y="296.38" width="3.37" height="93.22"></rect>
                    <polygon id="Path" stroke="#19243B" fill="#D7E6F2" stroke-linecap="round" stroke-linejoin="round" points="278.21 389.61 274.84 389.61 314.44 247.67 322.86 247.67"></polygon>
                    <polygon id="Path" stroke="#19243B" fill="#D7E6F2" stroke-linecap="round" stroke-linejoin="round" points="535.17 389.61 538.54 389.61 498.95 247.67 490.52 247.67"></polygon>
                    <path d="M451.83,190.29 L446.56,156.59 C446.408064,155.617132 446.689218,154.626477 447.329552,153.878459 C447.969885,153.130442 448.905339,152.699895 449.89,152.7 L463.71,152.7" id="Path" stroke="#19243B" stroke-linecap="round" stroke-linejoin="round"></path>
                    <rect id="Rectangle" stroke="#19243B" stroke-linecap="round" stroke-linejoin="round" x="478.91" y="44.46" width="4.04" height="4.93"></rect>
                    <rect id="Rectangle" stroke="#19243B" stroke-linecap="round" stroke-linejoin="round" x="486.32" y="40.01" width="4.04" height="9.37"></rect>
                    <rect id="Rectangle" stroke="#19243B" stroke-linecap="round" stroke-linejoin="round" x="493.73" y="42.48" width="4.04" height="6.91"></rect>
                    <rect id="Rectangle" stroke="#19243B" stroke-linecap="round" stroke-linejoin="round" x="500.47" y="35.57" width="4.04" height="13.82"></rect>
                    <rect id="Rectangle" stroke="#19243B" stroke-linecap="round" stroke-linejoin="round" x="507.89" y="30.15" width="4.04" height="19.24"></rect>
                    <path d="M297,364.94 C297,364.94 301.84,376.66 302.53,377.68 L309,375 C309,375 308.16,371.89 309,371.67 C313.607462,371.577954 318.171031,370.754352 322.52,369.23 C329.95,366.73 336.98,361.01 336.42,360.13 C335.3,358.36 325.64,360.41 317.04,360.13 C308.44,359.85 306.45,358.13 304.98,357.92 C304.114617,357.843482 303.275443,358.240604 302.78591,358.958309 C302.296377,359.676014 302.232922,360.602238 302.62,361.38 C303.48,363.53 300.21,364.51 297,364.94 Z" id="Path" stroke="#19243B" fill="#D7E6F2" stroke-linecap="round" stroke-linejoin="round"></path>
                    <path d="M232.42,377.71 L232.92,370.33" id="Path" stroke="#19243B" stroke-linecap="round" stroke-linejoin="round"></path>
                    <path d="M243.01,375.01 L243.01,369.36" id="Path" stroke="#19243B" stroke-linecap="round" stroke-linejoin="round"></path>
                    <path d="M227.71,389 C227.71,389.1 227.71,389.19 227.66,389.28 C227.61,389.37 227.66,389.36 227.66,389.41 C227.66,389.46 227.66,389.25 227.66,389.16 C227.66,388.84 227.66,388.51 227.66,388.16 L227.66,387.99 C227.66,388.34 227.68,388.67 227.71,389 Z" id="Path" stroke="#19243B" stroke-linecap="round" stroke-linejoin="round"></path>
                    <path d="M227.77,389.61 C227.719757,389.505001 227.682805,389.394145 227.66,389.28 L227.66,389.16 C227.621647,388.82777 227.621647,388.49223 227.66,388.16" id="Path" stroke="#19243B" stroke-linecap="round" stroke-linejoin="round"></path>
                    <path d="M243,375 C242.84,374.45 241.62,374.82 240.42,374.81 C235.42,374.81 234.2,377.61 232,377.81 C231.362208,381.230512 231.027576,384.700644 231,388.18 L231,388.01 C231,388.34 231,388.67 231.07,389.01 C231.14,389.35 231.07,389.42 231.13,389.62 L254.13,389.62 C253.38,387.05 250.89,385.16 248.67,383.9 C248.69,383.89 245.25,383 243,375 Z" id="Path" stroke="#19243B" fill="#D7E6F2" stroke-linecap="round" stroke-linejoin="round"></path>
                    <path d="M199,294.08 C193.49,294.8 189.22,295.29 189.22,295.29 C186.66,295.29 187.12,283.66 187.12,283.66 C187.12,283.66 188.12,267.05 188.59,263.66" id="Path" stroke="#19243B" stroke-linecap="round" stroke-linejoin="round"></path>
                    <path d="M252.36,291 C228.36,289.74 219.68,299.9 203.67,301" id="Path" stroke="#19243B" stroke-linecap="round" stroke-linejoin="round"></path>
                    <path d="M252.36,291 C252.36,291 266.51,291.24 267.59,291.6 C269,292.05 273.37,293.21 277.46,312.6 C277.46,312.6 284.21,332.6 288.68,340.08" id="Path" stroke="#19243B" stroke-linecap="round" stroke-linejoin="round"></path>
                    <path d="M585.25,243.1 L605.79,235.54 C609.09,234.32 612.41,233.14 615.7,231.89 C618.99,230.64 620.08,228.48 620.65,225.31 L622.97,212.62 C623.09,211.99 622.12,211.72 621.97,212.35 L620.07,222.75 C619.43,226.27 619.07,229.52 615.25,230.97 C607.8,233.79 600.31,236.48 592.84,239.23 L584.94,242.14 C584.34,242.36 584.6,243.33 585.21,243.14 L585.25,243.1 Z" id="Path" fill="#19243B"></path>
                    <polygon id="Path" stroke="#19243B" stroke-linecap="round" stroke-linejoin="round" points="290.18 150.98 281.05 160.12 277.28 156.36 275.38 158.26 281.05 163.92 292.08 152.88"></polygon>
                    <path d="M400.75,382 C400.75,382 406.23,385.36 405.59,389.57" id="Path" stroke="#19243B" stroke-linecap="round" stroke-linejoin="round"></path>
                    <path d="M455,382.28 C455,382.28 457.85,387.22 457.87,389.61" id="Path" stroke="#19243B" stroke-linecap="round" stroke-linejoin="round"></path>
                    <path d="M575,181 C570.46,184.25 575.43,190.57 575.43,190.57 C575.43,190.57 581.27,202.71 595.31,193.31 C595.31,193.31 605.61,186.6 605.42,182.88" id="Path" stroke="#19243B" stroke-linecap="round" stroke-linejoin="round"></path>
                    <path d="M613.86,134.91 C613.86,134.91 619.33,135.65 620.18,140.7" id="Path" stroke="#19243B" stroke-linecap="round" stroke-linejoin="round"></path>
                    <path d="M563.35,238.41 C565.072344,235.553069 568.596063,234.343371 571.71,235.54 C577.58,237.54 579.64,238.23 579.89,242.62" id="Path" stroke="#19243B" stroke-linecap="round" stroke-linejoin="round"></path>
                    <path d="M257.6,104.1 C250.100597,107.714636 242.944599,112.00221 236.22,116.91 C235.71,117.29 236.22,118.14 236.73,117.78 C243.899088,112.911091 251.590224,108.859241 259.66,105.7 L259.28,104.79 C252.130419,109.348289 245.349601,114.460651 239,120.08 C238.57,120.46 239.12,121.13 239.61,120.86 C246.536589,117.001454 253.751475,113.68488 261.19,110.94 L260.81,110.03 C254.534342,113.627382 248.576181,117.752262 243,122.36 C242.55,122.74 243.13,123.36 243.61,123.15 C250.604322,119.499268 257.943603,116.551497 265.52,114.35 L265.14,113.44 L246.04,127.44 C245.53,127.82 245.98,128.65 246.54,128.31 C253.55869,123.979265 261.10796,120.574362 269,118.18 L268.51,117.34 L254.65,128.67 C254.15,129.08 254.86,129.78 255.36,129.38 L269.22,118.05 C269.61,117.72 269.22,117.05 268.73,117.21 C260.7506,119.644465 253.117853,123.096174 246.02,127.48 L246.52,128.35 L265.62,114.35 C266.05,114.04 265.82,113.27 265.23,113.44 C257.572897,115.664477 250.156313,118.64585 243.09,122.34 L243.69,123.12 C249.200355,118.567854 255.088286,114.493138 261.29,110.94 C261.77,110.67 261.45,109.83 260.9,110.03 C253.377768,112.791037 246.082316,116.134507 239.08,120.03 L239.69,120.81 C245.973297,115.252999 252.680287,110.194337 259.75,105.68 C260.2,105.39 259.92,104.55 259.37,104.77 C251.213238,107.948604 243.438115,112.030712 236.19,116.94 L236.7,117.81 C243.428299,112.897146 250.591408,108.609322 258.1,105 C258.68,104.72 258.17,103.86 257.6,104.13 L257.6,104.1 Z" id="Path" fill="#D7E6F2"></path>
                    <path d="M238.57,205.7 L240.5,214.25" id="Path" stroke="#19243B" stroke-linecap="round" stroke-linejoin="round"></path>
                    <path d="M237.62,386 C237.62,386 242.11,384.17 244.36,384" id="Path" stroke="#19243B" stroke-linecap="round" stroke-linejoin="round"></path>
                    <path d="M163.31,298.11 C156.97,295.83 156.4,292.8 156.4,292.8 C143.73,274.8 135.4,221.15 133.98,206.53 C132.56,191.91 140.81,187.03 143.24,185.08 C145.67,183.13 177.78,184.08 177.78,184.08 C180.376753,183.97726 182.957159,184.534628 185.28,185.7" id="Path" stroke="#19243B" stroke-linecap="round" stroke-linejoin="round"></path>
                    <path d="M186.23,300.6 L199.86,300.6" id="Path" stroke="#19243B" stroke-linecap="round" stroke-linejoin="round"></path>
                    <path d="M166.68,299.11 C171.789771,300.196614 177.006862,300.696515 182.23,300.6 L182.86,300.6" id="Path" stroke="#19243B" stroke-linecap="round" stroke-linejoin="round"></path>
                    <polygon id="Path" fill="#A9C4D3" points="314.44 247.67 322.86 247.67 320.62 254.8 312.45 254.8"></polygon>
                    <polygon id="Path" fill="#A9C4D3" points="498.95 247.67 490.52 247.67 492.76 254.8 500.94 254.8"></polygon>
                    <polygon id="Path" stroke="#19243B" stroke-linecap="round" stroke-linejoin="round" points="278.21 389.61 274.84 389.61 314.44 247.67 322.86 247.67"></polygon>
                    <polygon id="Path" stroke="#19243B" stroke-linecap="round" stroke-linejoin="round" points="535.17 389.61 538.54 389.61 498.95 247.67 490.52 247.67"></polygon>
                    <rect id="Rectangle" fill="#D7E6F2" x="709.76" y="382.28" width="60.49" height="2.26"></rect>
                    <rect id="Rectangle" fill="#D7E6F2" x="708.92" y="333.88" width="60.49" height="2.26"></rect>
                    <rect id="Rectangle" fill="#D7E6F2" x="708.92" y="285.48" width="60.49" height="2.26"></rect>
                    <rect id="Rectangle" stroke="#19243B" stroke-linecap="round" stroke-linejoin="round" x="708.92" y="344.44" width="60.49" height="37.83"></rect>
                    <path d="M713.24,344.44 C713.24,344.44 713.69,338.19 716.24,337.77 L766.73,339.65 C765.68966,341.013199 765.298633,342.763685 765.66,344.44 L713.24,344.44 Z" id="Path" stroke="#19243B" fill="#D7E6F2" stroke-linecap="round" stroke-linejoin="round"></path>
                    <ellipse id="Oval" stroke="#19243B" fill="#D7E6F2" stroke-linecap="round" stroke-linejoin="round" cx="739.16" cy="363.36" rx="4.16" ry="2.35"></ellipse>
                    <rect id="Rectangle" stroke="#19243B" stroke-linecap="round" stroke-linejoin="round" x="708.92" y="247.64" width="60.49" height="37.83"></rect>
                    <ellipse id="Oval" stroke="#19243B" fill="#D7E6F2" stroke-linecap="round" stroke-linejoin="round" cx="739.16" cy="266.56" rx="4.16" ry="2.35"></ellipse>
                    <path d="M702.1,239.23 L702.1,389.61 L776.22,389.61 L776.22,239.23 L702.1,239.23 Z M765.1,299.79 L723.22,302 C722.9,299.06 722.96,297.72 722.69,296 L713.23,296 C713.23,296 712.03,289.34 718.34,289.34 L718.42,289.34 L761.42,292.29 C763.159938,292.784217 764.474319,294.214573 764.82,295.99 C765.005751,297.24859 765.109304,298.517945 765.13,299.79 L765.1,299.79 Z" id="Shape" stroke="#19243B" stroke-linecap="round" stroke-linejoin="round"></path>
                    <path d="M722.69,296 L713.23,296 C713.23,296 712.03,289.34 718.34,289.34 L718.42,289.34 C718.94,289.48 721.77,290.21 722.69,296 Z" id="Path" stroke="#19243B" fill="#D7E6F2" stroke-linecap="round" stroke-linejoin="round"></path>
                    <path d="M713.23,296 L708.91,296 L708.91,333.84 L769.4,333.84 L769.4,296 L764.8,296 C764.990297,297.241631 765.100525,298.494217 765.13,299.75 L724.34,302" id="Path" stroke="#19243B" stroke-linecap="round" stroke-linejoin="round"></path>
                    <ellipse id="Oval" stroke="#19243B" fill="#D7E6F2" stroke-linecap="round" stroke-linejoin="round" cx="739.16" cy="314.96" rx="4.16" ry="2.35"></ellipse>
                    <path d="M297.85,364.81 L293.21,355.47" id="Path" stroke="#19243B" fill="#FFFFFF" stroke-linecap="round" stroke-linejoin="round"></path>
                    <path d="M304.16,357.94 L301.33,350.86" id="Path" stroke="#19243B" fill="#FFFFFF" stroke-linecap="round" stroke-linejoin="round"></path>
                    <path d="M642.47,335.25 C642.47,335.25 653.47,337.13 653.82,334.97 C653.82,334.97 656.77,333.9 646.82,329.34" id="Path" stroke="#19243B" stroke-linecap="round" stroke-linejoin="round"></path>
                    <path d="M593.65,288 C593.65,288 599.17,286.84 600.39,283.15" id="Path" stroke="#19243B" stroke-linecap="round" stroke-linejoin="round"></path>
                    <path d="M572.81,283.22 C572.81,283.22 585.64,282.22 589.43,286.9 C593.22,291.58 595.33,303.06 595.33,303.06 C595.917254,314.446136 595.669926,325.859991 594.59,337.21 C593.77,346.45 592.59,379.46 592.59,379.46 C592.59,379.46 597.3,383.46 597.59,389.61" id="Path" stroke="#19243B" fill="#FFFFFF" stroke-linecap="round" stroke-linejoin="round"></path>
                    <path d="M545.94,296.38 L531.44,296.38 C529.982717,296.379712 528.710895,295.391889 528.35,293.98 C526.13,285.11 519.98,254.8 540.05,254.8 L554.6,254.8 C554.6,254.8 559.55,250.39 560.53,247.68" id="Path" stroke="#19243B" stroke-linecap="round" stroke-linejoin="round"></path>
                    <path d="M223.62,295.79 C223.62,295.79 241.55,299.06 243.87,302.01 C246.19,304.96 244.87,304.7 243.87,313.25 C242.87,321.8 237.62,367.81 237.62,367.81" id="Path" stroke="#19243B" stroke-linecap="round" stroke-linejoin="round"></path>
                    <path d="M271.35,240.09 C271.35,240.09 269.73,237.78 274.7,235.46 C274.7,235.46 280.48,232.79 285.23,235.74 C289.98,238.69 286.9,240.09 286.9,240.09 L271.35,240.09 L271.35,240.09 Z" id="Path" stroke="#19243B" fill="#FFFFFF" stroke-linecap="round" stroke-linejoin="round"></path>
                    <path d="M273.27,236.24 C273.27,236.24 262.79,232.81 258.86,232.08" id="Path" stroke="#19243B" fill="#FFFFFF" stroke-linecap="round" stroke-linejoin="round"></path>
                    <path d="M554.05,294.71 C554.05,294.71 547.05,289.88 544.55,284.36" id="Path" stroke="#19243B" stroke-linecap="round" stroke-linejoin="round"></path>
                    <path d="M566.68,184.38 C566.68,184.38 560.74,174.47 567.9,168.93 C575.06,163.39 571.23,155.07 571.23,155.07" id="Path" stroke="#19243B" stroke-linecap="round" stroke-linejoin="round"></path>
                    <path d="M205.54,295.4 C205.54,295.4 217.96,291.27 226.6,289.69" id="Path" stroke="#19243B" stroke-linecap="round" stroke-linejoin="round"></path>
                    <path d="M307.2,375.75 C307.2,375.75 305.07,371.52 306.9,371.75 C308.73,371.98 309.03,371.65 309.03,371.65" id="Path" stroke="#19243B" stroke-linecap="round" stroke-linejoin="round"></path>
                    <path d="M584.26,303.49 C584.26,303.49 584.97,307.39 592.54,305.98" id="Path" stroke="#19243B" stroke-linecap="round" stroke-linejoin="round"></path>
                    <path d="M546.68,266.15 C543.6,269.52 539.47,278.87 541.85,285.48 C543.138985,289.00601 545.283102,292.156899 548.09,294.65 C548.58,295.08 548.94,295.39 549.23,295.65 C551.23,297.24 555.62,297.41 558.1,297.83 C558.1,297.83 569.7,299.55 572.27,299.97 C574.84,300.39 575.03,303.52 575.03,303.52 C577.74,318.67 577.44,319.52 577.44,319.52 C577.44,319.52 577.74,333.29 580.75,343.82 C583.25,352.56 584.33,379.04 584.33,379.04 C584.33,379.04 583.49,379.85 586.17,381.35 C589.85,383.41 592.62,379.52 592.62,379.52" id="Path" stroke="#19243B" fill="#FFFFFF" stroke-linecap="round" stroke-linejoin="round"></path>
                    <path d="M623.55,389.61 L803.1,389.61" id="Path" stroke="#19243B" fill="#FFFFFF" stroke-linecap="round" stroke-linejoin="round"></path>
                    <path d="M248.46,231.25 L249.13,238.87" id="Path" stroke="#19243B" stroke-linecap="round" stroke-linejoin="round"></path>
                    <path d="M576.24,386 C577.940006,384.635641 579.745682,383.40845 581.64,382.33" id="Path" stroke="#19243B" stroke-linecap="round" stroke-linejoin="round"></path>
                    <path d="M578.18,218.47 C578.3,218.72 573.18,222.37 566.77,220.47 C560.36,218.57 560.03,212.26 561.37,207.78" id="Path" stroke="#19243B" stroke-linecap="round" stroke-linejoin="round"></path>
                    <path d="M590.27,218.28 C590.27,218.28 591.92,222.89 595.82,223.46 C599.634448,224.047182 603.52131,223.022035 606.55,220.63" id="Path" stroke="#19243B" stroke-linecap="round" stroke-linejoin="round"></path>
                    <path d="M554.1,217.61 C554.1,217.61 556.74,219.75 557.04,218.61 C557.21,217.97 555.66,215.94 555.66,215.94 L554.1,217.61 Z" id="Path" stroke="#19243B" stroke-linecap="round" stroke-linejoin="round"></path>
                    <path d="M557.04,218.59 L560.53,214.81" id="Path" stroke="#19243B" stroke-linecap="round" stroke-linejoin="round"></path>
                    <path d="M554.1,213.7 C554.1,213.7 547.83,206.19 546.29,205.35 C544.75,204.51 546.95,208.46 546.95,208.46" id="Path" stroke="#19243B" stroke-linecap="round" stroke-linejoin="round"></path>
                    <path d="M545.73,205.35 C545.73,205.35 555.05,192.98 556.53,191.44" id="Path" stroke="#19243B" stroke-linecap="round" stroke-linejoin="round"></path>
                    <path d="M552.4,218.94 L548.29,224.1 C547.931588,224.54481 547.498451,224.923805 547.01,225.22 L527.01,236.54" id="Path" stroke="#19243B" stroke-linecap="round" stroke-linejoin="round"></path>
                    <path d="M527.55,227.52 L540.7,218.85 C541.489701,218.318907 542.168907,217.639701 542.7,216.85 L548.83,207.78" id="Path" stroke="#19243B" stroke-linecap="round" stroke-linejoin="round"></path>
                    <path d="M606.55,208.36 C606.69,210.89 607.05,215.36 607.05,215.36 C612.45,215.88 618.72,212.87 625.76,211.97 C625.76,211.97 627.76,213.6 622.29,214.24" id="Path" stroke="#19243B" stroke-linecap="round" stroke-linejoin="round"></path>
                    <path d="M577.74,238.05 L606.51,225.05 C607.809422,224.572072 608.742323,223.420342 608.94,222.05 L609.08,215.3" id="Path" stroke="#19243B" stroke-linecap="round" stroke-linejoin="round"></path>
                    <path d="M597.32,181.43 C597.32,181.43 609.74,181.54 617.02,186.26 C625.02,191.44 626.12,212.49 626.12,212.49" id="Path" stroke="#19243B" stroke-linecap="round" stroke-linejoin="round"></path>
                    <path d="M609.5,256.5 C609.5,256.5 605.44,249.5 607.24,234.5" id="Path" stroke="#19243B" fill="#FFFFFF" stroke-linecap="round" stroke-linejoin="round"></path>
                    <path d="M565.18,219.84 C565.18,219.84 565.6,232.97 564.85,236.54" id="Path" stroke="#19243B" stroke-linecap="round" stroke-linejoin="round"></path>
                    <path d="M692.06,51.92 L692.06,158.74" id="Path" stroke="#D7E6F2" stroke-linecap="round" stroke-linejoin="round"></path>
                    <path d="M538.59,254.8 C542.843318,255.711871 545.896329,259.450251 545.94,263.8" id="Path" stroke="#19243B" fill="#FFFFFF" stroke-linecap="round" stroke-linejoin="round"></path>
                    <path d="M560.37,258.09 C560.37,258.09 562.92,250.96 563.37,247.64" id="Path" stroke="#19243B" stroke-linecap="round" stroke-linejoin="round"></path>
                    <circle id="Oval" stroke="#19243B" fill="#FFFFFF" stroke-linecap="round" stroke-linejoin="round" cx="267.24" cy="175.2" r="2.95"></circle>
                    <path d="M472.34,63.24 C468.03,63.99 468.34,66.95 468.62,67.7 C468.930094,68.3215046 469.472622,68.7957678 470.13,69.02 C471.854875,69.9470905 473.895695,70.0855747 475.73,69.4 C477.48,68.57 478.53,66.18 477.42,64.59 C476.31,63 474.18,63.05 472.34,63.24" id="Path" fill="#FFFFFF"></path>
                    <path d="M472.21,62.76 C470.21,63.17 468.14,64.25 467.99,66.53 C467.82,69.1 470.72,70.09 472.87,70.31 C475.52,70.58 478.44,68.97 478.37,66 C478.29,62.87 474.73,62.52 472.37,62.74 C471.74,62.8 471.73,63.8 472.37,63.74 C474.2,63.57 477.52,63.56 477.37,66.22 C477.25,69.15 473.87,69.71 471.63,69.04 C470.21,68.62 468.63,67.87 469.04,66.2 C469.45,64.53 471.04,64.02 472.48,63.73 C473.11,63.6 472.84,62.63 472.21,62.73 L472.21,62.76 Z" id="Path" fill="#19243B"></path>
                    <path d="M509.86,103.74 C509.86,103.74 509.72,112.47 510.86,114.38 C510.86,114.38 521.86,113.79 522.44,111.79 C522.44,111.79 520.18,105.1 520.36,102.32 L509.86,103.74 Z" id="Path" stroke="#D7E6F2" stroke-linecap="round" stroke-linejoin="round"></path>
                    <path d="M548.54,103.74 C548.54,103.74 548.4,112.47 549.54,114.38 C549.54,114.38 560.54,113.79 561.12,111.79 C561.12,111.79 558.86,105.1 559.04,102.32 L548.54,103.74 Z" id="Path" stroke="#D7E6F2" stroke-linecap="round" stroke-linejoin="round"></path>
                    <path d="M526.72,102.88 C526.72,102.88 526.67,112.47 527.85,114.38 C527.85,114.38 538.85,113.79 539.43,111.79 C539.43,111.79 537.16,105.1 537.34,102.32 L526.72,102.88 Z" id="Path" stroke="#D7E6F2" fill="#D7E6F2"></path>
                    <path d="M499.63,120.07 C499.63,120.07 499.57,129.65 500.75,131.56 C500.75,131.56 511.75,130.97 512.33,128.97 C512.33,128.97 510.07,122.29 510.25,119.51 L499.63,120.07 Z" id="Path" stroke="#D7E6F2" fill="#D7E6F2"></path>
                    <path d="M227.77,389.61 L131.2,389.61" id="Path" stroke="#19243B" stroke-linecap="round" stroke-linejoin="round"></path>
                    <path d="M60.87,389.61 L107.2,389.61" id="Path" stroke="#19243B" stroke-linecap="round" stroke-linejoin="round"></path>
                    <path d="M38.12,389.61 L54.13,389.61" id="Path" stroke="#19243B" stroke-linecap="round" stroke-linejoin="round"></path>
                </g>
                <g id="shapes">
                    <rect id="Rectangle" fill="#E9F4FE" fill-rule="nonzero" transform="translate(1039.284271, 55.284271) rotate(-45.000000) translate(-1039.284271, -55.284271) " x="1019.28427" y="35.2842712" width="40" height="40"></rect>
                    <polygon id="Triangle" stroke="#19243B" stroke-linecap="round" stroke-linejoin="round" transform="translate(166.466433, 186.911777) rotate(-40.000000) translate(-166.466433, -186.911777) " points="166.466433 173.411777 184.466433 200.411777 148.466433 200.411777"></polygon>
                    <path d="M940.552559,173.526279 C940.552559,185.676544 950.402294,195.526279 962.552559,195.526279 C974.702823,195.526279 984.552559,185.676544 984.552559,173.526279 L940.552559,173.526279 Z" id="Path" stroke="#19243B" stroke-linecap="round" stroke-linejoin="round" transform="translate(962.552559, 184.526279) rotate(-30.000000) translate(-962.552559, -184.526279) "></path>
                    <path d="M202.764134,111.483164 C202.764134,119.21515 209.032148,125.483164 216.764134,125.483164 C224.496121,125.483164 230.764134,119.21515 230.764134,111.483164 L202.764134,111.483164 Z" id="Path" fill="#E9F4FE" fill-rule="nonzero" transform="translate(216.764134, 118.483164) rotate(55.000000) translate(-216.764134, -118.483164) "></path>
                    <rect id="Rectangle" fill="#E9F4FE" fill-rule="nonzero" transform="translate(24.627417, 92.627417) rotate(-45.000000) translate(-24.627417, -92.627417) " x="8.627417" y="76.627417" width="32" height="32"></rect>
                    <rect id="Rectangle" stroke="#19243B" stroke-linecap="round" stroke-linejoin="round" transform="translate(9.899495, 55.899495) rotate(-45.000000) translate(-9.899495, -55.899495) " x="2.89949494" y="48.8994949" width="14" height="14"></rect>
                    <circle id="Oval" fill="#E9F4FE" fill-rule="nonzero" cx="1072" cy="245" r="14"></circle>
                    <circle id="Oval" stroke="#19243B" stroke-linecap="round" stroke-linejoin="round" cx="1094" cy="270" r="6"></circle>
                    <circle id="Oval" stroke="#19243B" stroke-linecap="round" stroke-linejoin="round" cx="227" cy="84.0336727" r="6"></circle>
                    <circle id="Oval" stroke="#D7E6F2" stroke-linecap="round" stroke-linejoin="round" cx="128" cy="34" r="34"></circle>
                    <circle id="Oval" stroke="#D7E6F2" stroke-linecap="round" stroke-linejoin="round" cx="1118" cy="103" r="20"></circle>
                </g>
            </g>
        </g>
    </g>
</svg>