<svg width="1140" height="392" xmlns="http://www.w3.org/2000/svg" xmlns:xlink="http://www.w3.org/1999/xlink">
  <defs>
    <path d="M8.85 4.46c.06489075 2.35424058-1.78862254 4.31650399-4.14273752 4.38580196C2.35314751 8.91509994.3874176 7.06526341.31371266 4.71128229.2400077 2.35730117 2.08616099.38811167 4.44.31 6.79997756.24819906 8.76845603 2.10062212 8.85 4.46zm-1.87.06c-.14719779-1.29836061-1.30225855-2.24290462-2.60399775-2.12940355-1.30173921.11350107-2.27589963 1.24369584-2.19617152 2.54793925C2.25955883 6.24277912 3.36412845 7.24590159 4.67 7.2c.66955335-.03266693 1.29677752-.33715894 1.73660004-.84304922C6.84642255 5.85106051 7.0607464 5.18759171 7 4.52h-.02z" id="a"/>
    <path id="c" d="M41.8761285 11.9303801h760.64v2525.43h-760.64z"/>
    <path d="M9 5.16c.05380751 2.34645883-1.80046899 4.29439611-4.1467312 4.35618547C2.50700659 9.57797482.55277272 7.73033552.48300224 5.38429708.41323176 3.03825864 2.25421248 1.0777508 4.6 1c1.13599059-.03496502 2.23904942.38438953 3.06490409 1.16519759C8.49075877 2.94600565 8.97125972 4.02383488 9 5.16m-1.86.06c-.14195358-1.30039455-1.29534893-2.25011721-2.59881736-2.13990436-1.30346842.11021285-2.28102416 1.24011494-2.20261754 2.54588261C2.41697172 6.93174592 3.52270908 7.9365538 4.83 7.89c.66409657-.03803776 1.28448242-.34339184 1.71970188-.8464377C6.98492133 6.54051643 7.19787255 5.88266273 7.14 5.22" id="e"/>
    <path id="g" d="M41.8761285 11.9303801h760.64v2525.43h-760.64z"/>
    <path d="M8.72.84l.26 7.69c.1 3.16-1.7 4.51-3.89 4.59-1.65229251.05853-3.17504474-.8907181-3.85-2.4l1.6-.74c.36433196.8860815 1.23199861 1.460564 2.19 1.45 1.4 0 2.24-.94 2.19-2.58v-.62h-.07c-.5518249.64469965-1.36145638 1.01104873-2.21 1C2.63547723 9.22345696.74987466 7.39340318.67444504 5.09010589.59901542 2.78680861 2.36084307.83730682 4.66.68c.85003254-.04720806 1.67856635.2776356 2.27.89H7V.86L8.77.8l-.05.04zm-1.5 4.09c.03258463-.65110437-.19999922-1.28763438-.64468131-1.76434866C6.1306366 2.68893707 5.51179529 2.41271045 4.86 2.4c-.6604523.05087178-1.27310539.36384595-1.70140399.86916316C2.73029741 3.77448037 2.52195263 4.43013965 2.58 5.09c-.01348109.66013791.24005834 1.29777201.70316339 1.76840722C3.74626845 7.32904244 4.37973053 7.59283264 5.04 7.59c.64861869-.04703635 1.24941302-.35853442 1.66163319-.86151866C7.11385336 6.22549709 7.30127851 5.57522277 7.22 4.93z" id="i"/>
    <path id="k" d="M41.8761285 11.9303801h760.64v2525.43h-760.64z"/>
    <path id="m" d="M.86454253.27013956h1.82v12.56h-1.82z"/>
    <path id="o" d="M41.8761285 11.9303801h760.64v2525.43h-760.64z"/>
    <path d="M6.92 5.94l1.48.92c-.98399871 1.5964682-2.90169007 2.35445914-4.71128635 1.86219348C1.87911737 8.22992782.60966997 6.60493746.57 4.73c-.09939506-1.10369851.25667509-2.20006299.98560438-3.03474369C2.28453367.86057562 3.32296908.36012287 4.43.31c1.66544802.0086354 3.15127142 1.04831344 3.73 2.61l.21.48-5.6 2.57c.38043018.80286036 1.21365701 1.29089322 2.1 1.23.8391892-.04748487 1.59485579-.52355483 2-1.26h.05zm-4.51-1.4l3.75-1.71c-.31675872-.58247183-.94974352-.92058793-1.61-.86-.61960342.05090962-1.19347911.34629092-1.59497173.82095276C2.55353564 3.2656146 2.35743281 3.88053501 2.41 4.5v.04z" id="q"/>
    <path id="s" d="M41.8761285 11.9303801h760.64v2525.43h-760.64z"/>
    <path d="M7.39 8.86l-.06-1.82 6.08-.2a6.73000726 6.73000726 0 0 1 .12 1.09c.1268785 1.64721691-.446259 3.2716419-1.5787254 4.4745306C10.8188081 13.6074194 9.231869 14.277395 7.58 14.25 3.90730641 14.3742641.82926407 11.4976936.705 7.825.58073593 4.15230641 3.45730641 1.07426407 7.13.95c1.69228727-.07854138 3.3443386.53105833 4.58 1.69l-1.23 1.32c-.8973095-.82083944-2.08532651-1.24924558-3.3-1.19-1.26008975.04684474-2.44984335.59280282-3.30707336 1.5175608C3.01569663 5.21231878 2.5613458 6.43997882 2.61 7.7v.06c.04926439 2.6251034 2.21481307 4.7145894 4.84 4.67h.05c1.2510385.0072402 2.44654648-.5160217 3.29-1.44.5469946-.6416001.8637854-1.44765665.9-2.29l-4.3.15v.01z" id="u"/>
    <path id="w" d="M41.8761285 11.9303801h760.64v2525.43h-760.64z"/>
  </defs>
  <g fill="none" fill-rule="evenodd">
    <g transform="translate(163 1)">
      <path d="M433.24 109.15s5.17-1.76 6.13-6.5l-5.81 2.76c-.008863 1.253109-.115856 2.503599-.32 3.74z" fill="#D7E6F2"/>
      <path stroke="#19243B" fill="#D7E6F2" stroke-linecap="round" stroke-linejoin="round" d="M629.27 329.33v60.28h-3.37v-62.28M612.12 319.38v70.23h-3.37v-72.55"/>
      <path d="M527 228.54c-.67 1-1.25 1.29-1.68 1.15-.480823-.203862-.826657-.636154-.92-1.15-.035468-.429954.105299-.855864.39-1.18L524 224c4.5-.87 4.46 2.29 3 4.54z" stroke="#19243B" stroke-linecap="round" stroke-linejoin="round"/>
      <path d="M522.33 229.46l-1.22-4.65-1.29-4.86 3.12-.67L524 224l.79 3.41c-.284701.324136-.425468.750046-.39 1.18.093343.513846.439177.946138.92 1.15l3.12 12.93h-2.74l-.91-3" stroke="#19243B" stroke-linecap="round" stroke-linejoin="round"/>
      <path d="M519.28 227.88s5.62 2.1 7 4.07c1.38 1.97-1.9 10.67-4.15 10.67h-2.8s-9.88-12.21-.05-14.74z" stroke="#19243B" fill="#FFF" stroke-linecap="round" stroke-linejoin="round"/>
      <path d="M515.6 230.23s2.16-4.39 5.51-5.42" stroke="#19243B" stroke-linecap="round" stroke-linejoin="round"/>
      <path d="M179 228.62l32.71 8.1s-32.42-17.46-36.900328-19.45C174.77 217.27 178.4 224.53 179 228.62z" fill="#D7E6F2"/>
      <path d="M169.32 257.39s-12.53-46.46-8.35-51.69c5.11-6.41 10.52-5.84 10.52-5.84s-2.38 14.39 3.28 17.41c5.665698 12.556815 8.430772 26.228377 8.09 40l-13.54.12zM220.39 131.17s-4-2.51-5.86.23c-1.86 2.74-4.95.22-7.67-.9-2.72-1.12-4.09-.65-4.71 2.25-.778662 3.303954-2.236214 6.409766-4.28 9.12-.94-3-1.9-7.89.9-11.94 4.05-5.86 17.57-3.26 21.62 1.24zM719.66 296s2.58 1.6 3.56 6l-.53-6h-3.03zM630 172.64c-1.16 6.33-5.31 9.68-7.81 10.11-6.16 0-12 .06-15.4.11-3.049236-1.081031-6.277688-1.566487-9.51-1.43l1.37-25.31c3.84.13 5.85-3.3 5.07-5.43-.78-2.13-4.87-1.49-4.87-1.49s-2.56-1 0-8.23c.51-1.51-3.17.44-4.76.34-.968676-.012579-1.920877-.252341-2.78-.7-1.72-1-2.39-3.11-3.69-4.62-2.47-2.89-7.92-5-14-1.24-.501666 5.987039-.578525 12.002098-.23 18 .53 7.64 2.11 15.29 6.14 17.47l-.23 8.81-4.69 2-2.63 1.1-2.94 1.22s-.93.27-2.38.87c0 0-5.95-9.92 1.22-15.46 7.17-5.54 3.33-13.86 3.33-13.86-1.334942-.377251-2.293023-1.546908-2.4-2.93-.025736-1.420166.879313-2.690481 2.23-3.13-4.16-5-3.39-21.31-1-25 2.39-3.69 6.79-.77 6.79-.77 3.599547-3.919921 8.642234-6.202061 13.962839-6.31908 5.320604-.117019 10.458751 1.941207 14.227161 5.69908 2.44 2.44 4.28 5.84 3.69 9.24-.248787.794922-.317113 1.635331-.2 2.46.48 1.74 2.75 2 4.48 2.53 2.289852.773386 4.172411 2.43527 5.223852 4.61151 1.051442 2.176239 1.183393 4.683923.366148 6.95849-1 2.55-3.3 5.17-2.11 7.64.66 1.42 2.24 2.11 3.65 2.77 2.082483.840978 3.966119 2.10809 5.53 3.72 1.45 1.62 4.79 8.06 4.35 10.26z" fill="#D7E6F2"/>
      <path d="M579.45 174.53s14.4 2.53 15.88-9.93c0 0-4 9.44-15.78 5.83l-.1 4.1zM232.92 370.33s8.07 1.86 10.09-1v2.42s-5.92 2.07-10.34 1.58l.25-3zM294.65 358.37s5.13-2.84 7.41-5.69l-.73-1.82c-2.361832 2.077329-5.125796 3.646525-8.12 4.61l1.44 2.9z" fill="#D7E6F2"/>
      <path stroke="#19243B" fill="#D7E6F2" stroke-linecap="round" stroke-linejoin="round" d="M182.86 300.6h3.37v89.01h-3.37zM166.68 299.11v90.5h-3.37v-91.5a30.16994598 30.16994598 0 0 0 3.37 1zM223.05 304.51v85.1h-3.37V304c1.15.16 2.32.33 3.37.51z"/>
      <path d="M202.55 168.06s6.31 10 14.87 8.22V173s-5.93 2.86-14.87-4.94z" fill="#D7E6F2"/>
      <path d="M255.73 291c8.33.62 6.08 11.65 6.08 11.65s-15.73 56.47-16.89 65.21c-3.166772 3.107392-7.85076 4.091029-12 2.52" stroke="#19243B" fill="#FFF" stroke-linecap="round" stroke-linejoin="round"/>
      <path d="M219.68 304c-4.53-.66-10.7-2.69-19.82-3.39M223.05 304.51c4 .64 10.91 1.29 12.87 1.71 1.523176.324206 2.578595 1.715827 2.48 3.27l-5.48 60.85" stroke="#19243B" stroke-linecap="round" stroke-linejoin="round"/>
      <circle fill="#D7E6F2" cx="598.69" cy="56.97" r="22.27"/>
      <circle stroke="#D7E6F2" stroke-linecap="round" stroke-linejoin="round" cx="598.51" cy="56.97" r="26.71"/>
      <path fill="#D7E6F2" d="M459.15 379.97l-2.01 1.07 16.42 3.56-.65-4.16zM405.8 377.35l-.21 2.1 13.63 2.13-.89-4.23zM415.05 223.81s24.24 10.76 41.22 5.69c16.6-5 16.31-8.78 16.31-8.78L472 220c-1.49799 1.498464-3.391926 2.539089-5.46 3-5 1-12.35.57-15.93.58-6 0-7.17.42-15 .93-12.71.83-20-5.84-20-5.84l-.56 5.14zM454.36 249.08l-5.69 17.25 1.1 16.89s4.59-22.43 4.59-34.14z"/>
      <path stroke="#19243B" stroke-linecap="round" stroke-linejoin="round" d="M455.27 375.95v3.9l19.08.59v-5.62zM403.71 372.58h17.91v4.77h-17.91z"/>
      <path d="M457.87 375.79s-9.54-101-9.2-109.46l-29.08 106.25h-12.84s5.92-130.8 8.83-153.89M472.38 219.54s9.08 50.13-.38 155.42" stroke="#19243B" stroke-linecap="round" stroke-linejoin="round"/>
      <path d="M445.610088 145.81s.069912 9.61-3.730088 14.68c-2.07 2.78-6.58 5.53-12.07 11s-13.16 11.63-13.16 11.63l1.26-7.28s12.09-8.68 27.700088-30.03z" fill="#D7E6F2"/>
      <path d="M224.45 180.8c7.5 0 15.86 1 21 7.15 4.57 5.42 5.74 13.1 6.76 19.88.1.63 1.06.36 1-.27-1.07-7.1-2.36-15.09-7.31-20.66-5.34-6-13.81-7.1-21.41-7.1-.276142 0-.5.223858-.5.5s.223858.5.5.5h-.04zM245.17 266.36a167.81006494 167.81006494 0 0 1-.66-19.15c0-.65-1-.65-1 0a167.81006494 167.81006494 0 0 0 .66 19.15c0 .64 1 .64 1 0z" fill="#19243B"/>
      <path d="M272.62 152c-2.041508.62602-3.954859 1.61148-5.65 2.91-1.716252 1.336903-2.595357 3.483289-2.31 5.64.334449 1.301419 1.027384 2.482872 2 3.41 5.62 5.87 14.67 7.19 22.69 5.87 3.194621-.395814 6.25438-1.525255 8.94-3.3 2.701577-1.819984 4.387581-4.80662 4.55-8.06-.0915-2.323572-.898248-4.562213-2.31-6.41-3.87-5.47-10.7-8.48-17.4-8.39-6.757885.260223-13.20397 2.910949-18.19 7.48" fill="#FFF"/>
      <path d="M272.49 151.5c-3.17 1.19-6.76 2.64-8 6.08-1.2 3.24.84 6 3.23 8 5.72 4.85 13.77 5.89 21 4.87 6.49-.91 15-4.45 14.7-12.35-.29-7.19-7.79-12.54-14.15-14.19-8.84-2.28-17.86 1.1-24.58 6.9-.49.42.22 1.13.71.71 6.43-5.56 15.13-8.85 23.61-6.64 7.44 1.94 17.65 10.47 11.6 18.74-4.73 6.47-15.7 7.11-22.91 5.58-3.760724-.720872-7.247113-2.472722-10.07-5.06-2.12-2-3.32-4.66-1.59-7.36 1.5-2.34 4.28-3.36 6.76-4.29.6-.22.34-1.19-.26-1l-.05.01zM475.05 25.07c-5.87 2.19-12.62 4.94-14.68 11.48-2 6.25 3 11.37 7.56 14.85 10.32 7.82 24.24 9.39 36.73 7.62 12-1.69 28.22-8.58 26.54-23.39-1.5-13.21-15.51-22.46-27.48-25-15.5-3.27-31.25 2.84-42.9 13-.49.43.22 1.13.7.71 9.52-8.3 21.77-13.91 34.58-13.6 11.8.28 23.87 5.87 30.5 15.86 3.95 6 5 13 1.18 19.24-3.56 5.77-9.75 9-16.12 10.75-11 3-23.37 3-34.05-1-5.89-2.24-12.93-6.39-15.81-12.27-4.5-9.2 6.76-14.75 13.52-17.28.59-.22.33-1.19-.27-1v.03zM302.78 347.32c-2.83-9.61-5.95-19.13-8.76-28.74-2.54-8.68-4.5-17.47-7.36-26.06-1.51-4.53-3.1-9-4.82-13.49-1.63-4.21-3.63-7.88-7.94-9.78-4.31-1.9-9.35-2.17-13.94-2.59-5.652222-.497116-11.327039-.690727-17-.58-13.221225.393157-26.392995 1.797255-39.4 4.2-.63.11-.36 1.07.27 1a269.80984625 269.80984625 0 0 1 34.59-4c10.38-.44 21.63-.57 31.8 1.87 2.576208.491591 4.9651 1.689499 6.9 3.46 2 2 3 4.76 4 7.35 1.62 4.26 3.15 8.553333 4.59 12.88 2.67 8 4.52 16.19 6.85 24.3 2.94 10.21 6.27 20.31 9.28 30.51.048231.178633.188097.317965.366913.365513.178816.047547.369415-.003915.5-.135.130586-.131086.181318-.32188.133087-.500513l-.06-.06z" fill="#19243B"/>
      <path d="M579.55 170.43l-.22 8.81-10.26 4.27s-5.31.72-12.54 7.93M598.69 156.28l-1.44 26.6" stroke="#19243B" stroke-linecap="round" stroke-linejoin="round"/>
      <path d="M598.69 156.78c2.224614.096114 4.298885-1.121052 5.3-3.11.68-1.47.64-3.33-.86-4.27-.925072-.476182-1.961524-.693837-3-.63-.3 0-.7.09-1 .06-.56-.07 0 .13-.08 0-1.7-1.2-.55-4.86-.13-6.33.42-1.47.82-2.61-1.11-2.41-1.28.13-2.42.83-3.72.84-3 0-4-2.21-5.43-4.28-3.59-5.16-10.24-5.11-15.26-2.22-.240244.138071-.323071.444756-.185.685.138071.240244.444756.323071.685.185 3.2-1.84 6.86-2.65 10.33-1.07 2.68 1.21 3.54 3.4 5.29 5.55 1.214632 1.489503 3.084378 2.286015 5 2.13.881663-.125811 1.749053-.336798 2.59-.63 0 0 1.19-.36 1.22-.33.03.03-.68 2.27-.72 2.45-.37 1.56-1.11 5.31.9 6.29.58.29 1.39 0 2 0 1.8.1 3.34 1.19 2.65 3.16-.750779 1.815056-2.569169 2.955062-4.53 2.84-.276142 0-.5.223858-.5.5s.223858.5.5.5l.06.09z" fill="#19243B"/>
      <path d="M621.1 183.4c3.22.51 6.17-2.88 7.58-5.35 1.05-1.83 2.09-4.22 1.83-6.37-.398019-2.070978-1.152556-4.057134-2.23-5.87-.958515-2.095188-2.401546-3.932395-4.21-5.36-3.1-2.26-9.07-3.17-6.81-8.31 1.06-2.41 2.46-4.36 2.35-7.1-.127959-2.216521-.989914-4.327431-2.45-6-1.68-1.92-3.6-2.34-5.88-3.16-1.59-.57-2.25-1.23-2.27-3 0-.55.24-1.18.27-1.74.063413-1.367633-.172053-2.732652-.69-4-2.17-5.52-8.12-9.24-13.77-10.29-5.810659-1.038639-11.785276.509795-16.36 4.24-.39.32-1.19 1.41-1.45 1.55-.26.14.17 0-.41 0s-1.49-.66-2.17-.8c-1.609478-.37703-3.295949.160797-4.39 1.4-2.6 3-2.45 8.92-2.44 12.59 0 4.47.25 10 3.11 13.66.39.51 1.1-.2.71-.71-3.31-4.27-3.07-11.42-2.7-16.52.067323-2.360407.492151-4.696962 1.26-6.93 1.19-3 4.18-3.1 6.57-1.56.197617.116389.449078.083411.61-.08 6.176287-6.576847 16.084947-7.997116 23.86-3.42 3.76 2.25 7.52 6.22 7.26 10.91-.15 2.84-.75 4.57 2.43 5.66 1.66.57 3.26.83 4.67 2 1.534291 1.281477 2.591305 3.043166 3 5 .91 4.11-2.34 6.53-2.76 10.28-.33 2.9 1.89 4.22 4.19 5.32 3.187988 1.345095 5.812914 3.750984 7.43 6.81.914974 1.59626 1.620768 3.30361 2.1 5.08.46 2-.36 4.11-1.26 5.85-1.1 2.16-3.86 5.92-6.76 5.47-.63-.1-.9.86-.26 1l.04-.25z" fill="#19243B"/>
      <path d="M587.93 145.39c1.866133-1.014394 4.113954-1.036872 6-.06.57.29 1.08-.57.5-.87-2.200527-1.139096-4.822693-1.112874-7 .07-.57.3-.06 1.17.51.86h-.01zM576 142.21c1.58-.15 4.23-.29 5.23 1.24.35.54 1.22 0 .86-.5-1.23-1.9-4.09-1.93-6.09-1.74-.63.06-.64 1.07 0 1z" fill="#19243B"/>
      <path d="M343.05 194.95h21.27" stroke="#19243B" fill="#D7E6F2" stroke-linecap="round" stroke-linejoin="round"/>
      <rect fill="#D7E6F2" x="245.55" y="45.18" width="33.69" height="40.43" rx="4"/>
      <path d="M407.48 37.82c0 8.3615911-6.778409 15.14-15.14 15.14s-15.14-6.7784089-15.14-15.14c0-8.3615911 6.778409-15.14 15.14-15.14 1.929541-.0046359 3.841614.3655522 5.63 1.09l-5.63 14 15.14.05z" stroke="#D7E6F2" fill="#FFF" stroke-linecap="round" stroke-linejoin="round"/>
      <path d="M402.51 20.74c5.725923 2.2937004 9.487871 7.8317938 9.51 14h-15.14l5.63-14z" stroke="#D7E6F2" fill="#D7E6F2" stroke-linecap="round" stroke-linejoin="round"/>
      <path stroke="#D7E6F2" fill="#FFF" stroke-linecap="round" stroke-linejoin="round" d="M311.5 79.37h5.05v26.96h-5.05zM320.77 97.9h5.05v8.42h-5.05zM330.03 90.32h5.05v16.01h-5.05zM339.3 94.53h5.05v11.79h-5.05z"/>
      <path stroke="#D7E6F2" fill="#D7E6F2" stroke-linecap="round" stroke-linejoin="round" d="M347.72 82.73h5.05v23.59h-5.05z"/>
      <path stroke="#D7E6F2" fill="#FFF" stroke-linecap="round" stroke-linejoin="round" d="M356.99 73.47h5.05v32.85h-5.05z"/>
      <path stroke="#FFF" stroke-linecap="round" stroke-linejoin="round" d="M250.93 50.23h3.37v3.37h-3.37zM258.51 51.92h14.32M250.93 56.97h3.37v3.37h-3.37zM258.51 58.66h10.1M250.93 63.71h3.37v3.37h-3.37zM258.51 65.39h14.32M250.93 70.45h3.37v3.37h-3.37zM258.51 72.13h14.32M250.93 77.19h3.37v3.37h-3.37zM258.51 78.87h11.79"/>
      <path d="M267.45 94.52c.29 3.73 3 6.93 6.21 8.83 3.21 1.9 7 2.71 10.62 3.5" fill="#FFF"/>
      <path d="M267 94.52c1 8.58 10 11.25 17.2 12.81.63.13.9-.83.27-1-6.68-1.43-15.49-3.76-16.47-11.84-.08-.64-1.08-.64-1 0v.03z" fill="#D7E6F2"/>
      <path d="M589.76 130.2s8.48 5.59 14.77 1M193 202.33s27.35 13.48 35.55 22.91" stroke="#19243B" stroke-linecap="round" stroke-linejoin="round"/>
      <path d="M225.74 222.42s28.95-15.9 30.79-16c1.84-.1 7.82 1.68 10.11 5l-32.88 31.23h-11l-49.45-26.07c-2.5-3.12-3.85-15 .55-22.81 4.4-7.81 27.14-13.27 27.14-13.27M174.77 217.27c5.588385 12.581601 8.349903 26.235583 8.09 40M264.42 295.29s.72 3.63 5.92 20.19c5.2 16.56 21.05 40.4 21.05 40.4s5.27-.47 11.5-6.42M342.49 389.61h-92.42" stroke="#19243B" stroke-linecap="round" stroke-linejoin="round"/>
      <path d="M373.59 389.61H616.8" stroke="#19243B" fill="#FFF" stroke-linecap="round" stroke-linejoin="round"/>
      <path stroke="#D7E6F2" stroke-linecap="round" stroke-linejoin="round" d="M129.72 236.72h-10.73V.03h568.57v236.69h-27.12"/>
      <rect stroke="#19243B" fill="#D7E6F2" stroke-linecap="round" stroke-linejoin="round" x="215.86" y="242.62" width="374.84" height="5.05" rx="2.525"/>
      <path d="M360.28 242.62l-59.77.000299 10-39.950299c.567876-2.260819 2.598954-3.846955 4.93-3.85H371c.886486.001119 1.723064.410429 2.26799 1.109653.544926.699224.737476 1.610444.52201 2.470347l-9.23 36.92c-.490656 1.958198-2.261403 3.323494-4.28 3.3z" stroke="#19243B" fill="#D7E6F2" stroke-linecap="round" stroke-linejoin="round"/>
      <ellipse stroke="#19243B" fill="#FFF" stroke-linecap="round" stroke-linejoin="round" transform="rotate(-69.36 338.813226 221.317499)" cx="338.813226" cy="221.317499" rx="4.63" ry="3.3"/>
      <ellipse stroke="#19243B" fill="#FFF" stroke-linecap="round" stroke-linejoin="round" transform="rotate(-69.36 344.363416 214.456259)" cx="344.363416" cy="214.456259" rx="1.74" ry="1.24"/>
      <path stroke="#19243B" fill="#D7E6F2" stroke-linecap="round" stroke-linejoin="round" d="M300.51 242.62h-33.2v-2.53h33.78zM198.78 151.33s.51 13 2 14.87c1.49 1.87 9.8 11.15 21.45 5.07 0 0 9.46-6.76 1.69-14.53 0 0-5.57-3.21-15.71-1s-9.43-4.41-9.43-4.41z"/>
      <path d="M206.88 148.29s-.23-2.48 1.35-2.7c1.152214.375418 1.89662 1.492027 1.8 2.7M217.92 146.94s-.54-2.26.67-2.3c1.55-.05 1.8 2.3 1.8 2.3M214.31 152.8s2.25.22 1.8-1.47c-.45-1.69-.35-1.24-3.22-2.14v-8.33M198.77 146.94s-7-.23-6.31 4.39c.69 4.62 4.23 4.62 5.41 4.62M225.12 146.94s4.28 1.35 4.06 4.39c-.22 3.04-4.06 3.27-4.06 3.27M227 149.87c-1.188023.631922-2.102588 1.678156-2.57 2.94M195.59 150.77s3.18-.23 3.18-.9M203.05 142.89a49.99997795 49.99997795 0 0 0 7-2M216.17 140.86l6.25 1.01M217.42 179.15v-6.14M219.52 182.52s4.34 1.18 5.6 3.61c0 0 .73-4.52-.67-5.83 0 0-2.08-1-7-1.15 0 0 6.86 11.54 5.91 17.77-.95 6.23-5.91.62-5.91.62-3.766505-4.245274-7.980999-8.070841-12.57-11.41-1.46 2.48-9.26 3.77-9.26 3.77 0-3 1.59-8.37 1.59-8.37" stroke="#19243B" stroke-linecap="round" stroke-linejoin="round"/>
      <path d="M202 167.55l-1 13s-.32 3.35 3.83 5.63M214.53 160.91c-2.239358-.156794-4.369844-1.025808-6.08-2.48M198.77 144.64c-.23-1.3-4.05-8.85 0-14.71 4.05-5.86 17.57-3.26 21.62 1.24 4.05 4.5 4.06 14.62 4.06 14.62" stroke="#19243B" stroke-linecap="round" stroke-linejoin="round"/>
      <path d="M197.87 141.87c2.043786-2.710234 3.501338-5.816046 4.28-9.12.62-2.9 2-3.38 4.72-2.25 2.72 1.13 5.76 3.64 7.66.9 1.9-2.74 5.86-.23 5.86-.23" stroke="#19243B" stroke-linecap="round" stroke-linejoin="round"/>
      <path d="M479.66 162.34s8.1 1.22 8.7-3.64c.62-5-4.15-22.07-9.86-33.3 0 0 2.21 33.98 1.16 36.94z" fill="#D7E6F2"/>
      <path d="M439.37 102.47c-1.727502 1.347789-3.700878 2.346365-5.81 2.94-2.835242.866714-5.864758.866714-8.7 0-2.95-1.05.63-13.25.63-13.25-.784705.0540697-1.528242-.3568322-1.9-1.05.161012-1.196047.51565-2.3579078 1.05-3.44M427.61 81.44c2.06-4 4.14-7.48 4.69-8.41M426.12 98.16c1.310817-.0580568 2.593529-.3992035 3.76-1M439.37 87.59c.922954-1.0302489 2.246942-1.6101771 3.63-1.59" stroke="#19243B" fill="#FFF" stroke-linecap="round" stroke-linejoin="round"/>
      <path d="M437.79 86.45s-3.47-3 0-6.6c3.47-3.6 5.53-6.36 3.08-7-2.45-.64-9.7 2.31-11.91-2.11-2.21-4.42-.16-8.68 2.52-8.68s4.35 3.32 10.46 2.69c6.11-.63 15.74 1.68 17.79 8.1 2.05 6.42-1.27 12.72-4 17.3s-3.79 6.63-3.63 9.31c0 0-4.71 3.63-8-.63s-4.19-6.63-4-7.42c0 0 4.58-1.47 4.89-4.92.31-3.45-1.58-3.44-2.68-3.28-1.1.16-4.52 3.24-4.52 3.24z" stroke="#19243B" fill="#D7E6F2" stroke-linecap="round" stroke-linejoin="round"/>
      <path d="M428 85.32h8.88M427.68 84.73c-.42 2.15-1.48 3.76-2.36 3.59-.42-.08-.71-.54-.87-1.23-.210644-.9889072-.210644-2.0110928 0-3 .42-2.15 1.47-3.75 2.36-3.58.43.08.75.59.9 1.34.178721.9526995.168528 1.9312302-.03 2.88zM456.57 109.86l-4.42-10.44M433.56 105.42s-.81 10-1.13 11.92" stroke="#19243B" fill="#FFF" stroke-linecap="round" stroke-linejoin="round"/>
      <path d="M400.5 158.21s18.62-36.07 29.38-39.86c10.76-3.79 8.23-8.52 29.06-8.52s30.92 43.55 29.35 53.65c-1.57 10.1-11.36 12.31-11.36 12.31" stroke="#19243B" stroke-linecap="round" stroke-linejoin="round"/>
      <path d="M478.8 131s4.11 43.64-4.09 54.37c0 0-4.73 16-1.57 22.61 3.16 6.61.09 15.59-9.22 15.17-7.72-.34-27 1.67-30.36 1.35-3.36-.32-20.07-.94-20.07-12s4.42-36.73 4.42-36.73" stroke="#19243B" stroke-linecap="round" stroke-linejoin="round"/>
      <path d="M405 160.49s-1.72-.92-4.45-2.28c-7.75-3.85-23.55-11.13-30.55-10.19" stroke="#19243B" fill="#FFF" stroke-linecap="round" stroke-linejoin="round"/>
      <path d="M360.67 154.18c-.267892.637804-.43976 1.311795-.51 2 5.68 5.37 41.66 24.94 51.44 23 1.72-.33 3.88-1.58 6.29-3.42 11.26-8.59 27.71-30 27.71-30" stroke="#19243B" stroke-linecap="round" stroke-linejoin="round"/>
      <path d="M343.11 150.67l-3.94 3.09-.45-.57-1.45-1.86-.54-.68 4.91-4.07c.316223 1.419677.810115 2.793839 1.47 4.09zM361.28 136.45l-4.62 3.61c-2.756302.106824-5.502404.39747-8.22.87l9.47-8.79 3.37 4.31z" stroke="#19243B" fill="#D7E6F2" stroke-linecap="round" stroke-linejoin="round"/>
      <path d="M370 148c-6.13.82-8.42 4-9.28 6.16-3-2.24-7.89-.58-13.16-.37-2 .08-3.43-1.32-4.4-3.14-.659885-1.296161-1.153777-2.670323-1.47-4.09-.41-1.67-.58-3.08-.65-3.51-.07-.43 3.32-1.46 7.45-2.14 2.717596-.47253 5.463698-.763176 8.22-.87 2.66-.08 4.76.15 5.39.9 2.05 2.55 7.9 7.06 7.9 7.06z" stroke="#19243B" fill="#FFF" stroke-linecap="round" stroke-linejoin="round"/>
      <path stroke="#19243B" stroke-linecap="round" stroke-linejoin="round" d="M337.27 151.33l-2.33 2 2.57.89 1.21-1.03M590.77 149.89s.28-1.9-1.29-2.17c0 0-1.86-.25-1.93 2M579.86 148.68s.36-2.38-1.12-2.25c-1.21.11-1.4 1.68-1.4 1.68"/>
      <path d="M573.19 148.56s-4.5.54-4.37 3.59c.13 3.05 4.82 3.47 4.82 3.47s-.7-5.93-.45-7.06z" stroke="#19243B" fill="#FFF" stroke-linecap="round" stroke-linejoin="round"/>
      <path d="M570.57 151.43c1.198425-.313376 2.436028.349003 2.84 1.52M602 153.28s-2.62.45-3.15-1M584.18 162.29s2.15.52 4.7-1.74" stroke="#19243B" stroke-linecap="round" stroke-linejoin="round"/>
      <path d="M573.64 134.91s-3.16 33.65 7.2 36c7.66 1.74 12.19-2.14 14.49-6.31" stroke="#19243B" stroke-linecap="round" stroke-linejoin="round"/>
      <path d="M584.12 145.54s-2.59 9.13-2.82 9.54c-.23.41 3.15.45 3.09.09" stroke="#19243B" stroke-linecap="round" stroke-linejoin="round"/>
      <rect stroke="#D7E6F2" stroke-linecap="round" stroke-linejoin="round" x="298.87" y="62.46" width="75.81" height="50.54" rx="4"/>
      <path d="M523.25 242.62h-39.17v-1.68c-.062242-1.33331.966808-2.465265 2.3-2.53h34.56c1.334634.064788 2.366559 1.194992 2.31 2.53v1.68zM534.62 217H463.7c-2.499771.026766-4.635156-1.796852-5-4.27l-8.84-53.33c-.151936-.972868.129218-1.963523.769552-2.711541.640333-.748017 1.575787-1.178564 2.560448-1.178459h70.92c2.499771-.026766 4.635156 1.796852 5 4.27l8.84 53.33c.151936.972868-.129218 1.963523-.769552 2.711541-.640333.748017-1.575787 1.178564-2.560448 1.178459z" stroke="#19243B" fill="#D7E6F2" stroke-linecap="round" stroke-linejoin="round"/>
      <path d="M493.54 200.15h6c1.662252.004801 3.074275 1.217529 3.33 2.86l5.46 35.4h-11.8l-5.44-35.35c-.113005-.7208.091937-1.455197.561842-2.013329.469905-.558132 1.158644-.885209 1.888158-.896671z" stroke="#19243B" fill="#D7E6F2" stroke-linecap="round" stroke-linejoin="round"/>
      <path stroke="#19243B" fill="#FFF" stroke-linecap="round" stroke-linejoin="round" d="M257.75 242.62h-10.13l-1.69-16.12h13.51zM244.9 223.97h15.56v2.53H244.9zM246.22 221.44h12.93v2.53h-12.93zM567.11 242.62h-11.79v-1.68c0-1.39728 1.13272-2.53 2.53-2.53h6.73c1.39728 0 2.53 1.13272 2.53 2.53v1.68z"/>
      <path d="M265.43 195.92l9.61-16c.548568-.902675 1.585541-1.387647 2.63-1.23l8.62 1.31c.473533.079773.876857.388812 1.077075.825287.200218.436474.171356.943764-.077075 1.354713l-8.69 14.44" stroke="#19243B" stroke-linecap="round" stroke-linejoin="round"/>
      <path stroke="#FFF" stroke-linecap="round" stroke-linejoin="round" d="M587.77 45.18l10.74 11.79h11.68M595.19 69.61h6.31"/>
      <path d="M418.33 377.35l2.57 12.26h-34.53c0-4 19.1-8.92 19.1-8.92l.33-3.34M459.15 380s-11.45 5.64-11.45 9.64h26.65l-1.44-9.17" stroke="#19243B" stroke-linecap="round" stroke-linejoin="round"/>
      <path d="M448.67 266.33l5.69-17.25" stroke="#19243B" fill="#FFF" stroke-linecap="round" stroke-linejoin="round"/>
      <path d="M598.51 60.5c-1.434001.0161993-2.735284-.8367674-3.292507-2.158177-.557223-1.3214095-.259627-2.8486051.752977-3.8641112 1.012605-1.0155062 2.538943-1.3174705 3.861941-.7640304C601.15541 54.2671215 602.012096 55.5659586 602 57c-.021508 1.9201335-1.569936 3.4729982-3.49 3.5z" fill="#FFF"/>
      <path d="M598.51 54.44c1.395903-.0109365 2.536892 1.1107958 2.549714 2.5066823.012823 1.3958865-1.107366 2.5383904-2.503234 2.5530996C597.160612 59.5144911 596.016596 58.3958468 596 57c0-1.3972804 1.13272-2.53 2.53-2.53l-.02-.03zm.02-1.97c-1.837478-.0243396-3.507606 1.0637937-4.227708 2.7544657-.720102 1.6906721-.347485 3.6488644.943231 4.9569053 1.290716 1.308041 3.243766 1.7067331 4.943889 1.0092365C601.889535 60.4931109 602.999839 58.8376394 603 57c0-2.5018499-2.02815-4.53-4.53-4.53h.06z" fill="#D7E6F2" fill-rule="nonzero"/>
      <path d="M258.52 206.52s4.25-3.72 4.4-4.71c.15-.99-.52-5 1.3-6.15 0 0 1.62-.77 2.26 2.6 0 0 2.91-.62 4.26-5.77 1.35-5.15 9.24-7 9.45-3 .17 3.15-3.83 14.42-5.67 15.39-1.84.97-8.09 5.59-8.09 5.59" stroke="#19243B" stroke-linecap="round" stroke-linejoin="round"/>
      <path d="M206.21 266.76s-11.81-15.72-14.87-27.51" stroke="#19243B" fill="#FFF" stroke-linecap="round" stroke-linejoin="round"/>
      <path d="M240.5 263.55v-11.23" stroke="#19243B" stroke-linecap="round" stroke-linejoin="round"/>
      <ellipse stroke="#19243B" fill="#FFF" stroke-linecap="round" stroke-linejoin="round" transform="rotate(-14.41 493.072733 179.344873)" cx="493.072733" cy="179.344873" rx="3.3" ry="4.63"/>
      <path d="M584.08 378.55c-4.33 3.33-12.62 4.39-12.9 11.06 0 .64 1 .64 1 0 .25-6 8.49-7.19 12.4-10.2.5-.39 0-1.26-.5-.86z" fill="#19243B"/>
      <path d="M629.27 295.12v18.13c-1.146667-1.16-2.27-2.336667-3.37-3.53v-12.79c1.189556-.470965 2.320451-1.07836 3.37-1.81z" stroke="#19243B" fill="#D7E6F2" stroke-linecap="round" stroke-linejoin="round"/>
      <path d="M629.27 313.25s7.84 7.74 13.17 13.12c1.500539 1.507827 3.327574 2.650579 5.34 3.34 4.479957 1.566104 8.712835 3.765045 12.57 6.53 4.53 3.26 4.37 2 8.65 5.32 3.72 2.94-8.26 6.74-12 4.15-2-1.4-2-2-7.22-3.16-5.69-1.26-10-2-11-8.19M625.9 309.72c-3.17-3.43-6.17-7-9.09-10.59-2.34-2.9-4.64-5.83-6.95-8.75-5.79-7.35-11.6-14.62-18.3-21.19-4.49-4.41-12.36-9.63-18.38-11.49-9.42-2.9-21.92 3.08-26.65 8.62" stroke="#19243B" stroke-linecap="round" stroke-linejoin="round"/>
      <path d="M639.05 333.93c-5.720545-3.982304-11.693049-7.589857-17.88-10.8a110.4599764 110.4599764 0 0 1-12.17-6.79c-4.535707-3.060068-8.493514-6.899377-11.69-11.34-3.38-4.92-6.59-9.81-10.63-14.25-1.89-2.07-4.08-4.29-6.91-5-2.25-.51-4.09-.33-6.1-1.73-.53-.37-1 .5-.51.86 1.40197.965068 3.040996 1.528699 4.74 1.63 3 .31 5 1.72 7.09 3.85 4.47 4.58 7.85 9.87 11.46 15.1 5.59 8.12 13.91 13.19 22.48 17.59 6.794228 3.453223 13.348965 7.358671 19.62 11.69.53.37 1-.5.5-.86v.05zM618.39 257.23c3.94 4.77 2.52 11.45.61 16.77-2.152662 5.873649-5.373544 11.298291-9.5 16-.42.48.29 1.19.71.71 4.617669-5.262691 8.121456-11.406224 10.3-18.06 1.7-5.33 2.38-11.55-1.42-16.15-.41-.49-1.11.22-.7.71v.02z" fill="#19243B"/>
      <path stroke="#19243B" stroke-linecap="round" stroke-linejoin="round" d="M508.04 22.77l-7.8 8.05-6.17-2.5-8.99 6.57-2.95-1.79-8.08 7.18M507.2 20.77l3.68-.94-.89 3.7M625.9 296.93c-2.924169 1.116733-5.978804 1.856029-9.09 2.2M608.25 182.89s34.38-.6 36.81 1.35c2.43 1.95 10.73 6.83 9.26 21.45-1.47 14.62-9.75 68.23-22.41 86.27 0 0-.29 1.49-2.64 3.16"/>
      <path d="M626.22 196.58s.32-.16 12.51.33-9.26 59.45-9.26 59.45-8.29.5-25.83 0c-14.48-.4-15.35 7.16-15.22 9.82M162.44 197.54c6.07.12 12.92 0-13.5.21-12.2.1 9.26 59.45 9.26 59.45s8.29.5 25.83 0 15.11 10.72 15.11 10.72v28.59s.5 4.07-4.06 4.07" stroke="#19243B" stroke-linecap="round" stroke-linejoin="round"/>
      <path d="M400.75 62s-.56 16.09-15.16 18.54M298.87 37.82s16-13.68 45.48-7.56" stroke="#D7E6F2" fill="#FFF" stroke-linecap="round" stroke-linejoin="round"/>
      <path d="M510.85 85.46c.064891 2.3542406-1.788623 4.316504-4.142738 4.385802-2.354114.0692979-4.319844-1.7805386-4.393549-4.1345197-.073705-2.3539811 1.772448-4.3231706 4.126287-4.4012823 2.359978-.0618009 4.328456 1.7906221 4.41 4.15zm-1.87.06c-.147198-1.2983606-1.302259-2.2429046-2.603998-2.1294035-1.301739.113501-2.275899 1.2436958-2.196171 2.5479392.079728 1.3042434 1.184297 2.3073659 2.490169 2.2614643.669553-.0326669 1.296778-.3371589 1.7366-.8430492.439823-.5058903.654146-1.1693591.5934-1.8369508h-.02z" fill="#D7E6F2"/>
      <g transform="translate(502 81)">
        <mask id="b" fill="#fff">
          <use xlink:href="#a"/>
        </mask>
        <g mask="url(#b)">
          <path fill="#D7E6F2" d="M-260.7803187-1703.76582186l760.22181225-25.2191549L583.17257571 795.0565821l-760.22181225 25.2191549z"/>
          <g transform="translate(-261 -1729)">
            <mask id="d" fill="#fff">
              <use xlink:href="#c"/>
            </mask>
            <path fill="#D7E6F2" mask="url(#d)" transform="rotate(-1.9 265.564305 1733.610978)" d="M258.659305 1726.67098h13.81v13.88h-13.81z"/>
          </g>
        </g>
      </g>
      <path d="M520 85.16c.053808 2.3464588-1.800469 4.2943961-4.146731 4.3561855-2.346262.0617893-4.300496-1.78585-4.370267-4.1318884C511.413232 83.0382586 513.254212 81.0777508 515.6 81c1.135991-.034965 2.239049.3843895 3.064904 1.1651976.825855.7808081 1.306356 1.8586373 1.335096 2.9948024m-1.86.06c-.141954-1.3003946-1.295349-2.2501172-2.598817-2.1399044-1.303469.1102129-2.281025 1.240115-2.202618 2.5458827.078407 1.3057676 1.184144 2.3105755 2.491435 2.2640217.664097-.0380378 1.284482-.3433918 1.719702-.8464377.435219-.5030459.648171-1.1608996.590298-1.8235623" fill="#D7E6F2"/>
      <g transform="translate(511 80)">
        <mask id="f" fill="#fff">
          <use xlink:href="#e"/>
        </mask>
        <g mask="url(#f)">
          <path fill="#D7E6F2" d="M-269.7803187-1702.76582186l760.22181225-25.2191549L574.17257571 796.0565821l-760.22181225 25.2191549z"/>
          <g transform="translate(-270 -1728)">
            <mask id="h" fill="#fff">
              <use xlink:href="#g"/>
            </mask>
            <path fill="#D7E6F2" mask="url(#h)" transform="rotate(-1.9 274.759306 1733.306447)" d="M267.854306 1726.36645h13.81v13.88h-13.81z"/>
          </g>
        </g>
      </g>
      <path d="M528.72 80.84l.26 7.69c.1 3.16-1.7 4.51-3.89 4.59-1.652293.05853-3.175045-.8907181-3.85-2.4l1.6-.74c.364332.8860815 1.231999 1.460564 2.19 1.45 1.4 0 2.24-.94 2.19-2.58v-.62h-.07c-.551825.6446996-1.361456 1.0110487-2.21 1-2.304523-.006543-4.190125-1.8365968-4.265555-4.1398941-.07543-2.3032973 1.686398-4.2527991 3.985555-4.4101059.850033-.0472081 1.678566.2776356 2.27.89h.07v-.71l1.77-.06-.05.04zm-1.5 4.09c.032585-.6511044-.199999-1.2876344-.644681-1.7643487-.444682-.4767142-1.063524-.7529408-1.715319-.7656513-.660452.0508718-1.273105.3638459-1.701404.8691632-.428299.5053172-.636643 1.1609765-.578596 1.8208368-.013481.6601379.240058 1.297772.703163 1.7684072.463105.4706352 1.096568.7344254 1.756837.7315928.648619-.0470363 1.249413-.3585344 1.661633-.8615187.41222-.5029842.599646-1.1532585.518367-1.7984813z" fill="#D7E6F2"/>
      <g transform="translate(520 80)">
        <mask id="j" fill="#fff">
          <use xlink:href="#i"/>
        </mask>
        <g mask="url(#j)">
          <path fill="#D7E6F2" d="M-278.7803187-1702.76582186l760.22181225-25.2191549L565.17257571 796.0565821l-760.22181225 25.2191549z"/>
          <g transform="translate(-279 -1728)">
            <mask id="l" fill="#fff">
              <use xlink:href="#k"/>
            </mask>
            <path fill="#D7E6F2" mask="url(#l)" transform="rotate(-1.718 278.64245 1737.52965)" d="M271.924429 1728.68067h13.4360421v17.6979587H271.924429z"/>
          </g>
        </g>
      </g>
      <path fill="#D7E6F2" d="M529.65682877 76.30376346l1.8189994-.06034243.41642903 12.55309471-1.81899939.06034243z"/>
      <g transform="translate(529 76)">
        <mask id="n" fill="#fff">
          <use xlink:href="#m"/>
        </mask>
        <g mask="url(#n)">
          <path fill="#D7E6F2" d="M-287.7803187-1698.76582186l760.22181225-25.2191549L556.17257571 800.0565821l-760.22181225 25.2191549z"/>
          <g transform="translate(-288 -1724)">
            <mask id="p" fill="#fff">
              <use xlink:href="#o"/>
            </mask>
            <path fill="#D7E6F2" mask="url(#p)" transform="rotate(-1.9 289.774543 1730.55014)" d="M286.224543 1721.63014h7.1v17.84h-7.1z"/>
          </g>
        </g>
      </g>
      <path d="M538.92 85.94l1.48.92c-.983999 1.5964682-2.90169 2.3544591-4.711286 1.8621935-1.809597-.4922657-3.079044-2.117256-3.118714-3.9921935-.099395-1.1036985.256675-2.200063.985604-3.0347437.72893-.8346807 1.767365-1.3351334 2.874396-1.3852563 1.665448.0086354 3.151271 1.0483134 3.73 2.61l.21.48-5.6 2.57c.38043.8028604 1.213657 1.2908932 2.1 1.23.839189-.0474849 1.594856-.5235548 2-1.26h.05zm-4.51-1.4l3.75-1.71c-.316759-.5824718-.949744-.9205879-1.61-.86-.619603.0509096-1.193479.3462909-1.594972.8209528-.401492.4746618-.597595 1.0895822-.545028 1.7090472v.04z" fill="#D7E6F2"/>
      <g transform="translate(532 80)">
        <mask id="r" fill="#fff">
          <use xlink:href="#q"/>
        </mask>
        <g mask="url(#r)">
          <path fill="#D7E6F2" d="M-290.7803187-1702.76582186l760.22181225-25.2191549L553.17257571 796.0565821l-760.22181225 25.2191549z"/>
          <g transform="translate(-291 -1728)">
            <mask id="t" fill="#fff">
              <use xlink:href="#s"/>
            </mask>
            <path fill="#D7E6F2" mask="url(#t)" transform="rotate(-1.9 295.464545 1732.605191)" d="M288.899545 1725.68019h13.13v13.85h-13.13z"/>
          </g>
        </g>
      </g>
      <path d="M495.39 84.86l-.06-1.82 6.08-.2c.069583.3594642.109717.7240073.12 1.09.126878 1.6472169-.446259 3.2716419-1.578725 4.4745306C498.818808 89.6074194 497.231869 90.277395 495.58 90.25c-3.672694.1242641-6.750736-2.7523064-6.875-6.425-.124264-3.6726936 2.752306-6.7507359 6.425-6.875 1.692287-.0785414 3.344339.5310583 4.58 1.69l-1.23 1.32c-.89731-.8208394-2.085327-1.2492456-3.3-1.19-1.26009.0468447-2.449843.5928028-3.307073 1.5175608-.85723.924758-1.311581 2.152418-1.262927 3.4124392v.06c.049264 2.6251034 2.214813 4.7145894 4.84 4.67h.05c1.251038.0072402 2.446546-.5160217 3.29-1.44.546995-.6416001.863785-1.4476566.9-2.29l-4.3.15v.01z" fill="#D7E6F2"/>
      <g transform="translate(488 76)">
        <mask id="v" fill="#fff">
          <use xlink:href="#u"/>
        </mask>
        <g mask="url(#v)">
          <path fill="#D7E6F2" d="M-246.7803187-1698.76582186l760.22181225-25.2191549L597.17257571 800.0565821l-760.22181225 25.2191549z"/>
          <g transform="translate(-247 -1724)">
            <mask id="x" fill="#fff">
              <use xlink:href="#w"/>
            </mask>
            <path fill="#D7E6F2" mask="url(#x)" transform="rotate(-1.9 254.059817 1731.61852)" d="M244.979817 1722.32352h18.16v18.59h-18.16z"/>
          </g>
        </g>
      </g>
      <path d="M480.38 94.87c23.507908-2.4106857 47.149156-3.2692134 70.77-2.57.64 0 .64-1 0-1-23.620844-.6992134-47.262092.1593143-70.77 2.57-.63.07-.64 1.07 0 1z" fill="#D7E6F2"/>
      <path stroke="#D7E6F2" fill="#FFF" stroke-linecap="round" stroke-linejoin="round" d="M158.93 50.31h5.25v5.25h-5.25zM170.75 52.94h29.05M158.93 60.82h5.25v5.25h-5.25zM170.75 63.44h22.49M158.93 71.32h5.25v5.25h-5.25zM170.75 73.95h29.05M158.93 81.83h5.25v5.25h-5.25zM170.75 84.45h29.05M158.93 92.33h5.25v5.25h-5.25zM170.75 94.96h18.38"/>
      <path d="M156.25 48.3l3.58 4.22c.47.55 1.14 1.75 2 1.79.86.04 1.19-.63 1.63-1.07 1.3-1.28 2.56-2.59 3.84-3.89.45-.45-.26-1.16-.71-.7-.84.84-3.8 4.76-5 4.37-.62-.2-1.6-1.89-2-2.41l-2.56-3c-.42-.49-1.12.22-.71.71l-.07-.02zM156.15 59.74l4.43 5.2c.194422.1905714.505578.1905714.7 0l5.72-4.89c.49-.42-.22-1.13-.71-.71l-5.71 4.89h.7l-4.42-5.2c-.42-.49-1.13.22-.71.71z" fill="#D7E6F2"/>
      <rect stroke="#D7E6F2" stroke-linecap="round" stroke-linejoin="round" x="147.46" y="36.4" width="64.06" height="74.68" rx="4"/>
      <path d="M.5 389.61h8.42" stroke="#19243B" stroke-linecap="round" stroke-linejoin="round"/>
      <path d="M816.86 389.61h8.42M862.39 389.61h21.2" stroke="#19243B" fill="#FFF" stroke-linecap="round" stroke-linejoin="round"/>
      <path d="M491.33 105.8c3.14198-.764224 6.338064-1.28576 9.56-1.56.64 0 .64-1 0-1-3.313785.272846-6.60074.807854-9.83 1.6-.63.14-.36 1.1.27 1v-.04z" fill="#D7E6F2"/>
      <path d="M490.71 105.19c-.79055 3.559885-.120551 7.28811 1.86 10.35.34.54 1.21 0 .86-.51-1.845827-2.828887-2.476473-6.281226-1.75-9.58.13-.62-.84-.89-1-.26h.03z" fill="#D7E6F2"/>
      <path d="M492.67 116.5c4.053943.088399 8.088071-.590176 11.89-2 .6-.22.34-1.18-.27-1-3.718361 1.364153-7.660454 2.015514-11.62 1.92-.276142 0-.5.223858-.5.5s.223858.5.5.5v.08z" fill="#D7E6F2"/>
      <path d="M500.39 103.74c.27 3.55 1 7.45 3.71 10 .47.44 1.18-.27.7-.71-2.52-2.33-3.16-6-3.41-9.26-.05-.64-1.05-.64-1 0v-.03zM516.15 120.33c3.144287-.77156 6.344007-1.296488 9.57-1.57.64 0 .64-1 0-1-3.313183.27775-6.599755.812695-9.83 1.6-.63.14-.36 1.11.26 1v-.03z" fill="#D7E6F2"/>
      <path d="M515.54 119.71c-.788935 3.558647-.122871 7.285009 1.85 10.35.35.54 1.22 0 .87-.51-1.843387-2.826063-2.477307-6.273005-1.76-9.57.14-.63-.83-.9-1-.27h.04z" fill="#D7E6F2"/>
      <path d="M517.49 131c4.054048.089847 8.088446-.588774 11.89-2 .6-.21.34-1.18-.26-1-3.722249 1.363494-7.666858 2.018103-11.63 1.93-.64 0-.64 1 0 1v.07z" fill="#D7E6F2"/>
      <path d="M525.22 118.26c.27 3.55 1 7.45 3.7 10 .48.44 1.19-.27.71-.7-2.53-2.33-3.16-6-3.41-9.27-.05-.63-1.05-.64-1 0v-.03z" fill="#D7E6F2"/>
      <path stroke="#19243B" fill="#D7E6F2" stroke-linecap="round" stroke-linejoin="round" d="M548.61 296.38h3.37v93.22h-3.37zM532.53 296.38h3.37v93.22h-3.37zM278.21 389.61h-3.37l39.6-141.94h8.42z"/>
      <path stroke="#19243B" fill="#D7E6F2" stroke-linecap="round" stroke-linejoin="round" d="M535.17 389.61h3.37l-39.59-141.94h-8.43z"/>
      <path d="M451.83 190.29l-5.27-33.7c-.151936-.972868.129218-1.963523.769552-2.711541.640333-.748017 1.575787-1.178564 2.560448-1.178459h13.82M478.91 44.46h4.04v4.93h-4.04zM486.32 40.01h4.04v9.37h-4.04zM493.73 42.48h4.04v6.91h-4.04zM500.47 35.57h4.04v13.82h-4.04zM507.89 30.15h4.04v19.24h-4.04z" stroke="#19243B" stroke-linecap="round" stroke-linejoin="round"/>
      <path d="M297 364.94s4.84 11.72 5.53 12.74L309 375s-.84-3.11 0-3.33c4.607462-.092046 9.171031-.915648 13.52-2.44 7.43-2.5 14.46-8.22 13.9-9.1-1.12-1.77-10.78.28-19.38 0s-10.59-2-12.06-2.21c-.865383-.076518-1.704557.320604-2.19409 1.038309-.489533.717705-.552988 1.643929-.16591 2.421691.86 2.15-2.41 3.13-5.62 3.56z" stroke="#19243B" fill="#D7E6F2" stroke-linecap="round" stroke-linejoin="round"/>
      <path d="M232.42 377.71l.5-7.38M243.01 375.01v-5.65M227.71 389c0 .1 0 .19-.05.28-.05.09 0 .08 0 .13v-.25-1.17c0 .35.02.68.05 1.01z" stroke="#19243B" stroke-linecap="round" stroke-linejoin="round"/>
      <path d="M227.77 389.61a1.39996915 1.39996915 0 0 1-.11-.33v-.12a4.35997898 4.35997898 0 0 1 0-1" stroke="#19243B" stroke-linecap="round" stroke-linejoin="round"/>
      <path d="M243 375c-.16-.55-1.38-.18-2.58-.19-5 0-6.22 2.8-8.42 3-.637792 3.420512-.972424 6.890644-1 10.37v-.17c0 .33 0 .66.07 1 .07.34 0 .41.06.61h23c-.75-2.57-3.24-4.46-5.46-5.72.02-.01-3.42-.9-5.67-8.9z" stroke="#19243B" fill="#D7E6F2" stroke-linecap="round" stroke-linejoin="round"/>
      <path d="M199 294.08c-5.51.72-9.78 1.21-9.78 1.21-2.56 0-2.1-11.63-2.1-11.63s1-16.61 1.47-20M252.36 291c-24-1.26-32.68 8.9-48.69 10M252.36 291s14.15.24 15.23.6c1.41.45 5.78 1.61 9.87 21 0 0 6.75 20 11.22 27.48" stroke="#19243B" stroke-linecap="round" stroke-linejoin="round"/>
      <path d="M585.25 243.1l20.54-7.56c3.3-1.22 6.62-2.4 9.91-3.65s4.38-3.41 4.95-6.58l2.32-12.69c.12-.63-.85-.9-1-.27l-1.9 10.4c-.64 3.52-1 6.77-4.82 8.22-7.45 2.82-14.94 5.51-22.41 8.26l-7.9 2.91c-.6.22-.34 1.19.27 1l.04-.04z" fill="#19243B"/>
      <path stroke="#19243B" stroke-linecap="round" stroke-linejoin="round" d="M290.18 150.98l-9.13 9.14-3.77-3.76-1.9 1.9 5.67 5.66 11.03-11.04zM400.75 382s5.48 3.36 4.84 7.57M455 382.28s2.85 4.94 2.87 7.33M575 181c-4.54 3.25.43 9.57.43 9.57s5.84 12.14 19.88 2.74c0 0 10.3-6.71 10.11-10.43M613.86 134.91s5.47.74 6.32 5.79M563.35 238.41c1.722344-2.856931 5.246063-4.066629 8.36-2.87 5.87 2 7.93 2.69 8.18 7.08"/>
      <path d="M257.6 104.1c-7.499403 3.614636-14.655401 7.90221-21.38 12.81-.51.38 0 1.23.51.87 7.169088-4.868909 14.860224-8.920759 22.93-12.08l-.38-.91c-7.149581 4.558289-13.930399 9.670651-20.28 15.29-.43.38.12 1.05.61.78 6.926589-3.858546 14.141475-7.17512 21.58-9.92l-.38-.91c-6.275658 3.597382-12.233819 7.722262-17.81 12.33-.45.38.13 1 .61.79 6.994322-3.650732 14.333603-6.598503 21.91-8.8l-.38-.91-19.1 14c-.51.38-.06 1.21.5.87 7.01869-4.330735 14.56796-7.735638 22.46-10.13l-.49-.84-13.86 11.33c-.5.41.21 1.11.71.71l13.86-11.33c.39-.33 0-1-.49-.84-7.9794 2.434465-15.612147 5.886174-22.71 10.27l.5.87 19.1-14c.43-.31.2-1.08-.39-.91-7.657103 2.224477-15.073687 5.20585-22.14 8.9l.6.78c5.510355-4.552146 11.398286-8.626862 17.6-12.18.48-.27.16-1.11-.39-.91-7.522232 2.761037-14.817684 6.104507-21.82 10l.61.78c6.283297-5.557001 12.990287-10.615663 20.06-15.13.45-.29.17-1.13-.38-.91-8.156762 3.178604-15.931885 7.260712-23.18 12.17l.51.87c6.728299-4.912854 13.891408-9.200678 21.4-12.81.58-.28.07-1.14-.5-.87v-.03z" fill="#D7E6F2"/>
      <path d="M238.57 205.7l1.93 8.55M237.62 386s4.49-1.83 6.74-2M163.31 298.11c-6.34-2.28-6.91-5.31-6.91-5.31-12.67-18-21-71.65-22.42-86.27-1.42-14.62 6.83-19.5 9.26-21.45 2.43-1.95 34.54-1 34.54-1 2.596753-.10274 5.177159.454628 7.5 1.62M186.23 300.6h13.63M166.68 299.11c5.109771 1.086614 10.326862 1.586515 15.55 1.49h.63" stroke="#19243B" stroke-linecap="round" stroke-linejoin="round"/>
      <path fill="#A9C4D3" d="M314.44 247.67h8.42l-2.24 7.13h-8.17zM498.95 247.67h-8.43l2.24 7.13h8.18z"/>
      <path stroke="#19243B" stroke-linecap="round" stroke-linejoin="round" d="M278.21 389.61h-3.37l39.6-141.94h8.42zM535.17 389.61h3.37l-39.59-141.94h-8.43z"/>
      <path fill="#D7E6F2" d="M709.76 382.28h60.49v2.26h-60.49zM708.92 333.88h60.49v2.26h-60.49zM708.92 285.48h60.49v2.26h-60.49z"/>
      <path stroke="#19243B" stroke-linecap="round" stroke-linejoin="round" d="M708.92 344.44h60.49v37.83h-60.49z"/>
      <path d="M713.24 344.44s.45-6.25 3-6.67l50.49 1.88c-1.04034 1.363199-1.431367 3.113685-1.07 4.79h-52.42z" stroke="#19243B" fill="#D7E6F2" stroke-linecap="round" stroke-linejoin="round"/>
      <ellipse stroke="#19243B" fill="#D7E6F2" stroke-linecap="round" stroke-linejoin="round" cx="739.16" cy="363.36" rx="4.16" ry="2.35"/>
      <path stroke="#19243B" stroke-linecap="round" stroke-linejoin="round" d="M708.92 247.64h60.49v37.83h-60.49z"/>
      <ellipse stroke="#19243B" fill="#D7E6F2" stroke-linecap="round" stroke-linejoin="round" cx="739.16" cy="266.56" rx="4.16" ry="2.35"/>
      <path d="M702.1 239.23v150.38h74.12V239.23H702.1zm63 60.56L723.22 302c-.32-2.94-.26-4.28-.53-6h-9.46s-1.2-6.66 5.11-6.66h.08l43 2.95c1.739938.494217 3.054319 1.924573 3.4 3.7.185751 1.25859.289304 2.527945.31 3.8h-.03z" stroke="#19243B" stroke-linecap="round" stroke-linejoin="round"/>
      <path d="M722.69 296h-9.46s-1.2-6.66 5.11-6.66h.08c.52.14 3.35.87 4.27 6.66z" stroke="#19243B" fill="#D7E6F2" stroke-linecap="round" stroke-linejoin="round"/>
      <path d="M713.23 296h-4.32v37.84h60.49V296h-4.6c.190297 1.241631.300525 2.494217.33 3.75L724.34 302" stroke="#19243B" stroke-linecap="round" stroke-linejoin="round"/>
      <ellipse stroke="#19243B" fill="#D7E6F2" stroke-linecap="round" stroke-linejoin="round" cx="739.16" cy="314.96" rx="4.16" ry="2.35"/>
      <path d="M297.85 364.81l-4.64-9.34M304.16 357.94l-2.83-7.08" stroke="#19243B" fill="#FFF" stroke-linecap="round" stroke-linejoin="round"/>
      <path d="M642.47 335.25s11 1.88 11.35-.28c0 0 2.95-1.07-7-5.63M593.65 288s5.52-1.16 6.74-4.85" stroke="#19243B" stroke-linecap="round" stroke-linejoin="round"/>
      <path d="M572.81 283.22s12.83-1 16.62 3.68c3.79 4.68 5.9 16.16 5.9 16.16.587254 11.386136.339926 22.799991-.74 34.15-.82 9.24-2 42.25-2 42.25s4.71 4 5 10.15" stroke="#19243B" fill="#FFF" stroke-linecap="round" stroke-linejoin="round"/>
      <path d="M545.94 296.38h-14.5c-1.457283-.000288-2.729105-.988111-3.09-2.4-2.22-8.87-8.37-39.18 11.7-39.18h14.55s4.95-4.41 5.93-7.12M223.62 295.79s17.93 3.27 20.25 6.22c2.32 2.95 1 2.69 0 11.24s-6.25 54.56-6.25 54.56" stroke="#19243B" stroke-linecap="round" stroke-linejoin="round"/>
      <path d="M271.35 240.09s-1.62-2.31 3.35-4.63c0 0 5.78-2.67 10.53.28 4.75 2.95 1.67 4.35 1.67 4.35h-15.55zM273.27 236.24s-10.48-3.43-14.41-4.16" stroke="#19243B" fill="#FFF" stroke-linecap="round" stroke-linejoin="round"/>
      <path d="M554.05 294.71s-7-4.83-9.5-10.35M566.68 184.38s-5.94-9.91 1.22-15.45c7.16-5.54 3.33-13.86 3.33-13.86M205.54 295.4s12.42-4.13 21.06-5.71M307.2 375.75s-2.13-4.23-.3-4c1.83.23 2.13-.1 2.13-.1M584.26 303.49s.71 3.9 8.28 2.49" stroke="#19243B" stroke-linecap="round" stroke-linejoin="round"/>
      <path d="M546.68 266.15c-3.08 3.37-7.21 12.72-4.83 19.33 1.288985 3.52601 3.433102 6.676899 6.24 9.17.49.43.85.74 1.14 1 2 1.59 6.39 1.76 8.87 2.18 0 0 11.6 1.72 14.17 2.14 2.57.42 2.76 3.55 2.76 3.55 2.71 15.15 2.41 16 2.41 16s.3 13.77 3.31 24.3c2.5 8.74 3.58 35.22 3.58 35.22s-.84.81 1.84 2.31c3.68 2.06 6.45-1.83 6.45-1.83M623.55 389.61H803.1" stroke="#19243B" fill="#FFF" stroke-linecap="round" stroke-linejoin="round"/>
      <path d="M248.46 231.25l.67 7.62M576.24 386a41.1700297 41.1700297 0 0 1 5.4-3.67M578.18 218.47c.12.25-5 3.9-11.41 2s-6.74-8.21-5.4-12.69M590.27 218.28s1.65 4.61 5.55 5.18c3.814448.587182 7.70131-.437965 10.73-2.83M554.1 217.61s2.64 2.14 2.94 1c.17-.64-1.38-2.67-1.38-2.67l-1.56 1.67zM557.04 218.59l3.49-3.78M554.1 213.7s-6.27-7.51-7.81-8.35c-1.54-.84.66 3.11.66 3.11M545.73 205.35s9.32-12.37 10.8-13.91M552.4 218.94l-4.11 5.16c-.358412.44481-.791549.823805-1.28 1.12l-20 11.32" stroke="#19243B" stroke-linecap="round" stroke-linejoin="round"/>
      <path d="M527.55 227.52l13.15-8.67c.789701-.531093 1.468907-1.210299 2-2l6.13-9.07M606.55 208.36c.14 2.53.5 7 .5 7 5.4.52 11.67-2.49 18.71-3.39 0 0 2 1.63-3.47 2.27" stroke="#19243B" stroke-linecap="round" stroke-linejoin="round"/>
      <path d="M577.74 238.05l28.77-13c1.299422-.477928 2.232323-1.629658 2.43-3l.14-6.75M597.32 181.43s12.42.11 19.7 4.83c8 5.18 9.1 26.23 9.1 26.23" stroke="#19243B" stroke-linecap="round" stroke-linejoin="round"/>
      <path d="M609.5 256.5s-4.06-7-2.26-22" stroke="#19243B" fill="#FFF" stroke-linecap="round" stroke-linejoin="round"/>
      <path d="M565.18 219.84s.42 13.13-.33 16.7" stroke="#19243B" stroke-linecap="round" stroke-linejoin="round"/>
      <path d="M692.06 51.92v106.82" stroke="#D7E6F2" stroke-linecap="round" stroke-linejoin="round"/>
      <path d="M538.59 254.8c4.253318.911871 7.306329 4.650251 7.35 9" stroke="#19243B" fill="#FFF" stroke-linecap="round" stroke-linejoin="round"/>
      <path d="M560.37 258.09s2.55-7.13 3-10.45" stroke="#19243B" stroke-linecap="round" stroke-linejoin="round"/>
      <circle stroke="#19243B" fill="#FFF" stroke-linecap="round" stroke-linejoin="round" cx="267.24" cy="175.2" r="2.95"/>
      <path d="M472.34 63.24c-4.31.75-4 3.71-3.72 4.46.310094.6215046.852622 1.0957678 1.51 1.32 1.724875.9270905 3.765695 1.0655747 5.6.38 1.75-.83 2.8-3.22 1.69-4.81-1.11-1.59-3.24-1.54-5.08-1.35" fill="#FFF"/>
      <path d="M472.21 62.76c-2 .41-4.07 1.49-4.22 3.77-.17 2.57 2.73 3.56 4.88 3.78 2.65.27 5.57-1.34 5.5-4.31-.08-3.13-3.64-3.48-6-3.26-.63.06-.64 1.06 0 1 1.83-.17 5.15-.18 5 2.48-.12 2.93-3.5 3.49-5.74 2.82-1.42-.42-3-1.17-2.59-2.84.41-1.67 2-2.18 3.44-2.47.63-.13.36-1.1-.27-1v.03z" fill="#19243B"/>
      <path d="M509.86 103.74s-.14 8.73 1 10.64c0 0 11-.59 11.58-2.59 0 0-2.26-6.69-2.08-9.47l-10.5 1.42zM548.54 103.74s-.14 8.73 1 10.64c0 0 11-.59 11.58-2.59 0 0-2.26-6.69-2.08-9.47l-10.5 1.42z" stroke="#D7E6F2" stroke-linecap="round" stroke-linejoin="round"/>
      <path d="M526.72 102.88s-.05 9.59 1.13 11.5c0 0 11-.59 11.58-2.59 0 0-2.27-6.69-2.09-9.47l-10.62.56zM499.63 120.07s-.06 9.58 1.12 11.49c0 0 11-.59 11.58-2.59 0 0-2.26-6.68-2.08-9.46l-10.62.56z" stroke="#D7E6F2" fill="#D7E6F2"/>
      <path d="M227.77 389.61H131.2M60.87 389.61h46.33M38.12 389.61h16.01" stroke="#19243B" stroke-linecap="round" stroke-linejoin="round"/>
    </g>
    <g transform="translate(1 1)">
      <path fill="#E9F4FE" fill-rule="nonzero" d="M1010.99999919 55.28427185l28.28427124-28.28427125 28.28427125 28.28427125-28.28427125 28.28427125z"/>
      <path stroke="#19243B" stroke-linecap="round" stroke-linejoin="round" d="M157.78880027 176.57017702L188.9328657 185.6832l-27.57759996 23.14035395zM938.00000012 185.99999956c6.0751325 10.52243815 19.53012073 14.12769138 30.05255888 8.05255888 10.52243729-6.075132 14.12769138-19.53012073 8.05255888-30.05255888l-38.10511776 22z"/>
      <path d="M214.4681282 103.00000033c-6.33367214 4.43488497-7.87294349 13.16452659-3.43805851 19.49819872 4.43488555 6.33367296 13.1645266 7.8729435 19.49819873 3.43805852l-16.06014022-22.93625724zM2 92.627417L24.627417 70l22.627417 22.627417-22.627417 22.627417z" fill="#E9F4FE" fill-rule="nonzero"/>
      <path stroke="#19243B" stroke-linecap="round" stroke-linejoin="round" d="M-5e-8 55.89949497l9.89949494-9.89949493 9.89949493 9.89949493-9.89949493 9.89949494z"/>
      <circle fill="#E9F4FE" fill-rule="nonzero" cx="1072" cy="245" r="14"/>
      <circle stroke="#19243B" stroke-linecap="round" stroke-linejoin="round" cx="1094" cy="270" r="6"/>
      <circle stroke="#19243B" stroke-linecap="round" stroke-linejoin="round" cx="227" cy="84.0336727" r="6"/>
      <circle stroke="#D7E6F2" stroke-linecap="round" stroke-linejoin="round" cx="128" cy="34" r="34"/>
      <circle stroke="#D7E6F2" stroke-linecap="round" stroke-linejoin="round" cx="1118" cy="103" r="20"/>
    </g>
  </g>
</svg>
