<svg width="180" height="44" xmlns="http://www.w3.org/2000/svg" xmlns:xlink="http://www.w3.org/1999/xlink">
  <defs>
    <path id="a" d="M0 43.2666667h179.658773V.1936H0z"/>
    <path d="M1.98552147 16.5535333c-3.0390184 4.4176-2.12613497 10.3037 2.03889571 13.1464667L20.730184 5.41603333 13.1893252.2684 1.98552147 16.5535333z" id="c"/>
    <linearGradient x1="50.0010422%" y1="86.8802368%" x2="50.0010422%" y2="13.0289372%" id="d">
      <stop stop-color="#01D466" offset="0%"/>
      <stop stop-color="#00A850" offset="100%"/>
    </linearGradient>
    <path id="f" d="M0 .19389333h38.4412773V27.8634075H0z"/>
  </defs>
  <g fill="none" fill-rule="evenodd">
    <g transform="translate(0 .173067)">
      <path d="M53.4702699 24.3960567L47.6550552 14.03809h4.9034356l1.9958282 4.2218c.5668712 1.2026667 1.0597546 2.5278 1.0597546 2.5278h.0493252s.4928834-1.3251333 1.0593865-2.5278l1.9711656-4.2218h4.9038037l-5.8152147 10.3579667V31.58749h-4.31227v-7.1914333zM64.1404417 18.9469133h4.2629448v7.4129c0 1.1781.4682209 1.6690667 1.3553374 1.6690667 1.8231902 0 2.6856442-1.5957333 2.6856442-3.4855333v-5.5964334h4.2629448v12.6408334H72.616638V30.48298c0-.4172667.0493252-.7854.0493252-.7854h-.0493252c-.6898159 1.3500667-2.2667484 2.1846-3.9669938 2.1846-2.5133743 0-4.5092025-1.1784667-4.5092025-4.7373333v-8.1979334zM86.489816 28.3721167c1.3306748 0 2.4890797-1.0798334 2.4890797-3.0187667 0-1.8901667-1.0104294-3.1170333-2.4890797-3.1170333-1.2809816 0-2.4887117.9324333-2.4887117 3.1170333 0 1.5216667.8131288 3.0187667 2.4887117 3.0187667zM79.8614724 18.94695h3.8444172v.638c0 .4176333-.0496933.8099667-.0496933.8099667h.0496933s1.1576687-1.7424 3.843681-1.7424c3.4494478 0 5.7161963 2.6997666 5.7161963 6.6267666 0 4.0014334-2.5376687 6.6029334-5.913497 6.6029334-2.0694478 0-3.2278527-1.2026667-3.2278527-1.2026667h-.0493252s.0493252.4418333.0493252 1.0798333V36.49635h-4.2629448v-17.5494z" fill="#172235"/>
      <mask id="b" fill="#fff">
        <use xlink:href="#a"/>
      </mask>
      <path d="M95.6076074 17.3517667h4.1642944V14.0382h-4.1642944v3.3135667zM95.5582822 31.5876h4.2629448V18.9467667h-4.2629448V31.5876zM103.04908 26.3842333h7.737055v-3.6817h-7.737055zM116.626785 17.71979h-5.346994v-3.6817h15.00589v3.6817h-5.346626v13.8677h-4.31227zM127.961632 14.03809h4.262945v5.5469333c0 .6383667-.049325 1.0798334-.049325 1.0798334h.049325c.71411-1.2514334 2.19276-2.0122667 3.868343-2.0122667 2.5627 0 4.558896 1.1781 4.558896 4.7369667V31.58749h-4.262945v-7.4125333c0-1.1777334-.468221-1.6687-1.404662-1.6687-1.306013 0-2.168099.7608333-2.537669 1.8652333-.172638.4909667-.221963 1.0307-.221963 1.6199333V31.58749h-4.262945v-17.5494zM150.902319 23.6594967c0-.957-.665153-1.8161-1.675583-1.8161-1.231656 0-1.82319.8836666-2.044785 1.8161h3.720368zm-1.576932-5.0068334c3.745398 0 5.864171 2.6015 5.864171 6.1116 0 .4169-.098282 1.3255-.098282 1.3255h-8.007975c.320245 1.5462334 1.601595 2.2579334 2.956564 2.2579334 1.823558 0 3.499141-1.2763667 3.499141-1.2763667l1.576933 2.97s-2.045154 1.8410333-5.420614 1.8410333c-4.534233 0-6.973619-3.2648-6.973619-6.6271333 0-3.7066333 2.513374-6.6025667 6.603681-6.6025667zM157.506515 18.9469133h4.090307V21.08238c0 .4172667-.048957.7854-.048957.7854h.048957c.542209-1.7182 2.143804-3.1419667 4.040982-3.1419667.246625 0 .492883.0491334.492883.0491334V22.94798s-.344908-.0737-.862454-.0737c-1.010061 0-2.66135.319-3.27681 2.2088-.148343.4664-.221963 1.0310667-.221963 1.7182v4.7864667h-4.262945V18.9469133zM175.371166 23.6594967c0-.957-.665154-1.8161-1.675583-1.8161-1.231657 0-1.82319.8836666-2.044785 1.8161h3.720368zm-1.576933-5.0068334c3.745399 0 5.864172 2.6015 5.864172 6.1116 0 .4169-.098282 1.3255-.098282 1.3255h-8.007976c.320246 1.5462334 1.601595 2.2579334 2.956565 2.2579334 1.823558 0 3.499141-1.2763667 3.499141-1.2763667l1.576932 2.97s-2.045153 1.8410333-5.420613 1.8410333c-4.534233 0-6.97362-3.2648-6.97362-6.6271333 0-3.7066333 2.513374-6.6025667 6.603681-6.6025667z" fill="#172235" mask="url(#b)"/>
      <path d="M18.3801718 43.26652c-4.1646626-2.8427667-5.0779141-8.7288667-2.0385276-13.1464667L27.5447117 13.83492l7.541595 5.1476333L18.3801718 43.26652z" fill="#01D466" mask="url(#b)"/>
      <path d="M21.2002086 11.77308c-1.8283436.6215-3.7976687-.1767333-4.702454-1.8029-.104908-.1881-.0099386-.4257.1980368-.48363333l6.7406135-1.87623334c.2087117-.05793333.412638.0968.4211043.3124.0644172 1.68263334-.975092 3.27836667-2.6573006 3.85036667M19.8544417 1.19144667c-3.7906748-.4378-7.2198773 2.26856666-7.6590184 6.0445-.4391411 3.77593333 2.2777914 7.19180003 6.0680982 7.62923333 3.7906748.4374333 7.2202454-2.2685667 7.6593865-6.0445.4391411-3.77593333-2.2774233-7.1918-6.0684663-7.62923333" fill="#00D665" mask="url(#b)"/>
    </g>
    <g transform="translate(14.355828 13.739733)">
      <mask id="e" fill="#fff">
        <use xlink:href="#c"/>
      </mask>
      <path d="M1.98552147 16.5535333c-3.0390184 4.4176-2.12613497 10.3037 2.03889571 13.1464667L20.730184 5.41603333 13.1893252.2684 1.98552147 16.5535333z" fill="url(#d)" mask="url(#e)"/>
    </g>
    <g transform="translate(0 .173067)">
      <mask id="g" fill="#fff">
        <use xlink:href="#f"/>
      </mask>
      <path d="M37.7664294 2.89952667c-.2506748-.9372-.5672392-1.8392-.9382822-2.70563334l-5.4257668 2.2363c-1.6107976.66366667-2.5546013 2.332-2.3065031 4.05093334.0739877.50966666.1119018 1.0329.1111656 1.56713333-.0066257 5.0424-3.6596319 9.4519333-8.6285889 10.4148-4.2463804.8231667-8.291043-.9372-10.65239265-4.0861333-1.04171779-1.3896667-2.89251534-1.903-4.50110429-1.2397L-.00007362 15.37316C3.68238037 24.5808933 13.7734233 29.8033267 23.6292515 27.1911933c10.6376687-2.8189333 16.9671166-13.695 14.1371779-24.29166663" fill="#01D466" mask="url(#g)"/>
    </g>
  </g>
</svg>
