<svg xmlns="http://www.w3.org/2000/svg" width="40" height="40" viewBox="0 0 40 40">
    <g fill="none" fill-rule="evenodd">
        <path fill="#E6FCF1" d="M20 0c11.046 0 20 8.954 20 20s-8.954 20-20 20S0 31.046 0 20 8.954 0 20 0z"/>
        <path fill="#00D664" d="M26.714 25.562L28 26.801v.04h-6.524v-.04l1.31-1.239a.501.501 0 0 0 .174-.475v-7.915c0-.335 0-.786.058-1.174L18.618 27h-.052l-4.557-10.121c-.099-.253-.128-.27-.192-.44v6.636c-.055.444.02.894.215 1.296l1.833 2.43v.04H11v-.04l1.833-2.436c.194-.4.269-.848.216-1.29V15.74c.03-.36-.079-.72-.303-1.003l-1.298-1.696V13h4.656l3.9 8.572L23.436 13h4.557v.041l-1.28 1.438a.506.506 0 0 0-.198.493v10.115a.47.47 0 0 0 .198.475"/>
    </g>
</svg>
