<?xml version="1.0" encoding="UTF-8"?>
<svg width="533px" height="459px" viewBox="0 0 533 459" version="1.1" xmlns="http://www.w3.org/2000/svg" xmlns:xlink="http://www.w3.org/1999/xlink">
    <!-- Generator: Sketch 55 (78076) - https://sketchapp.com -->
    <title>Group</title>
    <desc>Created with Sketch.</desc>
    <defs>
        <path d="M44.4592798,6.43120988 C44.4592798,9.38725926 46.965651,11.8278025 49.9941828,11.8278025 L49.9941828,11.8278025 C53.033518,11.8278025 55.532687,9.38725926 55.532687,6.43120988 L55.532687,6.43120988 C55.532687,3.47155556 53.033518,1.03101235 49.9941828,1.03101235 L49.9941828,1.03101235 C46.965651,1.03101235 44.4592798,3.47155556 44.4592798,6.43120988 L44.4592798,6.43120988 Z M19.0714681,11.5574321 L1.58448753,32.642716 L1.28919668,33.0104198 C1.06952909,33.3709136 0.925484765,33.7386173 0.925484765,34.1784198 L0.925484765,34.1784198 C0.925484765,35.3464198 1.87617729,36.2909136 3.05734072,36.2909136 L3.05734072,36.2909136 L7.9800554,36.2909136 L9.5933518,36.2909136 L9.96426593,36.2909136 L24.1454294,36.2909136 L27.8941828,36.2909136 L29.1437673,36.2909136 L29.4390582,36.2909136 L40.0947368,36.2909136 L47.1457064,36.2909136 L47.4409972,36.2909136 L49.7204986,36.2909136 L52.4393352,36.2909136 C53.3216066,36.2909136 54.0526316,35.562716 54.0526316,34.686716 L54.0526316,34.686716 C54.0526316,34.3190123 53.9806094,34.0306173 53.7609418,33.7386173 L53.7609418,33.7386173 L53.465651,33.518716 L40.0947368,17.3938272 C39.6518006,16.8819259 38.9891967,16.5178272 38.1825485,16.5178272 L38.1825485,16.5178272 C37.4479224,16.5178272 36.7132964,16.8819259 36.2703601,17.3938272 L36.2703601,17.3938272 L34.5094183,19.5099259 C34.433795,19.5820247 34.3617729,19.7298272 34.2861496,19.8019259 L34.2861496,19.8019259 C33.8504155,20.2381235 33.2562327,20.5301235 32.5936288,20.5301235 L32.5936288,20.5301235 C31.934626,20.5301235 31.4196676,20.3102222 30.9803324,19.8704198 L30.9803324,19.8704198 C30.8362881,19.7298272 30.6850416,19.5820247 30.6130194,19.4378272 L30.6130194,19.4378272 L24.0698061,11.5574321 C23.4828255,10.8256296 22.6041551,10.3858272 21.5742382,10.3858272 L21.5742382,10.3858272 C20.5443213,10.3858272 19.6584488,10.8256296 19.0714681,11.5574321 L19.0714681,11.5574321 Z" id="path-1"></path>
        <path d="M53.8617729,6.7917037 C53.8617729,10.4182716 56.9299169,13.4139753 60.6498615,13.4139753 L60.6498615,13.4139753 C64.3770083,13.4139753 67.4415512,10.4182716 67.4415512,6.7917037 L67.4415512,6.7917037 C67.4415512,3.16153086 64.3770083,0.169432099 60.6498615,0.169432099 L60.6498615,0.169432099 C56.9299169,0.169432099 53.8617729,3.16153086 53.8617729,6.7917037 L53.8617729,6.7917037 Z M22.7121884,13.0751111 L1.2531856,38.951358 L0.893074792,39.4019753 C0.62299169,39.8453827 0.442936288,40.2923951 0.442936288,40.8331358 L0.442936288,40.8331358 C0.442936288,42.2606914 1.6132964,43.4286914 3.06094183,43.4286914 L3.06094183,43.4286914 L9.1,43.4286914 L11.0842105,43.4286914 L11.534349,43.4286914 L28.934903,43.4286914 L33.533518,43.4286914 L35.06759,43.4286914 L35.4277008,43.4286914 L48.499723,43.4286914 L57.1567867,43.4286914 L57.5168975,43.4286914 L60.3149584,43.4286914 L63.6495845,43.4286914 C64.733518,43.4286914 65.6373961,42.5310617 65.6373961,41.4567901 L65.6373961,41.4567901 C65.6373961,41.0097778 65.5437673,40.6528889 65.2736842,40.2923951 L65.2736842,40.2923951 L64.9099723,40.0256296 L48.499723,20.2381235 C47.9595568,19.6144691 47.1457064,19.1638519 46.1554017,19.1638519 L46.1554017,19.1638519 C45.2551247,19.1638519 44.3548476,19.6144691 43.8146814,20.2381235 L43.8146814,20.2381235 L41.6468144,22.833679 C41.5603878,22.9238025 41.466759,23.1040494 41.3767313,23.1941728 L41.3767313,23.1941728 C40.8401662,23.7313086 40.1163435,24.0881975 39.3060942,24.0881975 L39.3060942,24.0881975 C38.4922438,24.0881975 37.865651,23.8214321 37.3218837,23.2806914 L37.3218837,23.2806914 C37.1382271,23.1040494 36.9617729,22.9238025 36.8717452,22.7471605 L36.8717452,22.7471605 L28.8484765,13.0751111 C28.1210526,12.1846914 27.0407202,11.6439506 25.7803324,11.6439506 L25.7803324,11.6439506 C24.5163435,11.6439506 23.4360111,12.1846914 22.7121884,13.0751111 L22.7121884,13.0751111 Z" id="path-3"></path>
    </defs>
    <g id="landing-page" stroke="none" stroke-width="1" fill="none" fill-rule="evenodd">
        <g id="yupi_there/subpage/desktop" transform="translate(-722.000000, -173.000000)">
            <g id="header">
                <g id="Group" transform="translate(711.678308, 173.899495)">
                    <g id="illustration" transform="translate(105.321692, 99.100505)">
                        <g id="Group-11" transform="translate(63.019391, 0.079309)">
                            <path d="M216.698837,80.1500346 L216.698837,123.409294 C216.698837,135.30559 206.979446,145.038923 195.092188,145.038923 L22.2390028,145.038923 C10.3553463,145.038923 0.632354571,135.30559 0.632354571,123.409294 L0.632354571,22.4710222 C0.632354571,10.5747259 10.3553463,0.841392593 22.2390028,0.841392593 L195.092188,0.841392593 C206.979446,0.841392593 216.698837,10.5747259 216.698837,22.4710222 L216.698837,35.3370469" id="Stroke-1" stroke="#19243B" stroke-linecap="round" stroke-linejoin="round"></path>
                            <path d="M216.698837,58.9638123 L216.698837,68.794479" id="Stroke-3" stroke="#19243B" stroke-width="0.9" stroke-linecap="round" stroke-linejoin="round"></path>
                            <path d="M246.995319,185.390079 L146.164294,185.390079 C138.241856,185.390079 131.759861,178.90119 131.759861,170.970326 L131.759861,113.291314 C131.759861,105.360449 138.241856,98.8715605 146.164294,98.8715605 L246.995319,98.8715605 C254.917756,98.8715605 261.399751,105.360449 261.399751,113.291314 L261.399751,170.970326 C261.399751,178.90119 254.917756,185.390079 246.995319,185.390079" id="Fill-5" fill="#D7E6F2"></path>
                            <path d="M246.995319,185.390079 L146.164294,185.390079 C138.241856,185.390079 131.759861,178.90119 131.759861,170.970326 L131.759861,113.291314 C131.759861,105.360449 138.241856,98.8715605 146.164294,98.8715605 L246.995319,98.8715605 C254.917756,98.8715605 261.399751,105.360449 261.399751,113.291314 L261.399751,170.970326 C261.399751,178.90119 254.917756,185.390079 246.995319,185.390079 Z" id="Stroke-7" stroke="#19243B" stroke-linecap="round" stroke-linejoin="round"></path>
                            <path d="M221.819252,156.987131 L222.114543,157.207032 C222.334211,157.499032 222.406233,157.791032 222.406233,158.155131 C222.406233,159.031131 221.671607,159.762933 220.792936,159.762933 L218.070499,159.762933 L215.794598,159.762933 L215.499307,159.762933 L208.444737,159.762933 L197.789058,159.762933 L197.493767,159.762933 L196.244183,159.762933 L192.495429,159.762933 L178.314266,159.762933 L177.943352,159.762933 L176.330055,159.762933 L171.407341,159.762933 C170.229778,159.762933 169.275485,158.81123 169.275485,157.646835 C169.275485,157.207032 169.419529,156.842933 169.642798,156.47523 L169.938089,156.111131 L187.425069,135.025847 C188.01205,134.294044 188.894321,133.854242 189.927839,133.854242 C190.954155,133.854242 191.836427,134.294044 192.423407,135.025847 L198.963019,142.906242 C199.038643,143.05044 199.186288,143.198242 199.333934,143.34244 C199.773269,143.778637 200.288227,143.998538 200.94723,143.998538 C201.609834,143.998538 202.200416,143.706538 202.639751,143.270341 C202.711773,143.198242 202.787396,143.05044 202.859418,142.978341 L204.623961,140.862242 C205.066898,140.350341 205.801524,139.986242 206.53615,139.986242 C207.339197,139.986242 208.001801,140.350341 208.444737,140.862242 L221.819252,156.987131 Z M218.347784,124.503032 C221.383518,124.503032 223.882687,126.943575 223.882687,129.899625 C223.882687,132.855674 221.383518,135.296217 218.347784,135.296217 C215.315651,135.296217 212.812881,132.855674 212.812881,129.899625 C212.812881,126.943575 215.315651,124.503032 218.347784,124.503032 L218.347784,124.503032 Z" id="Fill-9" fill="#FFFFFF"></path>
                        </g>
                        <g id="Group-15" transform="translate(231.371191, 123.548444)">
                            <mask id="mask-2" fill="white">
                                <use xlink:href="#path-1"></use>
                            </mask>
                            <g id="Clip-13"></g>
                            <polygon id="Fill-12" fill="#FFFFFF" mask="url(#mask-2)" points="-476.386981 832.405481 271.519945 832.405481 271.519945 -1299.32069 -476.386981 -1299.32069"></polygon>
                            <polygon id="Stroke-14" stroke="#19243B" stroke-width="3.6" stroke-linecap="round" stroke-linejoin="round" mask="url(#mask-2)" points="-476.386981 832.405481 271.519945 832.405481 271.519945 -1299.32069 -476.386981 -1299.32069"></polygon>
                        </g>
                        <g id="Group-20" transform="translate(137.742382, 42.437333)">
                            <path d="M147.09626,114.629106 L147.391551,114.849007 C147.611219,115.141007 147.683241,115.433007 147.683241,115.797106 C147.683241,116.673106 146.948615,117.404909 146.069945,117.404909 L143.347507,117.404909 L141.071607,117.404909 L140.776316,117.404909 L133.721745,117.404909 L123.066066,117.404909 L122.770776,117.404909 L121.521191,117.404909 L117.772438,117.404909 L103.591274,117.404909 L103.22036,117.404909 L101.607064,117.404909 L96.684349,117.404909 C95.5067867,117.404909 94.5524931,116.453205 94.5524931,115.28881 C94.5524931,114.849007 94.6965374,114.484909 94.9198061,114.117205 L95.215097,113.753106 L112.702078,92.6678222 C113.289058,91.9360198 114.17133,91.4962173 115.204848,91.4962173 C116.231163,91.4962173 117.113435,91.9360198 117.700416,92.6678222 L124.240028,100.548217 C124.315651,100.692415 124.463296,100.840217 124.610942,100.984415 C125.050277,101.420612 125.565235,101.640514 126.224238,101.640514 C126.886842,101.640514 127.477424,101.348514 127.916759,100.912316 C127.988781,100.840217 128.064404,100.692415 128.136427,100.620316 L129.90097,98.5042173 C130.343906,97.992316 131.078532,97.6282173 131.813158,97.6282173 C132.616205,97.6282173 133.278809,97.992316 133.721745,98.5042173 L147.09626,114.629106 Z M143.624792,82.1450074 C146.660526,82.1450074 149.159695,84.5855506 149.159695,87.5416 C149.159695,90.4976494 146.660526,92.9381926 143.624792,92.9381926 C140.592659,92.9381926 138.089889,90.4976494 138.089889,87.5416 C138.089889,84.5855506 140.592659,82.1450074 143.624792,82.1450074 Z" id="Stroke-16" stroke="#19243B" stroke-width="0.9" stroke-linecap="round" stroke-linejoin="round"></path>
                            <path d="M64.9106925,40.0256296 L65.2744044,40.2923951 C65.5444875,40.6528889 65.6345152,41.0097778 65.6345152,41.4567901 C65.6345152,42.5310617 64.7306371,43.4250864 63.6467036,43.4250864 L60.3156787,43.4250864 L57.5176177,43.4250864 L57.1575069,43.4250864 L48.5004432,43.4250864 L35.4248199,43.4250864 L35.0683102,43.4250864 L33.5342382,43.4250864 L28.9356233,43.4250864 L11.5350693,43.4250864 L11.0849307,43.4250864 L9.10072022,43.4250864 L3.05806094,43.4250864 C1.61401662,43.4250864 0.44365651,42.2642963 0.44365651,40.8295309 C0.44365651,40.2923951 0.620110803,39.8453827 0.893795014,39.3983704 L1.25390582,38.951358 L22.7129086,13.0751111 C23.4331302,12.1810864 24.5170637,11.6439506 25.7810526,11.6439506 C27.0414404,11.6439506 28.1217729,12.1810864 28.8455956,13.0751111 L36.8724654,22.7471605 C36.958892,22.9238025 37.1389474,23.1040494 37.3226039,23.2806914 C37.8627701,23.8214321 38.492964,24.0881975 39.3068144,24.0881975 C40.1170637,24.0881975 40.8372853,23.7313086 41.3774515,23.1941728 C41.4674792,23.1040494 41.561108,22.9238025 41.6475346,22.833679 L43.8154017,20.2381235 C44.3555679,19.6108642 45.2558449,19.1638519 46.1561219,19.1638519 C47.1464266,19.1638519 47.960277,19.6108642 48.5004432,20.2381235 L64.9106925,40.0256296 Z M60.6505817,0.16582716 C64.3777285,0.16582716 67.4422715,3.16153086 67.4422715,6.78809877 C67.4422715,10.4182716 64.3777285,13.4103704 60.6505817,13.4103704 C56.9306371,13.4103704 53.8624931,10.4182716 53.8624931,6.78809877 C53.8624931,3.16153086 56.9306371,0.16582716 60.6505817,0.16582716 L60.6505817,0.16582716 Z" id="Fill-18" fill="#D7E6F2"></path>
                        </g>
                        <g id="Group-24" transform="translate(137.742382, 42.437333)">
                            <mask id="mask-4" fill="white">
                                <use xlink:href="#path-3"></use>
                            </mask>
                            <g id="Clip-22"></g>
                            <polygon id="Fill-21" fill="#D7E6F2" mask="url(#mask-4)" points="-585.180055 1020.19753 332.44349 1020.19753 332.44349 -1595.26089 -585.180055 -1595.26089"></polygon>
                            <polygon id="Stroke-23" stroke="#19243B" stroke-width="3.6" stroke-linecap="round" stroke-linejoin="round" mask="url(#mask-4)" points="-585.180055 1020.19753 332.44349 1020.19753 332.44349 -1595.26089 -585.180055 -1595.26089"></polygon>
                        </g>
                        <g id="Group-67" transform="translate(0.000000, 24.412642)">
                            <path d="M202.653075,58.050321 L203.016787,58.3170864 C203.28687,58.6775802 203.376898,59.0344691 203.376898,59.4814815 C203.376898,60.5557531 202.473019,61.4497778 201.389086,61.4497778 L198.058061,61.4497778 L195.26,61.4497778 L194.899889,61.4497778 L186.242825,61.4497778 L173.167202,61.4497778 L172.810693,61.4497778 L171.27662,61.4497778 L166.678006,61.4497778 L149.277452,61.4497778 L148.827313,61.4497778 L146.843102,61.4497778 L140.800443,61.4497778 C139.356399,61.4497778 138.186039,60.2889877 138.186039,58.8542222 C138.186039,58.3170864 138.362493,57.8700741 138.636177,57.4230617 L138.996288,56.9760494 L160.455291,31.0998025 C161.175512,30.2057778 162.259446,29.668642 163.523435,29.668642 C164.783823,29.668642 165.864155,30.2057778 166.587978,31.0998025 L174.614848,40.7718519 C174.701274,40.9484938 174.88133,41.1287407 175.064986,41.3053827 C175.605152,41.8461235 176.235346,42.1128889 177.049197,42.1128889 C177.859446,42.1128889 178.579668,41.756 179.119834,41.2188642 C179.209861,41.1287407 179.30349,40.9484938 179.389917,40.8583704 L181.557784,38.2628148 C182.09795,37.6355556 182.998227,37.1885432 183.898504,37.1885432 C184.888809,37.1885432 185.702659,37.6355556 186.242825,38.2628148 L202.653075,58.050321 Z M198.392964,18.1905185 C202.120111,18.1905185 205.184654,21.1862222 205.184654,24.8127901 C205.184654,28.442963 202.120111,31.4350617 198.392964,31.4350617 C194.673019,31.4350617 191.604875,28.442963 191.604875,24.8127901 C191.604875,21.1862222 194.673019,18.1905185 198.392964,18.1905185 Z" id="Stroke-25" stroke="#19243B" stroke-linecap="round" stroke-linejoin="round"></path>
                            <path d="M161.78554,87.6097333 L94.2647645,87.6097333" id="Stroke-27" stroke="#19243B" stroke-linecap="round" stroke-linejoin="round"></path>
                            <path d="M132.973075,98.4245481 L94.2647645,98.4245481" id="Stroke-29" stroke="#19243B" stroke-linecap="round" stroke-linejoin="round"></path>
                            <path d="M122.169751,2.44306667 L94.2647645,2.44306667" id="Stroke-31" stroke="#19243B" stroke-linecap="round" stroke-linejoin="round"></path>
                            <path d="M48.7301939,187.16443 C48.3196676,187.730405 47.8083102,188.245911 47.1745152,188.62443 C46.1049861,189.327393 44.8157895,190.05559 43.2853186,190.733319 L30.5734072,145.228183 L41.9493075,145.311096 C41.9493075,150.743738 42.3130194,155.477022 42.8963989,159.532578 C44.3800554,170.18517 47.2753463,176.349615 48.8778393,179.132627 C50.3578947,181.56596 50.4803324,184.893319 48.7301939,187.16443" id="Fill-33" fill="#D7E6F2"></path>
                            <path d="M43.3425762,159.530775 L42.8852355,159.530775 C42.2982548,155.47522 41.9489474,150.738331 41.9489474,145.309294 L48.3301108,145.309294 L49.5328809,150.705886 C50.5519945,155.17601 47.4946537,159.530775 43.3425762,159.530775" id="Fill-35" fill="#D7E6F2"></path>
                            <path d="M43.3425762,159.530775 L42.8852355,159.530775 C42.2982548,155.47522 41.9489474,150.738331 41.9489474,145.309294 L48.3301108,145.309294 L49.5328809,150.705886 C50.5519945,155.17601 47.4946537,159.530775 43.3425762,159.530775 Z" id="Stroke-37" stroke="#19243B" stroke-width="0.9" stroke-linecap="round" stroke-linejoin="round"></path>
                            <path d="M102.57108,72.7833432 L102.57108,168.144775 C93.0569529,162.214652 64.5685873,145.311096 48.32759,145.311096 L48.32759,95.6458617 C63.7115235,95.6458617 92.894903,78.6846272 102.57108,72.7833432" id="Fill-39" fill="#D7E6F2"></path>
                            <path d="M102.57108,72.7833432 L102.57108,168.144775 C93.0569529,162.214652 64.5685873,145.311096 48.32759,145.311096 L48.32759,95.6458617 C63.7115235,95.6458617 92.894903,78.6846272 102.57108,72.7833432 Z" id="Stroke-41" stroke="#19243B" stroke-linecap="round" stroke-linejoin="round"></path>
                            <path d="M10.0571745,104.233185 L10.0571745,136.753333 C4.42864266,134.01358 0.489030471,127.751802 0.489030471,120.477037 C0.489030471,113.205877 4.42864266,106.944099 10.0571745,104.233185" id="Fill-43" fill="#D7E6F2"></path>
                            <path d="M10.0571745,104.233185 L10.0571745,136.753333 C4.42864266,134.01358 0.489030471,127.751802 0.489030471,120.477037 C0.489030471,113.205877 4.42864266,106.944099 10.0571745,104.233185 Z" id="Stroke-45" stroke="#19243B" stroke-linecap="round" stroke-linejoin="round"></path>
                            <path d="M124.895069,120.478479 C124.895069,126.350923 120.609751,131.120257 115.330526,131.120257 L115.330526,109.836701 C120.609751,109.836701 124.895069,114.606035 124.895069,120.478479" id="Fill-47" fill="#D7E6F2"></path>
                            <path d="M124.895069,120.478479 C124.895069,126.350923 120.609751,131.120257 115.330526,131.120257 L115.330526,109.836701 C120.609751,109.836701 124.895069,114.606035 124.895069,120.478479 Z" id="Stroke-49" stroke="#19243B" stroke-width="0.9" stroke-linecap="round" stroke-linejoin="round"></path>
                            <path d="M20.406759,163.859225 L18.7970637,158.282385" id="Stroke-51" stroke="#19243B" stroke-linecap="round" stroke-linejoin="round"></path>
                            <path d="M16.5420499,150.474449 L14.9863712,145.103091 C15.4437119,145.250894 15.9514681,145.308573 16.4376177,145.308573 L41.9514681,145.308573 C41.9514681,150.73761 42.2971745,155.474499 42.8841551,159.530054 C44.3606094,170.171832 47.2559003,176.343486 48.8655956,179.115684 C50.3384488,181.559832 50.4716898,184.898005 48.7287535,187.165511 C48.3002216,187.727881 47.7924654,188.236178 47.1766759,188.625511 C44.148144,190.590202 39.3226593,192.886548 32.5669806,193.484968 C30.5323546,193.66161 28.6057618,192.259289 28.3068698,191.192227 L21.9185042,169.090351" id="Stroke-53" stroke="#19243B" stroke-linecap="round" stroke-linejoin="round"></path>
                            <path d="M48.3293906,95.6469432 L48.3293906,145.308573 L16.4379778,145.308573 C15.9518283,145.308573 15.444072,145.250894 14.9867313,145.103091 C12.1742659,144.385709 10.0568144,141.584672 10.0568144,138.217659 L10.0568144,102.741462 C10.0568144,98.8373136 12.9232964,95.6469432 16.4379778,95.6469432 L19.4052909,95.6469432 L48.3293906,95.6469432 Z" id="Fill-55" fill="#FFFFFF"></path>
                            <path d="M48.3293906,95.6469432 L48.3293906,145.308573 L16.4379778,145.308573 C15.9518283,145.308573 15.444072,145.250894 14.9867313,145.103091 C12.1742659,144.385709 10.0568144,141.584672 10.0568144,138.217659 L10.0568144,102.741462 C10.0568144,98.8373136 12.9232964,95.6469432 16.4379778,95.6469432 L19.4052909,95.6469432 L48.3293906,95.6469432 Z" id="Stroke-57" stroke="#19243B" stroke-linecap="round" stroke-linejoin="round"></path>
                            <path d="M115.329806,70.8154074 L115.329806,170.171111 C115.329806,174.078864 112.459723,177.26563 108.952244,177.26563 C105.412355,177.26563 102.57108,174.078864 102.57108,170.171111 L102.57108,70.8154074 C102.57108,66.8824198 105.412355,63.7208889 108.952244,63.7208889 C110.691579,63.7208889 112.297673,64.5247901 113.453629,65.7793086 C114.605983,67.0879012 115.329806,68.850716 115.329806,70.8154074" id="Fill-59" fill="#FFFFFF"></path>
                            <path d="M115.329806,70.8154074 L115.329806,170.171111 C115.329806,174.078864 112.459723,177.26563 108.952244,177.26563 C105.412355,177.26563 102.57108,174.078864 102.57108,170.171111 L102.57108,70.8154074 C102.57108,66.8824198 105.412355,63.7208889 108.952244,63.7208889 C110.691579,63.7208889 112.297673,64.5247901 113.453629,65.7793086 C114.605983,67.0879012 115.329806,68.850716 115.329806,70.8154074 Z" id="Stroke-61" stroke="#19243B" stroke-linecap="round" stroke-linejoin="round"></path>
                            <path d="M96.0898061,152.722128 L96.0898061,129.470277" id="Stroke-63" stroke="#19243B" stroke-linecap="round" stroke-linejoin="round"></path>
                            <path d="M96.0898061,122.437402 L96.0898061,116.492859" id="Stroke-65" stroke="#19243B" stroke-linecap="round" stroke-linejoin="round"></path>
                        </g>
                    </g>
                    <g id="background_shapes">
                        <polygon id="Triangle" stroke="#19243B" stroke-width="0.8" stroke-linecap="round" stroke-linejoin="round" transform="translate(18.500000, 392.847414) rotate(-40.000000) translate(-18.500000, -392.847414) " points="18.5 381.847414 33 403.847414 4 403.847414"></polygon>
                        <path d="M359.874251,372.626785 C359.874251,384.777049 369.723986,394.626785 381.874251,394.626785 C394.024515,394.626785 403.874251,384.777049 403.874251,372.626785 L359.874251,372.626785 Z" id="Path" stroke="#19243B" stroke-linecap="round" stroke-linejoin="round" transform="translate(381.874251, 383.626785) rotate(-30.000000) translate(-381.874251, -383.626785) "></path>
                        <path d="M501.321692,86.5836687 C501.321692,94.3156552 507.589705,100.583669 515.321692,100.583669 C523.053678,100.583669 529.321692,94.3156552 529.321692,86.5836687 L501.321692,86.5836687 Z" id="Path" fill="#E9F4FE" fill-rule="nonzero" transform="translate(515.321692, 93.583669) rotate(55.000000) translate(-515.321692, -93.583669) "></path>
                        <rect id="Rectangle" fill="#E9F4FE" fill-rule="nonzero" transform="translate(115.949109, 58.473088) rotate(-45.000000) translate(-115.949109, -58.473088) " x="99.9491089" y="42.4730881" width="32" height="32"></rect>
                        <rect id="Rectangle" stroke="#19243B" stroke-linecap="round" stroke-linejoin="round" transform="translate(104.221187, 10.000000) rotate(-45.000000) translate(-104.221187, -10.000000) " x="97.2211868" y="3" width="14" height="14"></rect>
                        <circle id="Oval" fill="#E9F4FE" fill-rule="nonzero" cx="528.321692" cy="416.100505" r="14"></circle>
                        <circle id="Oval" stroke="#19243B" stroke-linecap="round" stroke-linejoin="round" cx="536.321692" cy="451.100505" r="6"></circle>
                        <circle id="Oval" stroke="#19243B" stroke-linecap="round" stroke-linejoin="round" cx="529.321692" cy="54.1005051" r="6"></circle>
                        <circle id="Oval" stroke="#D7E6F2" stroke-linecap="round" stroke-linejoin="round" cx="102.321692" cy="376.100505" r="26"></circle>
                        <circle id="Oval" stroke="#D7E6F2" stroke-linecap="round" stroke-linejoin="round" cx="517.321692" cy="289.100505" r="20"></circle>
                    </g>
                </g>
            </g>
        </g>
    </g>
</svg>
