<svg width="533" height="443" xmlns="http://www.w3.org/2000/svg">
  <g fill="none" fill-rule="evenodd">
    <g transform="translate(-10.321692 .899495)">
      <path stroke="#19243B" stroke-width=".8" stroke-linecap="round" stroke-linejoin="round" d="M11.4293363 368.42092513l25.24897183 7.5325574-22.21528885 18.64084068z"/>
      <path d="M357.32169212 369.10050556c6.075132 10.52243729 19.53012073 14.12769138 30.05255888 8.05255888 10.52243729-6.075132 14.12769088-19.5301216 8.05255888-30.05255888l-38.10511776 22z" stroke="#19243B" stroke-linecap="round" stroke-linejoin="round"/>
      <path d="M513.02568645 62.10050515c-6.33367255 4.43488527-7.87294406 13.16452577-3.43805851 19.49819873 4.43488497 6.33367214 13.16452618 7.87294378 19.49819872 3.43805851l-16.06014021-22.93625724zM29.321692 58.47308814l22.627417-22.627417 22.627417 22.627417-22.627417 22.627417z" fill="#E9F4FE" fill-rule="nonzero"/>
      <path stroke="#19243B" stroke-linecap="round" stroke-linejoin="round" d="M30.32169192 10.00000014L40.22118686.1005052l9.89949494 9.89949494-9.89949494 9.89949494z"/>
      <circle fill="#E9F4FE" fill-rule="nonzero" cx="528.321692" cy="400.100505" r="14"/>
      <circle stroke="#19243B" stroke-linecap="round" stroke-linejoin="round" cx="536.321692" cy="435.100505" r="6"/>
      <circle stroke="#19243B" stroke-linecap="round" stroke-linejoin="round" cx="529.321692" cy="38.1005051" r="6"/>
      <circle stroke="#D7E6F2" stroke-linecap="round" stroke-linejoin="round" cx="102.321692" cy="360.100505" r="26"/>
      <circle stroke="#D7E6F2" stroke-linecap="round" stroke-linejoin="round" cx="517.321692" cy="273.100505" r="20"/>
    </g>
    <path d="M169.57423112 138v-16.8774239h-5.81939925v-6.5774816h5.81939925v-4.85069155c0-5.62919681 3.52274528-8.69440295 8.66797228-8.69440295 2.4646154 0 4.5828308.1790884 5.2001285.25913455v5.88284022l-3.5684879.00158091c-2.7982638 0-3.3400762 1.29774977-3.3400762 3.20211455v4.19942427h6.6735955l-.8689297 6.5774816h-5.8046744V138h-6.95952808z" fill-rule="nonzero" stroke="#19243B"/>
    <path d="M423.164097 122.4124568V196.39664M423.164097 225.704011v25.307936c0 10.792516-8.746291 19.542808-19.533871 19.542808H130.1462652c-10.7875803 0-19.533871-8.750292-19.533871-19.542808V84.8931979c0-10.7925154 8.7462907-19.5428075 19.533871-19.5428075H403.630226c10.78758 0 19.533871 8.7502921 19.533871 19.5428075v21.1746319" stroke="#19243B" stroke-linecap="round" stroke-linejoin="round"/>
    <path d="M183.33328 300.210965c0 5.393815-4.370704 9.771404-9.7669357 9.771404-5.3913484 0-9.7669355-4.377589-9.7669355-9.771404s4.3755871-9.771404 9.7669355-9.771404c5.3962317 0 9.7669357 4.377589 9.7669357 9.771404" fill="#D7E6F2"/>
    <path d="M183.33328 300.210965c0 5.393815-4.370704 9.771404-9.7669357 9.771404-5.3913484 0-9.7669355-4.377589-9.7669355-9.771404s4.3755871-9.771404 9.7669355-9.771404c5.3962317 0 9.7669357 4.377589 9.7669357 9.771404zM173.5663443 270.710608v19.728465" stroke="#19243B" stroke-linecap="round" stroke-linejoin="round"/>
    <path fill="#D7E6F2" d="M247.355351 285.520148h39.067742v-14.964905h-39.067742z"/>
    <path stroke="#19243B" stroke-linecap="round" stroke-linejoin="round" d="M247.355351 319.412262h39.067742v-48.857019h-39.067742z"/>
    <path d="M95.6616577 309.982369c0 5.393815-4.3755871 9.771403-9.76693549 9.771403s-9.76693548-4.377588-9.76693548-9.771403c0-5.393815 4.37558709-9.771404 9.76693548-9.771404 5.39134839 0 9.76693549 4.377589 9.76693549 9.771404" fill="#D7E6F2"/>
    <path d="M95.6616577 309.982369c0 5.393815-4.3755871 9.771403-9.76693549 9.771403s-9.76693548-4.377588-9.76693548-9.771403c0-5.393815 4.37558709-9.771404 9.76693548-9.771404 5.39134839 0 9.76693549 4.377589 9.76693549 9.771404z" stroke="#19243B" stroke-linecap="round" stroke-linejoin="round"/>
    <path d="M440.849014 52.7447486c0 13.4894229-10.9292 24.4285094-24.417338 24.4285094-13.483255 0-24.417339-10.9390865-24.417339-24.4285094 0-13.4943085 10.934084-24.42850931 24.417339-24.42850931 13.488138 0 24.417338 10.93420081 24.417338 24.42850931" fill="#FFF"/>
    <path d="M440.849014 52.7447486c0 13.4894229-10.9292 24.4285094-24.417338 24.4285094-13.483255 0-24.417339-10.9390865-24.417339-24.4285094 0-13.4943085 10.934084-24.42850931 24.417339-24.42850931 13.488138 0 24.417338 10.93420081 24.417338 24.42850931z" stroke="#19243B" stroke-linecap="round" stroke-linejoin="round"/>
    <path d="M395.042575 64.4699445c4.155831 7.5728379 12.159835 12.7028249 21.389589 12.7028249 13.483254 0 24.417339-10.9439722 24.417339-24.4285093 0-9.2339766-5.127641-17.24652764-12.697016-21.39937423 1.855717 3.46884833 2.93008 7.42626683 2.93008 11.62797043 0 13.4845372-10.934084 24.4285094-24.417339 24.4285094-4.194898 0-8.155391-1.0748544-11.622653-2.9314212" fill="#D7E6F2"/>
    <path d="M440.849014 52.7447486c0 13.4894229-10.9292 24.4285094-24.417338 24.4285094-13.483255 0-24.417339-10.9390865-24.417339-24.4285094 0-13.4943085 10.934084-24.42850931 24.417339-24.42850931 13.488138 0 24.417338 10.93420081 24.417338 24.42850931z" stroke="#19243B" stroke-linecap="round" stroke-linejoin="round"/>
    <path d="M335.261677 334.069856H198.514814c-2.695675 0-4.883468-2.188794-4.883468-4.885702v-4.885702c0-2.696907 2.187793-4.885702 4.883468-4.885702h136.746863c2.695674 0 4.883468 2.188795 4.883468 4.885702v4.885702c0 2.696908-2.187794 4.885702-4.883468 4.885702" fill="#D7E6F2"/>
    <path d="M335.261677 334.069856H198.514814c-2.695675 0-4.883468-2.188794-4.883468-4.885702v-4.885702c0-2.696907 2.187793-4.885702 4.883468-4.885702h136.746863c2.695674 0 4.883468 2.188795 4.883468 4.885702v4.885702c0 2.696908-2.187794 4.885702-4.883468 4.885702z" stroke="#19243B" stroke-linecap="round" stroke-linejoin="round"/>
    <g>
      <path d="M344.6594979 98.07692358c0 3.63282052-2.9465233 6.58119662-6.57706097 6.58119662-3.63053763 0-6.57706093-2.9483761-6.57706093-6.58119662 0-3.63282051 2.9465233-6.58119658 6.57706093-6.58119658 3.63053767 0 6.57706097 2.94837607 6.57706097 6.58119658" fill="#D7E6F2"/>
      <path d="M344.6594979 98.07692358c0 3.63282052-2.9465233 6.58119662-6.57706097 6.58119662-3.63053763 0-6.57706093-2.9483761-6.57706093-6.58119662 0-3.63282051 2.9465233-6.58119658 6.57706093-6.58119658 3.63053767 0 6.57706097 2.94837607 6.57706097 6.58119658z" stroke="#19243B" stroke-linecap="round" stroke-linejoin="round"/>
      <path d="M367.021505 98.07692358c0 3.63282052-2.9465233 6.58119662-6.5770609 6.58119662-3.6305376 0-6.5770609-2.9483761-6.5770609-6.58119662 0-3.63282051 2.9465233-6.58119658 6.5770609-6.58119658 3.6305376 0 6.5770609 2.94837607 6.5770609 6.58119658" fill="#D7E6F2"/>
      <path d="M367.021505 98.07692358c0 3.63282052-2.9465233 6.58119662-6.5770609 6.58119662-3.6305376 0-6.5770609-2.9483761-6.5770609-6.58119662 0-3.63282051 2.9465233-6.58119658 6.5770609-6.58119658 3.6305376 0 6.5770609 2.94837607 6.5770609 6.58119658z" stroke="#19243B" stroke-linecap="round" stroke-linejoin="round"/>
      <path d="M389.3835122 98.07692358c0 3.63282052-2.9465233 6.58119662-6.5770609 6.58119662-3.6305377 0-6.577061-2.9483761-6.577061-6.58119662 0-3.63282051 2.9465233-6.58119658 6.577061-6.58119658 3.6305376 0 6.5770609 2.94837607 6.5770609 6.58119658" fill="#D7E6F2"/>
      <path d="M389.3835122 98.07692358c0 3.63282052-2.9465233 6.58119662-6.5770609 6.58119662-3.6305377 0-6.577061-2.9483761-6.577061-6.58119662 0-3.63282051 2.9465233-6.58119658 6.577061-6.58119658 3.6305376 0 6.5770609 2.94837607 6.5770609 6.58119658z" stroke="#19243B" stroke-linecap="round" stroke-linejoin="round"/>
      <path d="M346 255.025641H147.4134407c-11.6118011 0-21.1123656-8.818803-21.1123656-19.597341V100.2469139c0-10.77853748 9.5005645-19.5973409 21.1123656-19.5973409H385.686917c11.611801 0 21.112366 8.81880342 21.112366 19.5973409V192" stroke="#19243B" stroke-linecap="round" stroke-linejoin="round"/>
      <path fill="#FFF" d="M161.8172041 232.333334h23.6774194v-82.9230772h-23.6774194z"/>
      <path d="M373.375795 119.1367525c4.482861 0 8.115244 3.5348923 8.115244 7.8974359 0 4.3625436-3.632383 7.8974359-8.115244 7.8974359H206.609868c-4.482861 0-8.115245-3.5348923-8.115245-7.8974359 0-4.3625436 3.632384-7.8974359 8.115245-7.8974359h166.765927z" fill="#D7E6F2"/>
      <path d="M206.609868 119.1367525h166.765927c4.482861 0 8.115244 3.5348923 8.115244 7.8974359 0 4.3625436-3.632383 7.8974359-8.115244 7.8974359H206.609868c-4.482861 0-8.115245-3.5348923-8.115245-7.8974359 0-4.3625436 3.632384-7.8974359 8.115245-7.8974359zM314.405018 161.2564106H198.648745M282.835125 170.4700858h-84.18638M267.050179 149.4102568h-68.401434M293.358423 127.0341884h-81.709678M322.297491 200.74359H198.648745M310.458781 209.957265H198.648745M253.896057 188.897436h-55.247312M253.896057 228.384616h-55.247312M161.8172041 232.333334h23.6774194v-82.9230772h-23.6774194z" stroke="#19243B" stroke-linecap="round" stroke-linejoin="round"/>
      <path d="M132.5928823 139.5124137c0 9.4440617-7.6523939 17.0999566-17.0921371 17.0999566-9.44462659 0-17.09213707-7.6558949-17.09213707-17.0999566 0-9.4440617 7.64751048-17.0999565 17.09213707-17.0999565 9.4397432 0 17.0921371 7.6558948 17.0921371 17.0999565" fill="#FFF"/>
      <path d="M132.5928823 139.5124137c0 9.4440617-7.6523939 17.0999566-17.0921371 17.0999566-9.44462659 0-17.09213707-7.6558949-17.09213707-17.0999566 0-9.4440617 7.64751048-17.0999565 17.09213707-17.0999565 9.4397432 0 17.0921371 7.6558948 17.0921371 17.0999565z" stroke="#19243B" stroke-linecap="round" stroke-linejoin="round"/>
    </g>
    <path d="M370.777778 181h-36.555556C331.35 181 329 178.6 329 175.666667v-21.333334C329 151.4 331.35 149 334.222222 149h36.555556C373.65 149 376 151.4 376 154.333333v21.333334C376 178.6 373.65 181 370.777778 181" fill="#D7E6F2"/>
    <path d="M370.777778 181h-36.555556C331.35 181 329 178.6 329 175.666667v-21.333334C329 151.4 331.35 149 334.222222 149h36.555556C373.65 149 376 151.4 376 154.333333v21.333334C376 178.6 373.65 181 370.777778 181zM334.25 234c-2.8875 0-5.25-2.3625-5.25-5.25v-31.5c0-2.8875 2.3625-5.25 5.25-5.25H371M390 196v39.602214C390 239.120996 387.18 242 383.733333 242H348" stroke="#19243B" stroke-linecap="round" stroke-linejoin="round"/>
    <path d="M361.244263 170.976587l.108151.081076c.080453.107658.106832.215315.106832.349555 0 .322973-.269059.592782-.590874.592782H342.780797c-.431285 0-.780797-.350884-.780797-.780186 0-.162151.052757-.296391.134529-.43196l.108151-.13424 6.404643-7.773949c.214982-.269809.538116-.43196.916644-.43196.375891 0 .699024.162151.914007.43196l2.395147 2.905429c.027697.053164.081772.107657.135848.160822.160907.160822.349512.241897.590873.241897.24268 0 .458982-.107658.619889-.26848.026378-.026582.054075-.081075.080454-.107657l.646267-.780186c.162226-.188734.431285-.322973.700343-.322973.294118 0 .536798.134239.699024.322973l4.898444 5.945097zM359.97283 159c1.111844 0 2.02717.899806 2.02717 1.989674s-.915326 1.989674-2.02717 1.989674c-1.110525 0-2.027169-.899806-2.027169-1.989674S358.862305 159 359.97283 159z" stroke="#19243B" fill="#FFF" stroke-linecap="round" stroke-linejoin="round"/>
    <g stroke="#19243B" stroke-linecap="round" stroke-linejoin="round">
      <path d="M339 228.6923077h14.6666667M339 223.4615385h14.6666667M339 218.2307692h14.6666667M358.603297 223.5960877l9.77599997 5.09622-2.04596364-11.8280554L375 208.4874265l-11.9770182-1.7256148L357.6666667 196l-5.3563152 10.7618117-11.9770182 1.7256148 5.3575758 5.1780946"/>
    </g>
    <g>
      <path d="M383.6730245 269C369.5845076 269 357.2012456 261.7699494 350 250.8240561c6.3659011 4.2055274 13.9704165 6.6539509 22.1510315 6.6539509 22.263371 0 40.3269755-18.060724 40.3269755-40.3269755 0-8.180615-2.451304-15.7851304-6.6568314-22.1510315C416.7670689 202.2012456 424 214.5873881 424 228.6730245 424 250.939276 405.9363955 269 383.6730245 269z" fill="#D7E6F2"/>
      <path fill="#FFF" d="M461 300.748836L451.794891 310 419 277.2540421 428.2511637 268z"/>
      <path d="M399.5981003 192.4312394c13.3400912 6.4961448 22.5508359 20.2929106 22.5508359 36.2617619 0 22.2121608-17.818997 40.2238068-39.7872341 40.2238068-21.9739209 0-39.787234-18.011646-39.787234-40.2238068 0-14.0409817 7.113389-26.401183 17.9014134-33.5983713m13.9283738-5.6290103c2.2596003-.3809847 4.5807462-.5772496 6.9517146-.5772496 3.5960177 0 7.0865287.4560272 10.4099875 1.3132428M433 229.0014424C433 200.8596318 410.1916506 178 382.0028849 178 353.8112343 178 331 200.8596318 331 229.0014424 331 257.1432531 353.8112343 280 382.0028849 280c11.7272882 0 22.531395-3.9378341 31.1083268-10.6162853l9.9703586 9.9700763 9.2722027-9.274825-9.9674736-9.9671918C429.0620545 251.4889272 433 240.7312838 433 229.0014424z" stroke="#19243B" fill="#FFF" stroke-linecap="round" stroke-linejoin="round"/>
      <path fill="#D7E6F2" d="M461 298.748836L451.760137 308 419 275.2540421 428.2398629 266l32.7141391 32.748836z"/>
      <path stroke="#19243B" stroke-linecap="round" stroke-linejoin="round" d="M461 298.748836L451.760137 308 419 275.2540421 428.2398629 266l32.7141391 32.748836z"/>
      <path stroke="#19243B" fill="#FFF" stroke-linecap="round" stroke-linejoin="round" d="M467 299.809719L452.809719 314 447 308.193018 461.193018 294z"/>
    </g>
  </g>
</svg>
