<svg xmlns="http://www.w3.org/2000/svg" width="40" height="40" viewBox="0 0 40 40">
    <g fill="none" fill-rule="evenodd">
        <path fill="#E6FCF1" d="M20 0C8.954 0 0 8.954 0 20s8.954 20 20 20 20-8.954 20-20S31.046 0 20 0z"/>
        <path fill="#00D664" fill-rule="nonzero" d="M21.562 12c-.822 0-1.783.63-1.928 3.44.122-.002.242-.011.366-.011.137 0 .28.007.415.011.093-1.689.505-2.678 1.147-2.678.275 0 .43.146.72.452.34.359.782.825 1.648 1a2.31 2.31 0 0 1-.024-.31c0-.16.017-.312.049-.464-.537-.142-.821-.444-1.099-.738-.31-.327-.665-.702-1.294-.702zm4.688.381c-.862 0-1.563.684-1.563 1.524 0 .839.7 1.524 1.563 1.524.862 0 1.562-.685 1.562-1.524 0-.84-.7-1.524-1.562-1.524zM20 16.191c-4.74 0-8.593 2.354-8.593 5.714C11.407 25.265 15.26 28 20 28c4.74 0 8.593-2.735 8.593-6.095S24.74 16.19 20 16.19zm-6.836.357c-.57 0-1.112.227-1.525.63-.673.657-.812 1.6-.428 2.382.59-1.115 1.607-2.066 2.918-2.774a2.185 2.185 0 0 0-.965-.238zm13.672 0c-.338 0-.667.09-.965.238 1.311.708 2.327 1.659 2.918 2.774.384-.782.245-1.725-.428-2.381a2.181 2.181 0 0 0-1.525-.631zm-9.96 3.071c.646 0 1.171.512 1.171 1.143 0 .63-.525 1.143-1.172 1.143-.647 0-1.172-.512-1.172-1.143s.525-1.143 1.172-1.143zm6.249 0c.647 0 1.172.512 1.172 1.143 0 .63-.525 1.143-1.172 1.143-.647 0-1.172-.512-1.172-1.143s.525-1.143 1.172-1.143zm-6.616 4.19c.098.017.194.07.256.155.041.057.957 1.25 3.235 1.25 2.309 0 3.226-1.226 3.235-1.238a.404.404 0 0 1 .549-.095c.175.12.209.351.085.524-.045.064-1.16 1.571-3.869 1.571-2.711 0-3.824-1.507-3.87-1.571a.365.365 0 0 1 .086-.524.406.406 0 0 1 .293-.071z"/>
    </g>
</svg>
