<svg width="533" height="412" xmlns="http://www.w3.org/2000/svg">
  <g fill="none" fill-rule="evenodd">
    <g transform="translate(-10.321692 1.899495)">
      <path stroke="#19243B" stroke-width=".8" stroke-linecap="round" stroke-linejoin="round" d="M11.4293363 336.42092513l25.24897183 7.5325574-22.21528885 18.64084068z"/>
      <path d="M333.32169212 345.10050556c6.075132 10.52243729 19.53012073 14.12769138 30.05255888 8.05255888 10.52243729-6.075132 14.12769088-19.5301216 8.05255888-30.05255888l-38.10511776 22z" stroke="#19243B" stroke-linecap="round" stroke-linejoin="round"/>
      <path d="M513.02568645 30.10050515c-6.33367255 4.43488527-7.87294406 13.16452577-3.43805851 19.49819873 4.43488497 6.33367214 13.16452618 7.87294378 19.49819872 3.43805851l-16.06014021-22.93625724zM109.69427503 63.89949488l-22.627417-22.627417 22.627417-22.627417 22.627417 22.627417z" fill="#E9F4FE" fill-rule="nonzero"/>
      <path stroke="#19243B" stroke-linecap="round" stroke-linejoin="round" d="M61.221187 62.89949494L51.32169206 53l9.89949494-9.89949494L71.12068194 53z"/>
      <circle fill="#E9F4FE" fill-rule="nonzero" cx="528.321692" cy="368.100505" r="14"/>
      <circle stroke="#19243B" stroke-linecap="round" stroke-linejoin="round" cx="536.321692" cy="403.100505" r="6"/>
      <circle stroke="#19243B" stroke-linecap="round" stroke-linejoin="round" cx="529.321692" cy="6.10050506" r="6"/>
      <circle stroke="#D7E6F2" stroke-linecap="round" stroke-linejoin="round" cx="102.321692" cy="328.100505" r="26"/>
      <circle stroke="#D7E6F2" stroke-linecap="round" stroke-linejoin="round" cx="517.321692" cy="241.100505" r="20"/>
    </g>
    <g stroke="#19243B" stroke-linecap="round" stroke-linejoin="round">
      <path d="M287.9999912 134.7507027c.0117422-16.5886539-11.7830496-30.72249267-27.8131568-33.32883547-16.0301072-2.6063428-31.53434161 7.08893427-36.56034889 22.86231647-5.02600728 15.7733821 1.91901397 32.9399323 16.37697119 40.4802359V193h29.9978341v-28.2049229c11.0478171-5.7617981 18.0010017-17.3684183 17.9987004-30.0443744zM240 181.5h30"/>
      <path d="M238 130l12 12 12-12 12 12"/>
    </g>
    <path d="M424.0015948 20.16772978l20.2696629 23.40968392C445.3684668 45.2868948 446 47.3216874 446 49.5c0 6.0756741-4.9214933 11-11.0007974 11-3.1162015 0-5.9325843-1.2980574-7.9356288-3.3838794l-23.542153-28.4328791C402.56455237 27.4106988 402 25.83198028 402 24.11612061 402 19.90939403 405.40964117 16.5 409.61348315 16.5c2.31243204 0 4.37926785 1.02696434 5.77629575 2.65352276l19.9220007 23.49260654c.5709315.7207886.9122146 1.6329371.9122146 2.6248188 0 2.3345897-1.8945995 4.2290519-4.232548 4.2290519-1.3683219 0-2.5867343-.6506234-3.3586082-1.6584517L411.7760058 27.5" stroke="#19243B" stroke-linecap="round" stroke-linejoin="round"/>
    <g stroke="#19243B" stroke-linecap="round" stroke-linejoin="round">
      <path d="M195.56143761 64.37781215c-44.20776383 31.1769363-57.21315643 90.52719736-29.80602804 136.02015478 27.40712916 45.4929586 85.92788694 61.69342781 134.11908268 37.12857164 48.19119605-24.56485748 69.70216664-81.56049464 49.29928805-130.6237799"/>
      <path d="M289.18894.5v113.069767H402C396.510962 53.5493021 349.072077 6.00162548 289.18894.5z" fill="#D7E6F2"/>
    </g>
    <path d="M373.3285032 172.631148h54.7339778c9.342684 0 16.986699 7.618647 16.986699 16.9303274v79.0081967c0 9.31168036-7.644015 16.9303279-16.986699 16.9303279H311.9866997C302.64401485 285.5 295 277.88135246 295 268.5696721v-70.5430328h14.155583c6.2284566 0 11.3244665-5.7280942 11.3244665-12.6977463v-12.697745h14.6595218" stroke="#19243B" fill="#FFF" stroke-linecap="round" stroke-linejoin="round"/>
    <path d="M353.4262295 172.631148h10.6229508" stroke="#19243B" stroke-linecap="round" stroke-linejoin="round"/>
    <path d="M320.2295082 172.631148v12.614754c0 6.924098-5.0459016 12.6147537-11.2131148 12.6147537H295l25.2295082-25.2295077z" fill="#D7E6F2"/>
    <path d="M320.2295082 172.631148v12.614754c0 6.924098-5.0459016 12.6147537-11.2131148 12.6147537H295l25.2295082-25.2295077z" stroke="#19243B" stroke-linecap="round" stroke-linejoin="round"/>
    <g stroke="#19243B" stroke-linecap="round" stroke-linejoin="round">
      <path d="M388.6147541 246.3278686H320.893443M425.13114757 233.0491801H320.893443M407.8688525 259.60655715H320.893443M402.5573771 218.4426227H320.893443M411.852459 203.8360653h-90.959016"/>
    </g>
    <path fill="#D7E6F2" d="M428.51377723 151.6293821l11.49417832 12.57034333-52.6390985 46.6634664-11.49417834-12.57034324z"/>
    <path stroke="#19243B" stroke-linecap="round" stroke-linejoin="round" d="M428.51377723 151.6293821l11.49417832 12.57034333-52.6390985 46.6634664-11.49417834-12.57034324z"/>
    <path fill="#D7E6F2" d="M371.08056814 213.94802966l16.01681179-2.9272912-11.3574318-12.3132318z"/>
    <path stroke="#19243B" stroke-linecap="round" stroke-linejoin="round" d="M371.08056814 213.94802966l16.01681179-2.9272912-11.3574318-12.3132318zM436.22529946 147.15398788l7.90910236 8.64291549-6.51622536 5.77169708-7.90910243-8.64291556z"/>
    <path fill="#D7E6F2" d="M441.91778453 138.82122218l11.01210128 12.64991824-8.34343899 7.76403778-11.0121013-12.6499182z"/>
    <path stroke="#19243B" stroke-linecap="round" stroke-linejoin="round" d="M441.91778453 138.82122218l11.01210128 12.64991824-8.34343899 7.76403778-11.0121013-12.6499182z"/>
    <path stroke="#19243B" fill="#FFF" stroke-linecap="round" stroke-linejoin="round" d="M202.95778975 87.11517725l.56374809-32.54934008-32.50947624.56443964-.20499923 11.83612373 20.6878484-.3591889-.35874878 20.7132163z"/>
    <g>
      <path stroke="#111" fill="#D7E6F2" stroke-linecap="round" stroke-linejoin="round" d="M186 236.5h-31v48h31z"/>
      <path stroke="#111" stroke-linecap="round" stroke-linejoin="round" d="M143 197.5h-31v87h31z"/>
      <path d="M98.2175546 250.7175546c3.7099272-3.7099273 3.7099272-9.7251819 0-13.4351092-3.7099273-3.7099272-9.7251819-3.7099272-13.4351096 0-3.709927 3.7099273-3.709927 9.7251819 0 13.4351092 3.7099277 3.7099272 9.7251823 3.7099272 13.4351096 0M65.48136 262.5784118l4.863305-6.7642648c-.82731-1.5036778-1.485502-3.0941941-1.960863-4.7349854l-8.231967-1.4442619C59.489073 249.5206384 59 248.9401914 59 248.2637649v-7.6463615c.004571-.6809969.498215-1.2660144 1.170119-1.3757052l8.190829-1.3391416c.479932-1.6636435 1.138124-3.2633007 1.974575-4.7806899l-4.77646-6.8008284c-.388516-.5530243-.329096-1.3071484.150836-1.7870456l5.411798-5.4068414c.479931-.4844676 1.243251-.5438834 1.796315-.1462543l6.700757 4.8172534c1.517497-.8409627 3.117269-1.5082482 4.767319-1.9927159l1.35752-8.1445404c.109699-.671856.6901872-1.1608941 1.3758035-1.1608941h7.6423368c.6764748 0 1.2569633.4844676 1.3712327 1.1471827l1.4443651 8.1262587c1.6683331.4798972 3.2818169 1.1471828 4.8130267 1.9927159l6.6916155-4.7852603c.5530638-.3930587 1.3118126-.3336428 1.7963148.1462543l5.4072275 5.4114119c.4799315.4798971.5439223 1.2294508.1599772 1.7824751l-4.7216112 6.755124c.8410227 1.52653 1.5037852 3.1398985 1.9928581 4.8172534l8.1176975 1.3482825c.671904.1096908 1.160977.6901378 1.160977 1.3711348L123 248.2637649c0 .6764265-.4845022 1.2568735-1.1518355 1.3711348l-8.1451221 1.435121c-.4845022 1.668214-1.1518354 3.2724416-1.9882874 4.7898308l4.808456 6.7277012c.3930867.5484539.3290958 1.3071484-.1508356 1.7870456l-5.4117983 5.4114118c-.4753607.4753268-1.2249679.5438835-1.7780317.1553953l-6.824168-4.7669785c-1.5220683.8318218-3.1264105 1.4899664-4.7810313 1.9652932l-1.4443651 8.2085267c-.1142694.6672856-.6901871 1.1517532-1.3712327 1.1517532l-7.6469076-.0045704c-.6856163 0-1.2661047-.4936086-1.3758037-1.1654646l-1.334666-8.2222381c-1.65005-.4798971-3.236109-1.1380418-4.739894-1.9652931l-6.842452 4.7989716c-.553063.3884882-1.307241.3199315-1.782602-.1553953l-5.411798-5.4114118c-.484503-.4798972-.543923-1.2431622-.146265-1.7961865" fill="#D7E6F2"/>
      <path d="M98.2175546 250.7175546c3.7099272-3.7099273 3.7099272-9.7251819 0-13.4351092-3.7099273-3.7099272-9.7251819-3.7099272-13.4351096 0-3.709927 3.7099273-3.709927 9.7251819 0 13.4351092 3.7099277 3.7099272 9.7251823 3.7099272 13.4351096 0zM65.48136 262.5784118l4.863305-6.7642648c-.82731-1.5036778-1.485502-3.0941941-1.960863-4.7349854l-8.231967-1.4442619C59.489073 249.5206384 59 248.9401914 59 248.2637649v-7.6463615c.004571-.6809969.498215-1.2660144 1.170119-1.3757052l8.190829-1.3391416c.479932-1.6636435 1.138124-3.2633007 1.974575-4.7806899l-4.77646-6.8008284c-.388516-.5530243-.329096-1.3071484.150836-1.7870456l5.411798-5.4068414c.479931-.4844676 1.243251-.5438834 1.796315-.1462543l6.700757 4.8172534c1.517497-.8409627 3.117269-1.5082482 4.767319-1.9927159l1.35752-8.1445404c.109699-.671856.6901872-1.1608941 1.3758035-1.1608941h7.6423368c.6764748 0 1.2569633.4844676 1.3712327 1.1471827l1.4443651 8.1262587c1.6683331.4798972 3.2818169 1.1471828 4.8130267 1.9927159l6.6916155-4.7852603c.5530638-.3930587 1.3118126-.3336428 1.7963148.1462543l5.4072275 5.4114119c.4799315.4798971.5439223 1.2294508.1599772 1.7824751l-4.7216112 6.755124c.8410227 1.52653 1.5037852 3.1398985 1.9928581 4.8172534l8.1176975 1.3482825c.671904.1096908 1.160977.6901378 1.160977 1.3711348L123 248.2637649c0 .6764265-.4845022 1.2568735-1.1518355 1.3711348l-8.1451221 1.435121c-.4845022 1.668214-1.1518354 3.2724416-1.9882874 4.7898308l4.808456 6.7277012c.3930867.5484539.3290958 1.3071484-.1508356 1.7870456l-5.4117983 5.4114118c-.4753607.4753268-1.2249679.5438835-1.7780317.1553953l-6.824168-4.7669785c-1.5220683.8318218-3.1264105 1.4899664-4.7810313 1.9652932l-1.4443651 8.2085267c-.1142694.6672856-.6901871 1.1517532-1.3712327 1.1517532l-7.6469076-.0045704c-.6856163 0-1.2661047-.4936086-1.3758037-1.1654646l-1.334666-8.2222381c-1.65005-.4798971-3.236109-1.1380418-4.739894-1.9652931l-6.842452 4.7989716c-.553063.3884882-1.307241.3199315-1.782602-.1553953l-5.411798-5.4114118c-.484503-.4798972-.543923-1.2431622-.146265-1.7961865z" stroke="#19243B" stroke-linecap="round" stroke-linejoin="round"/>
    </g>
  </g>
</svg>
