<?xml version="1.0" encoding="UTF-8"?>
<svg width="28px" height="28px" viewBox="0 0 28 28" version="1.1" xmlns="http://www.w3.org/2000/svg" xmlns:xlink="http://www.w3.org/1999/xlink">
    <!-- Generator: Sketch 55 (78076) - https://sketchapp.com -->
    <title>icon_4</title>
    <desc>Created with Sketch.</desc>
    <g id="landing-page" stroke="none" stroke-width="1" fill="none" fill-rule="evenodd">
        <g id="yupi_there/subpage/desktop" transform="translate(-1036.000000, -966.000000)">
            <g id="how-it-works" transform="translate(130.000000, 779.000000)">
                <g id="icon_4" transform="translate(900.000000, 181.000000)">
                    <rect id="Rectangle" x="0" y="0" width="40" height="40"></rect>
                    <path d="M32.5263055,17.8640435 L29.1855803,17.3180435 C28.9899981,16.6476957 28.7226271,16.0033478 28.3879893,15.3934783 L30.3381588,12.6143043 C30.4958681,12.389913 30.4687353,12.0841304 30.2748489,11.8896957 L28.0765274,9.69269565 C27.8803799,9.49713043 27.5717444,9.47169565 27.3467684,9.63391304 L24.6091826,11.6014348 C23.9936074,11.2611739 23.3435509,10.991 22.6691879,10.7948696 L22.0863981,7.468 C22.0389157,7.19782609 21.8043301,7 21.5296106,7 L18.4206448,7 C18.1436642,7 17.9073828,7.20065217 17.8627267,7.47421739 L17.3223319,10.783 C16.6440121,10.978 15.9928251,11.2453478 15.3795109,11.581087 L12.6492736,9.63108696 C12.4237322,9.47 12.1167925,9.496 11.920645,9.691 L9.72345409,11.888 C9.52956767,12.0818696 9.50243488,12.387087 9.66014424,12.6114783 L11.5814851,15.3601304 C11.2394989,15.9790435 10.9670404,16.6341304 10.7686319,17.3157826 L7.47256281,17.8646087 C7.20010435,17.9098261 7,18.146087 7,18.421913 L7,21.5306087 C7,21.8047391 7.19671275,22.0393043 7.46634488,22.0873478 L10.762414,22.6717826 C10.959692,23.3517391 11.2321504,24.0068261 11.5752672,24.6274348 L9.63018511,27.3478261 C9.46964942,27.5722174 9.49508641,27.8802609 9.69010336,28.0763913 L11.8878596,30.2756522 C12.081746,30.4695217 12.3875552,30.4966522 12.611966,30.3389565 L15.3648139,28.411 C15.9826503,28.7506957 16.6355331,29.0203043 17.3121571,29.2158696 L17.8638572,32.5286087 C17.9085133,32.8004783 18.1442294,33 18.4206448,33 L21.5296106,33 C21.8037649,33 22.0383505,32.8033043 22.0858329,32.5336957 L22.6765364,29.2045652 C23.3542909,29.0050435 24.0037822,28.7337391 24.6154005,28.3934783 L27.3880328,30.3383913 C27.6130089,30.4972174 27.9182528,30.4695217 28.1127045,30.2756522 L30.3104607,28.0763913 C30.5060429,27.8802609 30.5314799,27.571087 30.3692484,27.3461304 L28.3919461,24.6008696 C28.7271492,23.9904348 28.9933897,23.3449565 29.1872761,22.6746087 L32.5325234,22.0873478 C32.8032861,22.0398696 32.9999988,21.8047391 32.9999988,21.5306087 L32.9999988,18.421913 C33.0005641,18.1449565 32.7998945,17.9086957 32.5263055,17.8640435 Z M20,24 C17.7908571,24 16,22.2091429 16,20 C16,17.7908571 17.7908571,16 20,16 C22.2091429,16 24,17.7908571 24,20 C24,22.2091429 22.2091429,24 20,24 Z" id="Shape" stroke="#00D664" stroke-width="1.73348399" fill="#B7F5D4" fill-rule="nonzero"></path>
                </g>
            </g>
        </g>
    </g>
</svg>