<svg xmlns="http://www.w3.org/2000/svg" width="40" height="40" viewBox="0 0 40 40">
    <g fill="none" fill-rule="evenodd">
        <path fill="#E6FCF1" d="M20 0c11.046 0 20 8.954 20 20s-8.954 20-20 20S0 31.046 0 20 8.954 0 20 0z"/>
        <path fill="#00D664" d="M24.781 15.009l-7.647 6.688a.406.406 0 0 0-.136.259l-.294 2.589c-.01.084-.13.095-.155.014l-1.211-3.86a.404.404 0 0 1 .176-.466l9.03-5.54c.207-.127.42.155.237.316m2.064-2.95l-16.463 6.345a.592.592 0 0 0 .048 1.123l4.184 1.222 1.56 4.9a.722.722 0 0 0 1.2.284l2.162-2.185 4.244 3.082a.889.889 0 0 0 1.39-.527l2.811-13.292c.138-.652-.51-1.194-1.136-.952"/>
    </g>
</svg>
