<?xml version="1.0" encoding="UTF-8"?>
<svg width="31px" height="32px" viewBox="0 0 31 32" version="1.1" xmlns="http://www.w3.org/2000/svg" xmlns:xlink="http://www.w3.org/1999/xlink">
    <!-- Generator: Sketch 55 (78076) - https://sketchapp.com -->
    <title>icon_12</title>
    <desc>Created with Sketch.</desc>
    <g id="-" stroke="none" stroke-width="1" fill="none" fill-rule="evenodd">
        <g id="yupi_there/subpage/oferta-seo" transform="translate(-134.000000, -2487.000000)">
            <g id="Group-3" transform="translate(0.000000, 2053.000000)">
                <g id="icon_12" transform="translate(130.000000, 430.000000)">
                    <g id="Group-2">
                        <rect id="Rectangle" x="0" y="0" width="40" height="40"></rect>
                        <g id="settings" transform="translate(4.500000, 5.000000)" stroke="#00D664" stroke-linecap="round" stroke-linejoin="round" stroke-width="2">
                            <path d="M24.2321018,19 L28.0247476,22.2012239 C29.8589462,23.8582328 30.0023759,26.6880985 28.3451116,28.5219992 C28.2944105,28.5777035 28.2425951,28.6334079 28.1891082,28.6891123 C26.440846,30.4369626 23.6064202,30.4369626 21.858158,28.6891123 C21.8024425,28.6334079 21.7528557,28.5777035 21.7021546,28.5219992 L17.5,24" id="Path"></path>
                            <polyline id="Path" points="13.5 10.9642238 8.47904988 5.90080053 8.47904988 3.75505488 4.75549327 0 0.5 4.29149129 4.22355661 8.04654617 6.35130324 8.04654617 11.2632064 13"></polyline>
                            <path d="M29.1636262,5.27306112 L25.2025184,9.37358227 L20.4380188,4.44339883 L24.3969785,0.343433382 C23.4801403,0.0637398478 22.5228266,-0.0464944748 21.5689967,0.0177923208 C17.9348409,0.330577964 15.0510336,3.31466871 14.7487594,7.07520099 C14.68646,8.06319314 14.7933606,9.05480472 15.064531,10.0043034 L1.18830184,22.9688187 C0.777191667,23.3532979 0.530550066,23.8910439 0.50265177,24.4637231 C0.474753475,25.0364023 0.667884535,25.5970879 1.03954548,26.0223983 C1.06317465,26.0496277 1.08734085,26.0779684 1.11204407,26.1013079 L4.27083427,29.369944 C5.08802891,30.2119675 6.40995317,30.2097292 7.22448033,29.3649426 C7.2481095,29.3399361 7.27173867,29.3149295 7.29429379,29.2888115 L19.8322528,14.9317084 C20.7500206,15.2123395 21.7084896,15.3229575 22.6634568,15.2584608 C26.2976126,14.9456752 29.1814199,11.9615844 29.4836941,8.20105217 C29.544237,7.21317265 29.4358874,6.22198659 29.1636262,5.27306112 L29.1636262,5.27306112 Z" id="Path" fill="#B7F5D4"></path>
                        </g>
                    </g>
                </g>
            </g>
        </g>
    </g>
</svg>