<svg xmlns="http://www.w3.org/2000/svg" width="40" height="40" viewBox="0 0 40 40">
    <g fill="none" fill-rule="evenodd">
        <path fill="#E6FCF1" d="M20 0c11.046 0 20 8.954 20 20s-8.954 20-20 20S0 31.046 0 20 8.954 0 20 0z"/>
        <path fill="#00D664" fill-rule="nonzero" d="M30 14.66a7.62 7.62 0 0 1-2.121.555 3.578 3.578 0 0 0 1.623-1.954 7.647 7.647 0 0 1-2.344.858A3.772 3.772 0 0 0 24.463 13c-2.04 0-3.694 1.584-3.694 3.535 0 .278.032.547.096.805-3.07-.146-5.792-1.553-7.611-3.692a3.39 3.39 0 0 0-.501 1.777c0 1.225.65 2.307 1.643 2.94a3.798 3.798 0 0 1-1.672-.442v.045c0 1.712 1.271 3.142 2.962 3.465a3.832 3.832 0 0 1-1.667.061c.468 1.405 1.834 2.425 3.448 2.456a7.621 7.621 0 0 1-4.585 1.511c-.299 0-.592-.017-.882-.05A10.787 10.787 0 0 0 17.66 27c6.794 0 10.509-5.385 10.509-10.056 0-.151-.006-.305-.012-.457A7.392 7.392 0 0 0 30 14.66z"/>
    </g>
</svg>
